<svg width="24" height="24" viewBox="0 0 24 24" fill="none" xmlns="http://www.w3.org/2000/svg">
<g id="Checkbox-on">
<path id="BG" opacity="0.4" d="M20.25 6V18C20.25 19.24 19.24 20.25 18 20.25H6C4.76 20.25 3.75 19.24 3.75 18V6C3.75 4.76 4.76 3.75 6 3.75H18C19.24 3.75 20.25 4.76 20.25 6Z" fill="#D58B0E"/>
<path id="Vector" d="M16 8L11.43 16L8 12M21 18V6C21 4.34 19.66 3 18 3H6C4.34 3 3 4.34 3 6V18C3 19.66 4.34 21 6 21H18C19.66 21 21 19.66 21 18Z" stroke="#D58B0E" stroke-width="1.5" stroke-miterlimit="10" stroke-linecap="round" stroke-linejoin="round"/>
</g>
</svg>
