<svg width="24" height="24" viewBox="0 0 24 24" fill="none" xmlns="http://www.w3.org/2000/svg">
<g id="Cup">
<g id="Group">
<path id="Vector" opacity="0.5" d="M12.0015 16C6.24149 16 5.22149 10.26 5.04149 5.70599C4.99149 4.43999 4.96549 3.80599 5.44149 3.22099C5.91749 2.63499 6.48649 2.53899 7.62549 2.34699C9.07198 2.10992 10.5357 1.99385 12.0015 1.99999C13.7845 1.99999 15.2545 2.15699 16.3785 2.34699C17.5165 2.53899 18.0865 2.63499 18.5615 3.22099C19.0375 3.80699 19.0125 4.43999 18.9615 5.70599C18.7815 10.259 17.7615 16 12.0015 16Z" fill="#C07600"/>
<path id="Vector_2" d="M17.64 12.422L20.457 10.857C21.209 10.439 21.585 10.23 21.793 9.878C22 9.526 22 9.096 22 8.235V8.162C22 7.119 22 6.597 21.717 6.204C21.434 5.811 20.939 5.646 19.949 5.316L19 5L18.983 5.085C18.978 5.274 18.97 5.48 18.961 5.706C18.873 7.931 18.584 10.439 17.641 12.422H17.64ZM5.04 5.706C5.127 7.931 5.416 10.439 6.36 12.422L3.543 10.857C2.791 10.439 2.414 10.23 2.207 9.878C2 9.526 2 9.096 2 8.235V8.162C2 7.119 2 6.597 2.283 6.204C2.566 5.811 3.061 5.646 4.051 5.316L5 5L5.017 5.087C5.022 5.275 5.03 5.481 5.039 5.707L5.04 5.706Z" fill="#C07600"/>
<path id="Vector_3" fill-rule="evenodd" clip-rule="evenodd" d="M5.25 22C5.25 21.8011 5.32902 21.6103 5.46967 21.4697C5.61032 21.329 5.80109 21.25 6 21.25H18C18.1989 21.25 18.3897 21.329 18.5303 21.4697C18.671 21.6103 18.75 21.8011 18.75 22C18.75 22.1989 18.671 22.3897 18.5303 22.5303C18.3897 22.671 18.1989 22.75 18 22.75H6C5.80109 22.75 5.61032 22.671 5.46967 22.5303C5.32902 22.3897 5.25 22.1989 5.25 22Z" fill="#C07600"/>
<path id="Vector_4" opacity="0.5" d="M15.458 21.25H8.54297L8.83997 19.5C8.88526 19.2734 9.00764 19.0695 9.1863 18.9229C9.36496 18.7764 9.58888 18.6962 9.81997 18.696H14.18C14.4112 18.696 14.6354 18.776 14.8142 18.9226C14.9931 19.0692 15.1156 19.2733 15.161 19.5L15.458 21.25Z" fill="#C07600"/>
<path id="Vector_5" d="M12.0003 16C11.7403 16 11.4903 15.989 11.2503 15.966V18.696H12.7503V15.966C12.501 15.9891 12.2507 16.0004 12.0003 16ZM11.1463 6.023C11.5263 5.34 11.7163 5 12.0003 5C12.2843 5 12.4743 5.34 12.8543 6.023L12.9523 6.199C13.0603 6.393 13.1143 6.489 13.1983 6.553C13.2833 6.617 13.3883 6.641 13.5983 6.688L13.7883 6.732C14.5263 6.899 14.8953 6.982 14.9833 7.264C15.0713 7.547 14.8193 7.841 14.3163 8.429L14.1863 8.581C14.0433 8.748 13.9713 8.831 13.9393 8.935C13.9073 9.039 13.9183 9.15 13.9393 9.373L13.9593 9.576C14.0353 10.361 14.0733 10.754 13.8443 10.928C13.6143 11.102 13.2683 10.943 12.5773 10.625L12.3993 10.543C12.2023 10.453 12.1043 10.408 12.0003 10.408C11.8963 10.408 11.7983 10.453 11.6013 10.543L11.4233 10.625C10.7323 10.944 10.3863 11.102 10.1563 10.928C9.92628 10.754 9.96528 10.361 10.0413 9.576L10.0613 9.373C10.0823 9.15 10.0933 9.039 10.0613 8.935C10.0293 8.832 9.95728 8.748 9.81428 8.581L9.68428 8.429C9.18128 7.841 8.92928 7.547 9.01728 7.264C9.10528 6.982 9.47428 6.899 10.2123 6.732L10.4023 6.688C10.6123 6.641 10.7173 6.618 10.8023 6.553C10.8863 6.489 10.9403 6.393 11.0483 6.199L11.1463 6.023Z" fill="#C07600"/>
</g>
</g>
</svg>
