<svg width="24" height="24" viewBox="0 0 24 24" fill="none" xmlns="http://www.w3.org/2000/svg">
<g id="infinity">
<g id="Group">
<path id="Vector" opacity="0.2" d="M21.1833 15.1817C20.3394 16.0255 19.1949 16.4996 18.0014 16.4996C16.808 16.4996 15.6635 16.0255 14.8196 15.1817L12.0014 11.9998L14.8196 8.81791C15.6658 7.98535 16.8067 7.52091 17.9938 7.52574C19.181 7.53057 20.3181 8.0043 21.1575 8.84372C21.9969 9.68315 22.4706 10.8203 22.4755 12.0074C22.4803 13.1945 22.0159 14.3354 21.1833 15.1817ZM2.81956 8.81791C1.98699 9.66415 1.52255 10.8051 1.52738 11.9922C1.53221 13.1793 2.00594 14.3164 2.84536 15.1559C3.68479 15.9953 4.8219 16.469 6.00902 16.4738C7.19614 16.4787 8.33707 16.0142 9.18331 15.1817L12.0014 11.9998L9.18331 8.81791C8.3394 7.97406 7.19485 7.5 6.00143 7.5C4.80801 7.5 3.66346 7.97406 2.81956 8.81791Z" fill="#C07600"/>
<path id="Vector_2" d="M23.2517 11.9999C23.2517 13.0383 22.9439 14.0534 22.367 14.9168C21.7901 15.7803 20.9701 16.4532 20.0108 16.8506C19.0514 17.248 17.9958 17.352 16.9773 17.1494C15.9589 16.9468 15.0234 16.4467 14.2892 15.7124L14.2582 15.6796L8.6379 9.33271C8.11172 8.81267 7.44347 8.45989 6.71725 8.31876C5.99103 8.17763 5.2393 8.25446 4.55664 8.53958C3.87399 8.82469 3.29092 9.30536 2.88081 9.92109C2.4707 10.5368 2.25188 11.2601 2.25188 11.9999C2.25188 12.7397 2.4707 13.463 2.88081 14.0787C3.29092 14.6944 3.87399 15.1751 4.55664 15.4602C5.2393 15.7453 5.99103 15.8222 6.71725 15.681C7.44347 15.5399 8.11172 15.1871 8.6379 14.6671L9.43665 13.7652C9.56856 13.616 9.75432 13.5253 9.95308 13.5131C10.1518 13.5009 10.3473 13.5681 10.4965 13.7C10.6457 13.832 10.7364 14.0177 10.7486 14.2165C10.7608 14.4152 10.6936 14.6107 10.5617 14.7599L9.74696 15.6796L9.71603 15.7124C8.98178 16.4466 8.04632 16.9465 7.02793 17.1491C6.00955 17.3516 4.95398 17.2476 3.99469 16.8502C3.03541 16.4528 2.21551 15.7799 1.63865 14.9166C1.0618 14.0532 0.753906 13.0382 0.753906 11.9999C0.753906 10.9616 1.0618 9.94655 1.63865 9.08321C2.21551 8.21986 3.03541 7.54695 3.99469 7.14958C4.95398 6.7522 6.00955 6.6482 7.02793 6.85073C8.04632 7.05326 8.98178 7.55322 9.71603 8.28739L9.74696 8.32021L15.3673 14.6671C15.8935 15.1871 16.5617 15.5399 17.2879 15.681C18.0141 15.8222 18.7659 15.7453 19.4485 15.4602C20.1312 15.1751 20.7143 14.6944 21.1244 14.0787C21.5345 13.463 21.7533 12.7397 21.7533 11.9999C21.7533 11.2601 21.5345 10.5368 21.1244 9.92109C20.7143 9.30536 20.1312 8.82469 19.4485 8.53958C18.7659 8.25446 18.0141 8.17763 17.2879 8.31876C16.5617 8.45989 15.8935 8.81267 15.3673 9.33271L14.5685 10.2346C14.4366 10.3838 14.2509 10.4744 14.0521 10.4867C13.8533 10.4989 13.6579 10.4316 13.5087 10.2997C13.3595 10.1678 13.2688 9.98207 13.2566 9.78331C13.2444 9.58455 13.3116 9.38908 13.4435 9.23989L14.2582 8.32021L14.2892 8.28739C15.0234 7.55309 15.9589 7.05302 16.9773 6.85041C17.9958 6.64781 19.0514 6.75178 20.0108 7.14917C20.9701 7.54656 21.7901 8.21952 22.367 9.08295C22.9439 9.94638 23.2517 10.9615 23.2517 11.9999Z" fill="#C07600"/>
</g>
</g>
</svg>
