<svg width="12" height="12" viewBox="0 0 12 12" fill="none" xmlns="http://www.w3.org/2000/svg">
<path d="M9.1163 2.18502C8.97786 2.18502 8.84252 2.22607 8.7274 2.30299C8.61229 2.37991 8.52257 2.48923 8.46959 2.61714C8.4166 2.74505 8.40274 2.8858 8.42975 3.02158C8.45676 3.15737 8.52343 3.2821 8.62133 3.38C8.71922 3.47789 8.84395 3.54456 8.97974 3.57157C9.11553 3.59858 9.25627 3.58472 9.38418 3.53174C9.51209 3.47875 9.62141 3.38903 9.69833 3.27392C9.77525 3.15881 9.8163 3.02347 9.8163 2.88502C9.8163 2.69937 9.74255 2.52132 9.61128 2.39005C9.48 2.25877 9.30195 2.18502 9.1163 2.18502ZM11.7996 3.59669C11.7883 3.11269 11.6976 2.63384 11.5313 2.17919C11.383 1.79018 11.1521 1.43793 10.8546 1.14669C10.5658 0.847686 10.2127 0.61829 9.82214 0.475854C9.36869 0.304447 8.8893 0.211726 8.40464 0.201687C7.7863 0.166687 7.58797 0.166687 6.0013 0.166687C4.41464 0.166687 4.2163 0.166687 3.59797 0.201687C3.11331 0.211726 2.63392 0.304447 2.18047 0.475854C1.79061 0.619732 1.43785 0.848931 1.14797 1.14669C0.848967 1.43554 0.619572 1.78861 0.477135 2.17919C0.305729 2.63264 0.213008 3.11203 0.202969 3.59669C0.167969 4.21502 0.167969 4.41335 0.167969 6.00002C0.167969 7.58669 0.167969 7.78502 0.202969 8.40335C0.213008 8.88802 0.305729 9.3674 0.477135 9.82085C0.619572 10.2114 0.848967 10.5645 1.14797 10.8534C1.43785 11.1511 1.79061 11.3803 2.18047 11.5242C2.63392 11.6956 3.11331 11.7883 3.59797 11.7984C4.2163 11.8334 4.41464 11.8334 6.0013 11.8334C7.58797 11.8334 7.7863 11.8334 8.40464 11.7984C8.8893 11.7883 9.36869 11.6956 9.82214 11.5242C10.2127 11.3818 10.5658 11.1524 10.8546 10.8534C11.1534 10.5632 11.3845 10.2106 11.5313 9.82085C11.6976 9.3662 11.7883 8.88735 11.7996 8.40335C11.7996 7.78502 11.8346 7.58669 11.8346 6.00002C11.8346 4.41335 11.8346 4.21502 11.7996 3.59669ZM10.7496 8.33335C10.7454 8.70364 10.6783 9.07051 10.5513 9.41835C10.4582 9.67222 10.3086 9.9016 10.1138 10.0892C9.9246 10.282 9.69568 10.4313 9.44297 10.5267C9.09513 10.6537 8.72825 10.7208 8.35797 10.725C7.77464 10.7542 7.5588 10.76 6.02464 10.76C4.49047 10.76 4.27464 10.76 3.6913 10.725C3.30682 10.7322 2.92398 10.673 2.55964 10.55C2.31801 10.4497 2.09959 10.3008 1.91797 10.1125C1.72435 9.92512 1.57663 9.69555 1.4863 9.44169C1.34389 9.08886 1.26489 8.71365 1.25297 8.33335C1.25297 7.75002 1.21797 7.53419 1.21797 6.00002C1.21797 4.46585 1.21797 4.25002 1.25297 3.66669C1.25558 3.28814 1.32469 2.91299 1.45714 2.55835C1.55983 2.31214 1.71746 2.09265 1.91797 1.91669C2.09519 1.71612 2.31422 1.55683 2.55964 1.45002C2.91521 1.32171 3.28997 1.25465 3.66797 1.25169C4.2513 1.25169 4.46714 1.21669 6.0013 1.21669C7.53547 1.21669 7.7513 1.21669 8.33464 1.25169C8.70492 1.25593 9.0718 1.323 9.41964 1.45002C9.68472 1.5484 9.92264 1.70835 10.1138 1.91669C10.305 2.09587 10.4543 2.31495 10.5513 2.55835C10.681 2.91357 10.7481 3.28856 10.7496 3.66669C10.7788 4.25002 10.7846 4.46585 10.7846 6.00002C10.7846 7.53419 10.7788 7.75002 10.7496 8.33335ZM6.0013 3.00752C5.40969 3.00867 4.8317 3.18516 4.34035 3.51468C3.849 3.8442 3.46636 4.31197 3.24076 4.85888C3.01515 5.40579 2.95672 6.00729 3.07285 6.5874C3.18897 7.1675 3.47444 7.70017 3.89318 8.11809C4.31192 8.53602 4.84514 8.82045 5.42547 8.93544C6.0058 9.05044 6.60719 8.99083 7.15366 8.76417C7.70013 8.5375 8.16715 8.15394 8.49571 7.66196C8.82427 7.16997 8.99963 6.59163 8.99964 6.00002C9.00041 5.60633 8.92334 5.21637 8.77286 4.85258C8.62238 4.48878 8.40146 4.15833 8.12281 3.88022C7.84416 3.60211 7.51327 3.38183 7.14918 3.23206C6.7851 3.08229 6.39499 3.00598 6.0013 3.00752ZM6.0013 7.94252C5.61711 7.94252 5.24155 7.8286 4.92211 7.61515C4.60266 7.40171 4.35369 7.09833 4.20667 6.74338C4.05964 6.38844 4.02118 5.99787 4.09613 5.62106C4.17108 5.24425 4.35608 4.89813 4.62775 4.62647C4.89941 4.3548 5.24553 4.1698 5.62234 4.09485C5.99915 4.01989 6.38972 4.05836 6.74467 4.20538C7.09961 4.35241 7.40299 4.60138 7.61643 4.92083C7.82988 5.24027 7.9438 5.61583 7.9438 6.00002C7.9438 6.25511 7.89356 6.50771 7.79594 6.74338C7.69832 6.97906 7.55524 7.1932 7.37486 7.37358C7.19448 7.55395 6.98034 7.69704 6.74467 7.79466C6.50899 7.89228 6.2564 7.94252 6.0013 7.94252Z" fill="#D58B0E"/>
</svg>
