<svg width="20" height="20" viewBox="0 0 20 20" fill="none" xmlns="http://www.w3.org/2000/svg">
<path d="M9.99 20C4.47 20 3.91654e-07 15.52 8.74228e-07 10C1.3568e-06 4.48 4.47 3.9078e-07 9.99 8.73354e-07C15.52 1.3568e-06 20 4.48 20 10C20 15.52 15.52 20 9.99 20ZM16.92 14L13.97 14C13.657 15.2385 13.1936 16.4341 12.59 17.56C14.4141 16.932 15.9512 15.6683 16.92 14ZM10 17.96C10.83 16.76 11.48 15.43 11.91 14L8.09 14C8.52 15.43 9.17 16.76 10 17.96ZM2.26 8C2.1 8.64 2 9.31 2 10C2 10.69 2.1 11.36 2.26 12L5.64 12C5.56 11.34 5.5 10.68 5.5 10C5.5 9.32 5.56 8.66 5.64 8L2.26 8ZM3.08 6L6.03 6C6.35 4.75 6.81 3.55 7.41 2.44C5.58397 3.06457 4.04583 4.32918 3.08 6ZM6.03 14L3.08 14C4.04583 15.6708 5.58397 16.9354 7.41 17.56C6.80643 16.4341 6.34298 15.2385 6.03 14ZM10 2.04C9.17 3.24 8.52 4.57 8.09 6L11.91 6C11.48 4.57 10.83 3.24 10 2.04ZM12.34 8L7.66 8C7.57 8.66 7.5 9.32 7.5 10C7.5 10.68 7.57 11.35 7.66 12L12.34 12C12.43 11.35 12.5 10.68 12.5 10C12.5 9.32 12.43 8.66 12.34 8ZM12.59 2.44C13.19 3.55 13.65 4.75 13.97 6L16.92 6C15.9512 4.33173 14.4141 3.068 12.59 2.44ZM14.36 8C14.44 8.66 14.5 9.32 14.5 10C14.5 10.68 14.44 11.34 14.36 12L17.74 12C17.9 11.36 18 10.69 18 10C18 9.31 17.9 8.64 17.74 8L14.36 8Z" fill="#F3F3F3"/>
</svg>
