<svg width="100" height="100" viewBox="0 0 100 100" fill="none" xmlns="http://www.w3.org/2000/svg">
<g id="Lock">
<rect width="100" height="100" rx="50" fill="#2A2A2A"/>
<path id="Vector" d="M65.6 47.6H62.2V36.4C62.2 32.865 59.335 30 55.8 30H43.4C39.865 30 37 32.865 37 36.4V47.6H33.6C32.715 47.6 32 48.315 32 49.2V68.4C32 69.285 32.715 70 33.6 70H65.6C66.485 70 67.2 69.285 67.2 68.4V49.2C67.2 48.315 66.485 47.6 65.6 47.6ZM51 59.45V62.1C51 62.32 50.82 62.5 50.6 62.5H48.6C48.38 62.5 48.2 62.32 48.2 62.1V59.45C47.7873 59.1537 47.4792 58.734 47.3201 58.2515C47.1611 57.7689 47.1593 57.2483 47.3149 56.7647C47.4706 56.281 47.7757 55.8592 48.1863 55.56C48.5969 55.2607 49.0919 55.0995 49.6 55.0995C50.1081 55.0995 50.6031 55.2607 51.0137 55.56C51.4243 55.8592 51.7295 56.281 51.8851 56.7647C52.0407 57.2483 52.0389 57.7689 51.8799 58.2515C51.7208 58.734 51.4127 59.1537 51 59.45ZM58.6 47.6H40.6V36.4C40.6 34.855 41.855 33.6 43.4 33.6H55.8C57.345 33.6 58.6 34.855 58.6 36.4V47.6Z" fill="#EE9B07"/>
</g>
</svg>
