<svg width="24" height="24" viewBox="0 0 24 24" fill="none" xmlns="http://www.w3.org/2000/svg">
<g id="Mobile-iphone">
<path id="BG" opacity="0.4" d="M17.25 6V18C17.25 19.24 16.24 20.25 15 20.25H9C7.76 20.25 6.75 19.24 6.75 18V6C6.75 4.76 7.76 3.75 9 3.75H15C16.24 3.75 17.25 4.76 17.25 6Z" fill="#C07600"/>
<path id="Vector" d="M11 18H13M6 18V6C6 4.34 7.34 3 9 3H15C16.66 3 18 4.34 18 6V18C18 19.66 16.66 21 15 21H9C7.34 21 6 19.66 6 18Z" stroke="#C07600" stroke-width="1.5" stroke-linecap="round" stroke-linejoin="round"/>
</g>
</svg>
