<svg width="32" height="32" viewBox="0 0 32 32" fill="none" xmlns="http://www.w3.org/2000/svg">
<g id="Clipboard-attachment">
<path id="BG" opacity="0.4" fill-rule="evenodd" clip-rule="evenodd" d="M18.013 7.01318C18.5597 7.01318 19.013 6.55985 19.013 6.01318C19.013 5.45318 18.5597 5.01318 18.013 5.01318H14.013C13.453 5.01318 13.013 5.46652 13.013 6.01318C13.013 6.55985 13.453 7.01318 14.013 7.01318H18.013ZM24.3464 25.3465V8.67985C24.3464 7.75985 23.5997 7.01318 22.6797 7.01318H20.8397C20.4263 8.17318 19.3064 9.01318 18.013 9.01318H14.013C12.7064 9.01318 11.5864 8.17318 11.1864 7.01318H9.34635C8.42635 7.01318 7.67969 7.75985 7.67969 8.67985V25.3465C7.67969 26.2665 8.42635 27.0132 9.34635 27.0132H22.6797C23.5997 27.0132 24.3464 26.2665 24.3464 25.3465Z" fill="#C07600"/>
<path id="Vector" d="M20.0013 6H22.668C24.1346 6 25.3346 7.2 25.3346 8.66667V25.3333C25.3346 26.8 24.1346 28 22.668 28H9.33464C7.86797 28 6.66797 26.8 6.66797 25.3333V8.66667C6.66797 7.2 7.86797 6 9.33464 6H12.0013M20.0013 6C20.0013 7.10667 19.108 8 18.0013 8H14.0013C12.8946 8 12.0013 7.10667 12.0013 6M20.0013 6C20.0013 4.89333 19.108 4 18.0013 4H14.0013C12.8946 4 12.0013 4.89333 12.0013 6M15.1213 13.44L11.9213 16.64C10.748 17.8133 10.748 19.72 11.9213 20.8933C13.0946 22.0667 15.0013 22.0667 16.1746 20.8933L20.508 16.56C21.108 15.96 21.108 14.9867 20.508 14.3867C19.908 13.7867 18.9346 13.7867 18.3346 14.3867L14.388 18.3333" stroke="#C07600" stroke-width="1.5" stroke-linecap="round" stroke-linejoin="round"/>
</g>
</svg>
