<svg width="32" height="32" viewBox="0 0 32 32" fill="none" xmlns="http://www.w3.org/2000/svg">
<g id="Closed">
<path id="Vector" d="M15.4991 1.62333C15.8091 1.44389 16.1913 1.44389 16.5012 1.62333L28.1679 8.37771C28.4767 8.5565 28.6668 8.8863 28.6668 9.24314V22.7567C28.6668 23.1135 28.4767 23.4433 28.1679 23.6221L16.5012 30.3765C16.1913 30.5559 15.8091 30.5559 15.4991 30.3765L3.83246 23.6221C3.52364 23.4433 3.3335 23.1135 3.3335 22.7567V9.24314C3.3335 8.8863 3.52364 8.5565 3.83246 8.37771L15.4991 1.62333ZM16.5012 4.70465C16.1913 4.52522 15.8091 4.52522 15.4991 4.70465L6.49914 9.91505C6.19031 10.0938 6.00016 10.4236 6.00016 10.7805V21.2194C6.00016 21.5762 6.19031 21.906 6.49914 22.0848L15.4991 27.2952C15.8091 27.4746 16.1913 27.4746 16.5012 27.2952L25.5012 22.0848C25.81 21.906 26.0002 21.5762 26.0002 21.2194V10.7805C26.0002 10.4236 25.81 10.0938 25.5012 9.91505L16.5012 4.70465ZM16.0002 21.3333C14.5857 21.3333 13.2291 20.7713 12.2289 19.7712C11.2287 18.771 10.6668 17.4144 10.6668 15.9999C10.6668 14.5854 11.2287 13.2289 12.2289 12.2287C13.2291 11.2285 14.5857 10.6666 16.0002 10.6666C17.4146 10.6666 18.7712 11.2285 19.7714 12.2287C20.7716 13.2289 21.3335 14.5854 21.3335 15.9999C21.3335 17.4144 20.7716 18.771 19.7714 19.7712C18.7712 20.7713 17.4146 21.3333 16.0002 21.3333ZM16.0002 18.6666C16.7074 18.6666 17.3857 18.3856 17.8858 17.8855C18.3859 17.3854 18.6668 16.7072 18.6668 15.9999C18.6668 15.2927 18.3859 14.6144 17.8858 14.1143C17.3857 13.6142 16.7074 13.3333 16.0002 13.3333C15.2929 13.3333 14.6146 13.6142 14.1145 14.1143C13.6144 14.6144 13.3335 15.2927 13.3335 15.9999C13.3335 16.7072 13.6144 17.3854 14.1145 17.8855C14.6146 18.3856 15.2929 18.6666 16.0002 18.6666Z" fill="#D58B0E"/>
</g>
</svg>
