<svg width="24" height="24" viewBox="0 0 24 24" fill="none" xmlns="http://www.w3.org/2000/svg">
<g id="wLPEBYgC_400x400 1">
<rect width="24" height="24" rx="12" fill="#B9B9B9"/>
<g id="Group">
<path id="Vector" d="M8.80331 6.40205C8.77931 6.42005 8.76131 7.15205 8.76131 8.01605V9.59405L7.99931 9.61205L7.23131 9.63005L7.21331 10.2721L7.19531 10.9201H7.98131H8.76131V12.9121C8.76131 14.0221 8.79131 15.0841 8.82731 15.3001C8.92331 15.9001 9.14531 16.3321 9.54731 16.7041C10.0873 17.2081 10.3813 17.2981 11.5693 17.3281L12.5413 17.3521V16.6861V16.0201H11.8213C11.0113 16.0201 10.7413 15.9361 10.5073 15.6121C10.2973 15.3121 10.2613 14.9701 10.2613 12.9121V10.9201H11.4013H12.5413V10.2601V9.60005H11.4013H10.2613V7.98005V6.36005H9.55331C9.16331 6.36005 8.82131 6.37805 8.80331 6.40205Z" fill="#737373"/>
<path id="Vector_2" d="M13.9805 10.44V11.28H14.8205H15.6665L15.6485 10.452L15.6305 9.63003L14.8085 9.61203L13.9805 9.59403V10.44Z" fill="#737373"/>
<path id="Vector_3" d="M13.9805 16.5001V17.3401H14.8205H15.6665L15.6485 16.5121L15.6305 15.6901L14.8085 15.6721L13.9805 15.6541V16.5001Z" fill="#737373"/>
</g>
</g>
</svg>
