<svg width="18" height="18" viewBox="0 0 18 18" fill="none" xmlns="http://www.w3.org/2000/svg">
<path d="M7.99957 12.2501L7.99957 8.57014C7.99957 8.22014 8.18957 7.89014 8.48957 7.71014L11.6096 5.86014C11.9696 5.65014 12.4296 5.77014 12.6396 6.12014C12.8496 6.48014 12.7396 6.94014 12.3796 7.15014L9.50957 8.86014L9.50957 12.2601C9.49957 12.6601 9.15957 13.0001 8.74957 13.0001C8.33957 13.0001 7.99957 12.6601 7.99957 12.2501ZM17.9996 11.5001L17.9996 16.7901C17.9996 17.2401 17.4596 17.4601 17.1496 17.1401L15.3696 15.3601C14.4328 16.2969 13.301 17.0156 12.0548 17.465C10.8086 17.9144 9.47859 18.0835 8.15957 17.9601C3.96957 17.5801 0.519567 14.2101 0.0595675 10.0201C-0.183591 7.67076 0.506551 5.31996 1.98111 3.47487C3.45566 1.62977 5.59644 0.438283 7.94161 0.157441C10.2868 -0.123401 12.6484 0.528913 14.5169 1.97366C16.3854 3.41841 17.6111 5.53978 17.9296 7.88014C17.9996 8.48014 17.5296 9.00014 16.9296 9.00014C16.4296 9.00014 16.0096 8.63014 15.9496 8.14014C15.5196 4.65014 12.5096 1.95014 8.89957 2.00014C5.18957 2.05014 2.05957 5.18014 1.99957 8.90014C1.93957 12.8001 5.10957 16.0001 8.99957 16.0001C10.9296 16.0001 12.6796 15.2101 13.9496 13.9501L11.8596 11.8601C11.5396 11.5401 11.7596 11.0001 12.2096 11.0001L17.4996 11.0001C17.7796 11.0001 17.9996 11.2201 17.9996 11.5001Z" fill="#F3F3F3"/>
</svg>
