<svg width="20" height="20" viewBox="0 0 20 20" fill="none" xmlns="http://www.w3.org/2000/svg">
<g id="Inbox-arrow-up">
<path id="BG" opacity="0.4" fill-rule="evenodd" clip-rule="evenodd" d="M16.875 11.0417V5C16.875 3.96667 16.0333 3.125 15 3.125H5C3.96667 3.125 3.125 3.96667 3.125 5V11.0417H5.65002C6.52502 11.0417 7.30832 11.525 7.69999 12.3083L8.44167 13.7917C8.61667 14.15 8.98333 14.375 9.375 14.375H10.65C11.0417 14.375 11.4 14.15 11.5834 13.7917L12.325 12.3083C12.7084 11.5417 13.5167 11.0417 14.375 11.0417H16.875ZM16.875 15V12.2917H14.375C13.9833 12.2917 13.6167 12.5167 13.4417 12.8667L12.7 14.35C12.3083 15.1333 11.525 15.625 10.65 15.625H9.375C8.51667 15.625 7.70837 15.125 7.32503 14.35L6.58335 12.8667C6.40002 12.5167 6.04169 12.2917 5.65002 12.2917H3.125V15C3.125 16.0333 3.96667 16.875 5 16.875H15C16.0333 16.875 16.875 16.0333 16.875 15Z" fill="#D58B0E"/>
<path id="Vector" d="M11.6667 6.66667L10 5L8.34167 6.66667M10 5.01667V11.6667M17.5 11.6667H14.375C13.75 11.6667 13.1667 12.025 12.8834 12.5917L12.1417 14.075C11.8584 14.6417 11.2834 15 10.65 15H9.375C8.75 15 8.16674 14.6417 7.8834 14.075L7.14172 12.5917C6.85839 12.025 6.28336 11.6667 5.65002 11.6667H2.5M15 17.5H5C3.61667 17.5 2.5 16.3833 2.5 15V5C2.5 3.61667 3.61667 2.5 5 2.5H15C16.3833 2.5 17.5 3.61667 17.5 5V15C17.5 16.3833 16.3833 17.5 15 17.5Z" stroke="#D58B0E" stroke-linecap="round" stroke-linejoin="round"/>
</g>
</svg>
