<svg width="12" height="10" viewBox="0 0 12 10" fill="none" xmlns="http://www.w3.org/2000/svg">
<path d="M4.83464 6.75002L7.86214 5.00002L4.83464 3.25002V6.75002ZM11.578 2.18252C11.6538 2.45669 11.7063 2.82419 11.7413 3.29085C11.7821 3.75752 11.7996 4.16002 11.7996 4.51002L11.8346 5.00002C11.8346 6.27752 11.7413 7.21669 11.578 7.81752C11.4321 8.34252 11.0938 8.68085 10.5688 8.82669C10.2946 8.90252 9.79297 8.95502 9.02297 8.99002C8.26464 9.03085 7.57047 9.04835 6.9288 9.04835L6.0013 9.08335C3.55714 9.08335 2.03464 8.99002 1.4338 8.82669C0.908802 8.68085 0.570469 8.34252 0.424635 7.81752C0.348802 7.54335 0.296302 7.17585 0.261302 6.70919C0.220469 6.24252 0.202969 5.84002 0.202969 5.49002L0.167969 5.00002C0.167969 3.72252 0.261302 2.78335 0.424635 2.18252C0.570469 1.65752 0.908802 1.31919 1.4338 1.17335C1.70797 1.09752 2.20964 1.04502 2.97964 1.01002C3.73797 0.969187 4.43214 0.951687 5.0738 0.951687L6.0013 0.916687C8.44547 0.916687 9.96797 1.01002 10.5688 1.17335C11.0938 1.31919 11.4321 1.65752 11.578 2.18252Z" fill="#D58B0E"/>
</svg>
