<svg width="34" height="34" viewBox="0 0 34 34" fill="none" xmlns="http://www.w3.org/2000/svg">
<path d="M16.9555 0.977666L22.5664 10.749L22.632 10.8633L22.7455 10.9304L32.9792 16.9825L23.2349 23.0761L23.1372 23.1372L23.0761 23.2349L16.9726 32.995L10.925 23.2366L10.8634 23.1372L10.764 23.0754L0.950064 16.9725L10.7623 10.9257L10.8634 10.8634L10.9257 10.7623L16.9555 0.977666Z" stroke="#A86100"/>
<path d="M5.64514 5.64514L16.898 7.98949L17 8.01074L17.102 7.98949L28.3549 5.64514L26.0105 16.898L25.9893 17L26.0105 17.102L28.3549 28.3549L17.102 26.0105L17 25.9893L16.898 26.0105L5.64514 28.3549L7.98949 17.102L8.01074 17L7.98949 16.898L5.64514 5.64514Z" stroke="#A86100"/>
<rect x="10.5" y="10.5" width="13" height="13" stroke="#A86100"/>
<rect x="13.5" y="13.5" width="7" height="7" stroke="#A86100"/>
<rect x="16.9492" y="12.7071" width="6" height="6" transform="rotate(45 16.9492 12.7071)" stroke="#A86100"/>
<rect x="16.9004" y="7.70711" width="13" height="13" transform="rotate(45 16.9004 7.70711)" stroke="#A86100"/>
</svg>
