<svg width="267" height="46" viewBox="0 0 267 46" fill="none" xmlns="http://www.w3.org/2000/svg">
<path d="M17.6675 0.0656966L23.4653 13.9936C23.9012 14.9744 24.7077 15.3667 25.3834 15.3667H25.5577V15.5847H20.6536V15.3667H20.8497C21.4382 15.3667 22.0049 14.8654 21.678 13.9936L20.283 10.2882H14.4198L12.9594 14.0154C12.6761 14.8872 13.221 15.3885 13.8095 15.3885H14.0057V15.6065H9.6246V15.3885H9.82076C10.4965 15.3885 11.2811 14.9962 11.717 14.0372L16.6648 2.31072C16.8174 1.98378 16.9482 1.65683 17.0572 1.37348C17.2533 0.872162 17.4713 0.305457 17.4713 0.0656966H17.6675ZM14.6596 9.6343H20.0433L17.4059 2.63767L14.6596 9.6343ZM28.8471 6.69179L33.2064 10.092C33.8821 10.6805 34.1872 11.596 34.1872 12.446C34.1872 14.3859 32.5089 15.9552 30.3293 15.9552C29.0651 15.9552 27.3432 15.6501 26.5803 14.9308C26.4495 14.3205 26.5149 13.0999 26.82 12.2063H27.0816C26.9072 14.1897 28.1932 15.3449 30.1331 15.2796C31.964 15.2142 33.0538 14.2987 33.0538 12.882C33.0538 12.2063 32.7922 11.6396 32.2473 11.16L27.8881 7.8034C27.0816 7.10592 26.8636 6.19047 26.8418 5.4276C26.8418 3.6621 28.4112 2.24533 30.46 2.24533C31.4845 2.24533 32.1166 2.33252 32.6179 2.4415H33.3372L33.3808 4.8173H33.141C33.141 3.59671 32.3563 2.89922 30.6344 2.89922C29.1741 2.89922 27.9971 3.81467 27.9971 4.96988C27.9971 5.55838 28.1714 6.14688 28.8471 6.69179ZM49.8787 10.5062L49.9223 13.1435C48.8761 14.4077 46.8054 15.9552 43.7104 15.9552C39.4165 15.9552 36.5611 13.3397 36.5611 9.11118C36.5611 4.8391 39.4165 2.26713 43.7104 2.26713C45.7156 2.26713 47.3067 2.68126 48.7889 3.57491L49.2684 6.6482H49.0723C48.4402 4.09802 46.74 2.89922 43.6668 2.89922C40.3537 2.89922 38.1087 5.25323 38.1087 9.08939C38.1087 12.9038 40.3537 15.2796 43.6668 15.2796C45.4977 15.2796 47.067 14.7128 48.462 13.3833L48.5055 10.4844C48.5055 9.93945 48.1132 9.6343 47.4811 9.6343H47.176V9.41633H51.1647V9.6343H50.8596C50.2057 9.6343 49.8787 9.91765 49.8787 10.5062ZM58.9283 2.24533L64.2902 14.1461C64.7261 15.0398 65.38 15.4103 65.9685 15.4103H66.1429V15.6283H61.6746V15.4103H61.849C62.3503 15.4103 62.9388 14.9308 62.6337 14.1026L61.4349 11.2036H55.9204L54.7216 14.0372C54.3729 14.909 54.9614 15.4103 55.4627 15.4103H55.637V15.6283H51.4739V15.4103H51.6483C52.2368 15.4103 52.9125 15.0398 53.3702 14.1461L57.8821 4.49036L58.2962 3.57491C58.4924 3.07359 58.7103 2.52869 58.7321 2.24533H58.9283ZM56.182 10.5497H61.1515L58.7103 4.57754L56.182 10.5497ZM67.2564 2.55048L72.7055 2.57228C75.4736 2.57228 77.1301 3.90186 77.1301 6.10329C77.1301 7.93418 75.7134 9.52532 73.7299 9.69969C74.2312 9.93945 74.9505 10.7241 75.4082 11.3998C75.6044 11.6832 75.8005 11.9447 76.0185 12.2063C76.389 12.7076 76.8468 13.2743 77.3045 13.7756C78.1763 14.7564 78.8084 15.4321 80.0072 15.4321V15.6501H79.3316C76.8904 15.6501 75.9749 14.5385 75.2774 13.732C75.0377 13.4269 73.3158 10.9421 73.1414 10.7241C72.5529 9.96124 71.79 9.26376 70.9182 9.26376V9.06759H71.2887C71.5285 9.06759 71.8118 9.06759 72.1823 9.0458C73.4029 9.0458 74.7543 9.0022 75.3864 7.17131C75.4954 6.84436 75.5608 6.43023 75.539 5.92892C75.4736 4.27239 74.4056 3.33515 72.6619 3.24797C71.4413 3.18258 70.395 3.22617 70.1553 3.20437V14.2115C70.1771 14.8872 70.7002 15.3885 71.3977 15.3885H71.7028V15.6065H67.2346V15.3885H67.5397C68.2372 15.3885 68.7603 14.8872 68.7821 14.2551V3.90186C68.7603 3.22617 68.2372 2.76845 67.5397 2.76845H67.2564V2.55048ZM92.2122 12.5114L92.4301 12.4896L91.2531 15.6065H80.8127V15.4103L88.9427 3.16078H82.4474C81.7717 3.18258 81.3794 3.68389 81.3794 4.29419V4.62114H81.1396V3.11719V2.72485V2.17994C81.4666 2.35431 82.709 2.52869 83.559 2.52869H88.5722C89.5094 2.52869 90.7518 2.37611 91.057 2.24533V2.4415L82.7744 14.9744H88.7684C90.8608 14.909 91.5583 13.9282 92.2122 12.5114ZM100.307 2.24533L105.669 14.1461C106.105 15.0398 106.759 15.4103 107.348 15.4103H107.522V15.6283H103.054V15.4103H103.228C103.729 15.4103 104.318 14.9308 104.013 14.1026L102.814 11.2036H97.2994L96.1006 14.0372C95.7519 14.909 96.3404 15.4103 96.8417 15.4103H97.0161V15.6283H92.853V15.4103H93.0273C93.6158 15.4103 94.2915 15.0398 94.7492 14.1461L99.2611 4.49036L99.6752 3.57491C99.8714 3.07359 100.089 2.52869 100.111 2.24533H100.307ZM97.561 10.5497H102.531L100.089 4.57754L97.561 10.5497ZM108.635 2.55048L115.894 2.57228C120.187 2.57228 122.89 5.03527 122.89 9.11118C122.89 13.1871 120.187 15.6501 115.894 15.6501H108.614V15.4321H108.897C109.594 15.4321 110.118 14.909 110.139 14.2333V3.94545C110.118 3.24797 109.573 2.76845 108.897 2.76845H108.635V2.55048ZM111.556 3.22617V14.9962H115.894C119.25 14.9962 121.321 12.773 121.321 9.13298C121.321 5.47119 119.25 3.22617 115.894 3.22617H111.556ZM135.244 12.5114L134.045 15.7373H125.196V15.5193H125.501C126.198 15.5193 126.721 15.018 126.743 14.3423V3.98904C126.743 3.31335 126.198 2.83383 125.501 2.83383H125.196V2.61587H131.56C132.41 2.61587 133.653 2.4415 133.979 2.26713V4.73012H133.74V4.40317C133.74 3.79287 133.326 3.29156 132.65 3.26976H128.138V8.80604H131.865C132.476 8.78424 132.759 8.37011 132.759 7.86879V7.58544H132.999V10.6369H132.759V10.3536C132.759 9.85226 132.519 9.50352 131.931 9.43813H128.16V14.9744H131.56C133.653 14.9744 134.35 13.9282 135.004 12.5114H135.244ZM150.978 15.6283L146.488 15.6501V15.4321H146.728C147.426 15.4321 147.992 14.9308 148.014 14.2551V9.50352H139.971V14.2551C139.993 14.9308 140.56 15.4321 141.257 15.4321H141.497V15.6501H137.051V15.4321H137.29C137.988 15.4321 138.554 14.9308 138.576 14.2551V3.96724C138.554 3.29156 137.988 2.79024 137.29 2.79024H137.051V2.57228H141.497V2.79024H141.235C140.56 2.79024 140.015 3.29156 139.993 3.92365V8.84963H148.036V3.94545C148.014 3.26976 147.447 2.76845 146.75 2.76845H146.51V2.55048H150.957V2.76845H150.717C150.041 2.76845 149.518 3.26976 149.453 3.90186V14.2333C149.474 14.909 150.041 15.4103 150.739 15.4103H150.978V15.6283ZM16.7604 17.0657L18.4169 31.0372C18.5259 31.909 19.2233 32.4103 20.008 32.4103H20.3568V32.6283H15.6269V32.4321H15.9757C16.477 32.4321 16.8911 31.9962 16.8257 31.4949L15.8449 20.5313L11.2677 30.7102L10.9407 31.4949C10.7664 31.9308 10.592 32.4975 10.5266 32.9334H10.3304L4.75056 20.8365L3.79152 31.4949C3.72613 31.9962 4.14026 32.4321 4.64158 32.4321H4.99032V32.6283H0.761828V32.4103H1.11057C1.89524 32.4103 2.59272 31.909 2.7017 31.0372L4.33643 17.0657H4.5326L10.6138 30.2089L16.5642 17.0657H16.7604ZM31.4438 19.5505L35.2145 19.5069V19.7249H34.8876C34.2991 19.7249 33.8632 20.1172 33.8414 20.6403V27.9857C33.8414 31.0372 31.7707 32.9116 28.4141 32.9116C25.0356 32.9116 22.965 31.0808 22.965 28.0293V20.6839C22.9432 20.139 22.5073 19.7249 21.9188 19.7249H21.5918V19.5069H25.7331V19.7249H25.4062C24.8177 19.7249 24.3818 20.139 24.36 20.6839V27.7459C24.36 30.6012 25.8639 32.3231 28.3923 32.3231C31.1604 32.3231 32.8169 30.7102 32.8169 28.0075V20.6839C32.7951 20.1608 32.3592 19.7684 31.7707 19.7684H31.4438V19.5505ZM39.4473 23.6918L43.8066 27.092C44.4823 27.6805 44.7874 28.596 44.7874 29.446C44.7874 31.3859 43.1091 32.9552 40.9294 32.9552C39.6653 32.9552 37.9433 32.6501 37.1805 31.9308C37.0497 31.3205 37.1151 30.0999 37.4202 29.2063H37.6818C37.5074 31.1897 38.7934 32.3449 40.7333 32.2796C42.5642 32.2142 43.654 31.2987 43.654 29.882C43.654 29.2063 43.3924 28.6396 42.8475 28.16L38.4883 24.8034C37.6818 24.1059 37.4638 23.1905 37.442 22.4276C37.442 20.6621 39.0114 19.2453 41.0602 19.2453C42.0847 19.2453 42.7167 19.3325 43.2181 19.4415H43.9373L43.9809 21.8173H43.7412C43.7412 20.5967 42.9565 19.8992 41.2346 19.8992C39.7742 19.8992 38.5972 20.8147 38.5972 21.9699C38.5972 22.5584 38.7716 23.1469 39.4473 23.6918ZM52.1745 32.6283H47.2267V32.4103H47.5101C48.3165 32.4103 48.9704 31.909 48.9922 31.2333V20.9454C48.9704 20.2698 48.3165 19.7684 47.5101 19.7684H47.2267V19.5505H52.1745V19.7684H51.8911C51.1065 19.7684 50.4744 20.2698 50.409 20.9019V31.2333C50.4308 31.909 51.0847 32.4103 51.8911 32.4103H52.1745V32.6283ZM67.6703 27.1356H67.8665L67.6267 30.1217C66.4715 31.8654 64.2265 32.9334 61.6328 32.9334C57.2081 32.9334 54.44 30.3179 54.44 26.0894C54.44 21.8173 57.2081 19.2453 61.6328 19.2453C63.4636 19.2453 65.3599 19.7249 66.7331 20.5749L67.2126 23.6482H67.0165C66.3408 20.9672 64.3137 19.8992 61.611 19.8992C58.1889 19.8992 56.0093 22.2532 56.0093 26.0894C56.0093 29.8384 58.1671 32.2578 61.6328 32.2578C64.8586 32.2578 67.4306 30.732 67.6703 27.1356ZM77.8945 22.2314L82.123 26.2202C82.9949 27.0266 83.2128 28.0075 83.2128 28.8793C83.2128 31.2987 81.6435 32.9552 79.1369 32.9552C78.0471 32.9552 76.3252 32.6283 75.4533 31.7564C75.279 31.0808 75.3662 29.6858 75.7149 28.705H75.9111C75.6713 30.95 77.1099 32.3885 79.0497 32.2796C80.6409 32.2142 81.9705 31.0808 81.9705 29.3588C81.9705 28.5306 81.6871 27.8549 81.1204 27.3318L76.9355 23.452C76.0636 22.6456 75.7585 21.5993 75.7585 20.7493C75.7585 18.9184 77.1099 17.0657 79.5947 17.0657C80.1832 17.0657 80.8806 17.1311 81.4691 17.2837H82.341V17.5452V19.9646H82.123C82.123 18.5696 81.055 17.7196 79.6818 17.7196C78.0689 17.7196 77.0009 18.8966 77.0009 20.2262C77.0009 20.8147 77.1971 21.5993 77.8945 22.2314ZM98.8323 27.1356H99.0285L98.7887 30.1217C97.6335 31.8654 95.3885 32.9334 92.7947 32.9334C88.3701 32.9334 85.6019 30.3179 85.6019 26.0894C85.6019 21.8173 88.3701 19.2453 92.7947 19.2453C94.6256 19.2453 96.5219 19.7249 97.8951 20.5749L98.3746 23.6482H98.1784C97.5027 20.9672 95.4757 19.8992 92.7729 19.8992C89.3509 19.8992 87.1713 22.2532 87.1713 26.0894C87.1713 29.8384 89.3291 32.2578 92.7947 32.2578C96.0206 32.2578 98.5926 30.732 98.8323 27.1356ZM114.963 32.6283L110.473 32.6501V32.4321H110.713C111.411 32.4321 111.977 31.9308 111.999 31.2551V26.5035H103.956V31.2551C103.978 31.9308 104.545 32.4321 105.242 32.4321H105.482V32.6501H101.035V32.4321H101.275C101.973 32.4321 102.539 31.9308 102.561 31.2551V20.9672C102.539 20.2916 101.973 19.7902 101.275 19.7902H101.035V19.5723H105.482V19.7902H105.22C104.545 19.7902 104 20.2916 103.978 20.9237V25.8496H112.021V20.9454C111.999 20.2698 111.432 19.7684 110.735 19.7684H110.495V19.5505H114.942V19.7684H114.702C114.026 19.7684 113.503 20.2698 113.438 20.9019V31.2333C113.459 31.909 114.026 32.4103 114.724 32.4103H114.963V32.6283ZM124.578 19.2453C128.653 19.2453 131.945 22.0353 131.945 26.0894C131.945 30.1435 128.653 32.9334 124.578 32.9334C120.502 32.9334 117.21 30.1435 117.21 26.0894C117.21 22.0353 120.502 19.2453 124.578 19.2453ZM124.578 32.2796C127.782 32.2796 130.31 29.773 130.31 26.0894C130.31 22.4058 127.782 19.8992 124.578 19.8992C121.373 19.8992 118.845 22.4058 118.845 26.0894C118.845 29.773 121.373 32.2796 124.578 32.2796ZM141.457 19.2453C145.533 19.2453 148.824 22.0353 148.824 26.0894C148.824 30.1435 145.533 32.9334 141.457 32.9334C137.381 32.9334 134.09 30.1435 134.09 26.0894C134.09 22.0353 137.381 19.2453 141.457 19.2453ZM141.457 32.2796C144.661 32.2796 147.189 29.773 147.189 26.0894C147.189 22.4058 144.661 19.8992 141.457 19.8992C138.253 19.8992 135.725 22.4058 135.725 26.0894C135.725 29.773 138.253 32.2796 141.457 32.2796ZM160.93 29.5114L161.213 29.555L160.015 32.6719H151.165V32.4539H151.471C152.168 32.4539 152.691 31.9526 152.713 31.2769V20.9672C152.691 20.2916 152.124 19.7902 151.405 19.7902H151.144V19.5723H155.655V19.7902H155.394C154.675 19.7902 154.108 20.2916 154.086 20.9672V31.9744H157.486C159.579 31.9744 160.276 30.9282 160.93 29.5114Z" fill="white"/>
<path d="M34.9631 43.9584C34.9631 44.0992 34.8957 44.2888 34.7611 44.5274C34.6388 44.7355 34.5195 44.8976 34.4032 45.0138L34.2931 45.0322L34.238 45.1423L34.1096 45.1332C33.9872 45.1699 33.8159 45.2463 33.5956 45.3626L32.7513 45.3993C32.7513 45.3993 32.4026 45.3993 31.7051 45.3993C31.4603 45.3993 31.2798 45.3871 31.1636 45.3626L31.2278 45.3075C31.338 45.2892 31.4848 45.228 31.6684 45.124L31.6592 45.0597C31.6837 45.0353 31.6959 44.9312 31.6959 44.7477C31.6959 44.6131 31.7051 44.3745 31.7234 44.0319C31.7418 43.7259 31.7479 43.4935 31.7418 43.3344C31.7357 43.2181 31.7295 42.7287 31.7234 41.866C31.7357 41.6824 31.7234 41.4071 31.6867 41.04L31.7418 40.9391L31.6684 40.728L31.6867 40.6362C31.6561 40.5016 31.6133 40.4221 31.5582 40.3976C31.5032 40.3731 31.4175 40.3334 31.3013 40.2783L31.237 40.3058L31.2095 40.2416L31.2921 40.2049H31.5858C31.7815 40.2049 32.0538 40.2202 32.4026 40.2508L32.5035 40.1957C32.5525 40.2263 32.6748 40.2416 32.8706 40.2416C33.0603 40.2477 33.1826 40.2355 33.2377 40.2049L33.3203 40.2599C33.4427 40.2294 33.5528 40.2477 33.6507 40.315L33.7425 40.2967L33.8067 40.3609L33.8985 40.3701C34.3512 40.7127 34.5776 41.0584 34.5776 41.4071C34.5776 41.4071 34.5562 41.4683 34.5134 41.5907L34.5409 41.7008C34.5042 41.7436 34.4614 41.8415 34.4124 41.9945C34.3818 42.1046 34.2962 42.1903 34.1554 42.2514L34.1096 42.3524C34.0055 42.4013 33.8434 42.4656 33.6231 42.5451L33.5681 42.6002L33.4855 42.6185L33.5773 42.5818L33.6507 42.6277L33.7333 42.6185L33.8159 42.6644L33.8985 42.6461C34.0881 42.6461 34.2747 42.7256 34.4583 42.8847C34.5256 42.9459 34.6633 43.1019 34.8713 43.3527L34.8437 43.4904L34.9447 43.6005C34.9386 43.6434 34.9386 43.7045 34.9447 43.7841C34.9569 43.8758 34.9631 43.934 34.9631 43.9584ZM33.9535 41.6366L33.926 41.5631C33.9321 41.5081 33.9413 41.4285 33.9535 41.3245L33.9076 41.2511C33.9138 41.0553 33.8342 40.9024 33.669 40.7922L33.6231 40.6821L33.513 40.6638C33.4518 40.572 33.3692 40.5292 33.2652 40.5353L33.1918 40.471L33.1 40.4986L33.0266 40.4527H32.9991C33.0052 40.4527 32.9532 40.4404 32.8431 40.416C32.8369 40.416 32.8217 40.4221 32.7972 40.4343C32.7727 40.4404 32.7574 40.4435 32.7513 40.4435C32.6779 40.4435 32.6198 40.4251 32.5769 40.3884L32.4943 40.4343L32.3842 40.3793L32.2832 40.4068L32.2465 40.4986L32.2924 40.5903C32.2618 40.676 32.2465 40.7708 32.2465 40.8748C32.2465 40.936 32.2557 41.0308 32.2741 41.1593C32.2924 41.2817 32.3016 41.3735 32.3016 41.4347C32.3016 41.4469 32.2955 41.4622 32.2832 41.4805C32.271 41.4989 32.2649 41.5142 32.2649 41.5264C32.2649 41.557 32.271 41.6029 32.2832 41.6641C32.2955 41.7253 32.3016 41.7712 32.3016 41.8018C32.3016 41.8323 32.2924 41.8782 32.2741 41.9394C32.2618 41.9945 32.2557 42.0373 32.2557 42.0679C32.2863 42.1474 32.3016 42.1841 32.3016 42.178C32.3016 42.1964 32.2924 42.2239 32.2741 42.2606C32.2618 42.2973 32.2557 42.3249 32.2557 42.3432C32.2557 42.3432 32.271 42.383 32.3016 42.4625L32.2557 42.5543L32.2832 42.6553L32.3658 42.6277L32.4576 42.6644C32.6473 42.5971 32.7911 42.5849 32.889 42.6277L32.9624 42.5818C33.0236 42.5941 33.0541 42.6002 33.0541 42.6002C33.0847 42.6002 33.1245 42.5879 33.1735 42.5635C33.2224 42.5329 33.2561 42.5145 33.2744 42.5084C33.666 42.4044 33.8495 42.2331 33.8251 41.9945L33.926 41.9119C33.926 41.8507 33.9352 41.7589 33.9535 41.6366ZM34.3023 44.1695C34.3023 43.8758 34.2594 43.6128 34.1738 43.3803C34.0514 43.0744 33.8679 42.9122 33.6231 42.8939L33.5589 42.848H33.4947C33.4335 42.8541 33.3448 42.8419 33.2285 42.8113C33.1184 42.7746 33.0358 42.7562 32.9807 42.7562C32.9624 42.7562 32.9348 42.7623 32.8981 42.7746C32.8675 42.7868 32.8461 42.7929 32.8339 42.7929C32.7849 42.7929 32.7146 42.7868 32.6228 42.7746C32.531 42.7562 32.4607 42.747 32.4117 42.747C32.32 42.747 32.2741 42.7837 32.2741 42.8572C32.2741 42.8877 32.2802 42.9275 32.2924 42.9765C32.3047 43.0254 32.3108 43.0652 32.3108 43.0958C32.3108 43.1325 32.2985 43.1845 32.2741 43.2518C32.2557 43.3191 32.2465 43.3711 32.2465 43.4078C32.2465 43.4139 32.2527 43.4292 32.2649 43.4537C32.2771 43.4782 32.2832 43.4935 32.2832 43.4996C32.2832 43.5179 32.2771 43.5424 32.2649 43.573C32.2527 43.6036 32.2465 43.6281 32.2465 43.6464C32.2465 43.6709 32.2527 43.7076 32.2649 43.7565C32.2771 43.8055 32.2832 43.8422 32.2832 43.8667C32.2832 43.8789 32.2771 43.8973 32.2649 43.9217C32.2527 43.9462 32.2465 43.9646 32.2465 43.9768C32.2465 44.0135 32.2496 44.0747 32.2557 44.1603C32.268 44.2399 32.2741 44.3041 32.2741 44.3531V44.6467L32.3291 44.7385C32.3108 44.7875 32.3016 44.8303 32.3016 44.867C32.3016 44.9771 32.3689 45.0659 32.5035 45.1332C32.6136 45.1882 32.7329 45.2157 32.8614 45.2157C32.9777 45.2157 33.0633 45.1974 33.1184 45.1607L33.2285 45.1882C33.3325 45.176 33.4794 45.1454 33.669 45.0964C33.6996 45.0781 33.7486 45.0567 33.8159 45.0322L33.8618 44.9588C33.9168 44.9404 33.9688 44.9068 34.0178 44.8578L34.0453 44.7477L34.1463 44.6926C34.1463 44.6315 34.1707 44.555 34.2197 44.4632C34.2747 44.3714 34.3023 44.2735 34.3023 44.1695ZM40.6281 40.2324L40.573 40.2875L40.3987 40.2783C40.3191 40.2722 40.2243 40.3089 40.1142 40.3884C40.004 40.4618 39.9367 40.5353 39.9123 40.6087L39.8297 40.6546L39.8021 40.7463L39.7287 40.8014L39.7012 40.8932L39.6094 40.9391L39.591 41.04L39.4626 41.1685L39.4442 41.2603C39.3524 41.3337 39.2331 41.4775 39.0863 41.6916C38.9395 41.9058 38.8324 42.0434 38.7651 42.1046C38.6794 42.1841 38.5877 42.3065 38.4898 42.4717C38.3674 42.6797 38.2879 42.8082 38.2511 42.8572L38.2053 43.3252L38.2603 43.4262C38.2603 43.5118 38.245 43.6372 38.2144 43.8024L38.2328 43.8942L38.1961 43.9952L38.2328 44.0869C38.2022 44.142 38.1869 44.2062 38.1869 44.2797C38.1869 44.3286 38.1991 44.4143 38.2236 44.5366C38.2481 44.6529 38.2573 44.7416 38.2511 44.8028L38.297 44.8762L38.2879 44.968L38.4072 45.179L38.4806 45.1974L38.5265 45.2708L38.7926 45.28L38.6641 45.3993C38.5785 45.3993 38.4561 45.3809 38.297 45.3442L38.2144 45.3993H38.1227C38.0309 45.3993 37.9697 45.3962 37.9391 45.3901C37.8963 45.384 37.777 45.384 37.5812 45.3901C37.4833 45.384 37.3395 45.384 37.1499 45.3901L37.1774 45.2708L37.3885 45.2983C37.4007 45.2678 37.4435 45.2372 37.517 45.2066C37.5965 45.1699 37.6454 45.1026 37.6638 45.0047C37.6883 44.8884 37.6883 44.61 37.6638 44.1695C37.6454 43.778 37.6607 43.5363 37.7097 43.4445L37.6638 43.3527C37.6699 43.3283 37.673 43.3038 37.673 43.2793C37.673 43.1692 37.5995 42.9948 37.4527 42.7562C37.2753 42.4748 37.1774 42.3126 37.159 42.2698L37.0673 42.2147C37.0305 41.9822 36.8011 41.5937 36.379 41.0492C36.3728 41.0431 36.3147 40.936 36.2046 40.728C36.1312 40.5995 36.0486 40.52 35.9568 40.4894L35.9201 40.4068C35.7549 40.3028 35.6019 40.263 35.4612 40.2875L35.5163 40.2141C35.5652 40.2385 35.6845 40.2508 35.8742 40.2508C36.07 40.2447 36.1985 40.2294 36.2596 40.2049L36.3514 40.2508C36.5839 40.2141 36.6787 40.1957 36.6359 40.1957C36.6543 40.1957 36.746 40.2079 36.9112 40.2324C37.0336 40.2447 37.1254 40.2385 37.1866 40.2141L37.1407 40.2875L37.0397 40.2783C36.9724 40.2783 36.8929 40.3089 36.8011 40.3701C36.7155 40.4251 36.6726 40.4833 36.6726 40.5444C36.6726 40.6423 36.795 40.8595 37.0397 41.196C37.2967 41.5509 37.4313 41.7681 37.4435 41.8476L37.5812 41.9761V42.0863L37.6638 42.1413C37.676 42.1964 37.7311 42.3034 37.829 42.4625C37.8351 42.4686 37.8596 42.5482 37.9024 42.7011C37.9452 42.8296 37.9819 42.8939 38.0125 42.8939C38.1165 42.8939 38.2879 42.6614 38.5265 42.1964C38.7651 41.7253 38.9456 41.4897 39.0679 41.4897L39.0863 41.3979L39.1597 41.3337C39.1597 41.297 39.1781 41.2542 39.2148 41.2052C39.2576 41.1563 39.2821 41.1165 39.2882 41.0859L39.38 41.0492C39.5085 40.9085 39.5727 40.8045 39.5727 40.7372L39.6461 40.6729C39.6645 40.624 39.6798 40.5475 39.692 40.4435C39.6859 40.4068 39.6155 40.3548 39.4809 40.2875L39.123 40.2967L39.1689 40.2508C39.2851 40.1835 39.4044 40.1835 39.5268 40.2508L39.6186 40.1957L39.7104 40.2416L39.8939 40.2049L39.9857 40.2416L40.0775 40.2141C40.1325 40.2508 40.2212 40.263 40.3436 40.2508C40.5027 40.2324 40.5975 40.2263 40.6281 40.2324ZM49.5789 45.5186C49.5361 45.5431 49.4658 45.5553 49.3679 45.5553C49.27 45.5553 49.2027 45.5645 49.166 45.5828L49.065 45.537L48.9641 45.5553C48.8539 45.5308 48.704 45.4697 48.5144 45.3718L48.4226 45.3626L48.3675 45.2892L48.2666 45.2983L48.2115 45.2157L48.1197 45.1974L48.0647 45.124C48.0341 45.124 47.9392 45.0506 47.7802 44.9037C47.6211 44.7508 47.5324 44.6682 47.514 44.6559C47.4528 44.6192 47.3702 44.5366 47.2662 44.4081C47.1806 44.3225 47.0919 44.2062 47.0001 44.0594L46.9267 44.0043C46.9328 43.9187 46.8502 43.7504 46.6789 43.4996C46.477 43.1937 46.272 43.0407 46.064 43.0407C46.0089 43.0407 45.9539 43.0529 45.8988 43.0774L45.7978 43.0407L45.9814 42.9581L46.0915 42.9765L46.1649 42.9398C46.5382 42.9703 46.8257 42.8266 47.0276 42.5084C47.1194 42.3555 47.2356 42.0373 47.3764 41.554L47.3305 41.4714L47.358 41.3888C47.3274 41.3826 47.2815 41.2786 47.2203 41.0767C47.1653 40.8687 47.1255 40.7494 47.101 40.7188C46.9236 40.5169 46.4739 40.416 45.752 40.416C45.6418 40.416 45.5868 40.4894 45.5868 40.6362C45.5868 40.6607 45.5929 40.7311 45.6051 40.8473C45.6174 40.933 45.6174 41.0033 45.6051 41.0584L45.651 41.1502L45.5959 41.3429L45.651 41.4347C45.5898 42.5482 45.5806 43.1264 45.6235 43.1692L45.5868 43.2518C45.6296 43.3007 45.6449 43.3741 45.6327 43.472C45.6143 43.5883 45.6143 43.6678 45.6327 43.7107L45.5959 43.8024C45.6265 43.8575 45.6265 43.9829 45.5959 44.1787L45.6327 44.2705L45.5959 44.4632L45.6418 44.555L45.5959 44.6467C45.6388 44.7875 45.6816 44.9282 45.7244 45.0689C45.7856 45.228 45.8804 45.3075 46.0089 45.3075C46.0518 45.3075 46.1007 45.2983 46.1558 45.28L46.1282 45.3534L45.8621 45.3901L45.7703 45.3442C45.599 45.3809 45.4766 45.3871 45.4032 45.3626L45.3114 45.3901C45.2564 45.3289 45.1493 45.2983 44.9902 45.2983C44.8862 45.2983 44.7577 45.3106 44.6048 45.3351C44.562 45.3412 44.5191 45.3473 44.4763 45.3534C44.5925 45.3167 44.7119 45.28 44.8342 45.2433C44.9566 45.2066 45.03 45.127 45.0545 45.0047L44.9994 44.9221L45.0728 44.8028L45.0178 44.6009L45.0637 44.4357L45.0178 44.3439C45.0545 44.2582 45.0728 44.1328 45.0728 43.9676C45.0728 43.9126 45.0698 43.8269 45.0637 43.7107C45.0575 43.5944 45.0545 43.5088 45.0545 43.4537C45.0545 43.313 45.0667 43.1998 45.0912 43.1141L45.0361 43.0223C45.0851 42.9734 45.1095 42.8908 45.1095 42.7746C45.1095 41.8385 45.1126 41.4255 45.1187 41.5356C45.1004 40.936 45.03 40.5597 44.9076 40.4068L44.8342 40.3884L44.7792 40.3242L44.513 40.2967L44.5405 40.2324C44.7853 40.2079 44.9076 40.1957 44.9076 40.1957C44.9076 40.1957 45.2074 40.1957 45.807 40.1957C45.8866 40.1957 46.0059 40.211 46.1649 40.2416C46.3301 40.2661 46.4525 40.2783 46.532 40.2783C46.6055 40.2783 46.6758 40.2691 46.7431 40.2508L46.8165 40.315L47.0643 40.3517L47.1286 40.4435L47.3947 40.5536L47.4406 40.6546L47.5507 40.6821L47.5783 40.7739C47.6211 40.7861 47.6639 40.8228 47.7067 40.884C47.7557 40.9391 47.7771 40.988 47.771 41.0308L47.8352 41.0951C47.8475 41.2419 47.8719 41.4652 47.9087 41.765L47.8628 41.8476C47.8689 41.8721 47.8719 41.8996 47.8719 41.9302C47.8719 42.1138 47.7526 42.334 47.514 42.591C47.2815 42.848 47.0796 42.9765 46.9083 42.9765C47.0857 43.2701 47.2662 43.5608 47.4498 43.8483C47.6884 44.2154 47.9148 44.4601 48.1289 44.5825L48.1656 44.6835C48.2146 44.6896 48.2696 44.7293 48.3308 44.8028C48.392 44.8701 48.4471 44.9068 48.496 44.9129L48.5419 45.0138C48.652 45.1179 48.8325 45.2372 49.0834 45.3718C49.1935 45.3962 49.3526 45.4482 49.5606 45.5278L49.5789 45.5186ZM55.2366 42.7378L55.1815 42.8296L55.1999 42.9214C55.1999 43.1478 55.0959 43.5088 54.8879 44.0043C54.6492 44.555 54.432 44.8395 54.2363 44.8578C54.1873 44.8639 54.1261 44.9068 54.0527 44.9863C53.9793 45.0659 53.9273 45.1148 53.8967 45.1332L53.7957 45.124L53.6489 45.2249L53.548 45.2157L53.4837 45.2983L53.3828 45.28C53.3522 45.3045 53.2084 45.3412 52.9514 45.3901C52.7373 45.4329 52.5231 45.4544 52.309 45.4544C52.0643 45.4544 51.7675 45.4024 51.4188 45.2983C51.0272 45.1882 50.7458 45.0536 50.5745 44.8945C50.5255 44.8395 50.4429 44.7844 50.3267 44.7293L50.2808 44.6284L50.1248 44.5366L50.0881 44.4448C49.9718 44.3959 49.9137 44.3255 49.9137 44.2338C49.9137 44.0992 49.8464 43.9676 49.7118 43.8391C49.6812 43.8085 49.6629 43.778 49.6567 43.7474C49.6506 43.7107 49.6476 43.6678 49.6476 43.6189C49.6537 43.5516 49.6567 43.5118 49.6567 43.4996C49.6567 43.3833 49.6231 43.2365 49.5558 43.0591L49.6017 42.9673L49.5466 42.8755C49.565 42.7103 49.6139 42.4809 49.6934 42.1872L49.6659 42.0863L49.721 41.9302L49.8036 41.866C49.7913 41.8232 49.8005 41.765 49.8311 41.6916C49.8678 41.6182 49.9045 41.5693 49.9412 41.5448L49.9596 41.453C50.1431 41.2939 50.2533 41.1532 50.29 41.0308L50.3817 40.9941L50.4276 40.9024L50.5102 40.8748L50.6204 40.728L50.7305 40.7188L50.7764 40.6362L51.171 40.4068L51.272 40.416C51.376 40.312 51.5442 40.2569 51.7767 40.2508C52.0459 40.2385 52.2264 40.2079 52.3182 40.159L52.4008 40.1865L52.5752 40.1498L52.6577 40.2049L52.7587 40.159C52.7771 40.1773 52.8015 40.1957 52.8321 40.2141C53.0401 40.2508 53.3705 40.3425 53.8233 40.4894L53.8783 40.572L53.9793 40.5812C54.016 40.6423 54.1078 40.728 54.2546 40.8381C54.432 40.9666 54.5391 41.0492 54.5758 41.0859L54.5942 41.1869C54.7104 41.2603 54.8144 41.3949 54.9062 41.5907C55.0347 41.866 55.1081 42.019 55.1265 42.0495L55.0989 42.1505L55.1632 42.2147V42.4809L55.2274 42.5635L55.2366 42.7378ZM54.5758 42.5451L54.5208 42.4533L54.5299 42.3616L54.4841 42.2698C54.5024 42.2331 54.4718 42.1138 54.3923 41.9119C54.3127 41.7039 54.2485 41.5693 54.1996 41.5081V41.3979L54.117 41.3429L54.0986 41.2419C54.0925 41.2297 54.0191 41.1685 53.8783 41.0584C53.7927 40.985 53.7407 40.9085 53.7223 40.8289L53.6122 40.8198C53.4103 40.6423 53.2788 40.5414 53.2176 40.5169C53.0585 40.4802 52.9025 40.4435 52.7495 40.4068C52.725 40.4007 52.5415 40.3976 52.1989 40.3976C52.0826 40.3976 52.0092 40.416 51.9786 40.4527L51.8685 40.4435L51.6941 40.5536L51.5932 40.5444C51.587 40.5506 51.4983 40.5903 51.327 40.6638L51.2811 40.7647L51.171 40.7922L50.7672 41.1869L50.7488 41.2878L50.6571 41.3337C50.5837 41.4867 50.5102 41.6366 50.4368 41.7834C50.3634 41.9486 50.3267 42.1077 50.3267 42.2606C50.3267 42.334 50.3053 42.4411 50.2624 42.5818C50.2196 42.7226 50.1982 42.8204 50.1982 42.8755C50.1982 43.0285 50.238 43.2243 50.3175 43.4629C50.4032 43.7321 50.4521 43.9187 50.4643 44.0227L50.5561 44.0777L50.5745 44.1695C50.6234 44.2001 50.706 44.3164 50.8223 44.5183C50.9324 44.6957 51.0395 44.7997 51.1435 44.8303C51.2414 44.8854 51.3882 44.9649 51.584 45.0689C51.7002 45.0873 51.8593 45.1393 52.0612 45.2249L52.153 45.2066C52.1958 45.2372 52.2784 45.2525 52.4008 45.2525C52.4008 45.2525 52.4344 45.2372 52.5017 45.2066L52.6027 45.2341C52.9025 45.1362 53.0707 45.0873 53.1074 45.0873C53.1319 45.0873 53.1503 45.0903 53.1625 45.0964L53.2451 45.0138C53.2879 45.0077 53.4042 44.9527 53.5938 44.8487L53.6397 44.7661L53.7315 44.7477C53.86 44.5458 54.0619 44.2827 54.3372 43.9584L54.3464 43.8575L54.4015 43.7841L54.3923 43.6923L54.4749 43.5363L54.4657 43.4445C54.4779 43.365 54.5085 43.2518 54.5575 43.1049L54.5299 43.004C54.5544 42.9612 54.5666 42.8877 54.5666 42.7837C54.5666 42.6491 54.5697 42.5696 54.5758 42.5451ZM60.8089 40.2141L60.763 40.3058L60.5978 40.2508L60.35 40.315L60.2858 40.3976L60.194 40.4343L59.9187 40.9115L59.937 41.0125L59.8544 41.0859V41.1226C59.8605 41.2266 59.8146 41.3612 59.7168 41.5264C59.5699 41.7773 59.4996 41.9486 59.5057 42.0404L59.4231 42.1046L59.4414 42.2056L59.368 42.279C59.368 42.3708 59.3282 42.487 59.2487 42.6277C59.1692 42.7868 59.1233 42.903 59.111 42.9765L59.0376 43.0407L59.0468 43.1508L58.9826 43.2151V43.3252C58.9153 43.3803 58.8082 43.5944 58.6614 43.9676C58.5268 44.3102 58.4472 44.5489 58.4227 44.6835L58.331 44.7477L58.3493 44.8578L58.2392 45.0138V45.1148C58.2025 45.1393 58.1719 45.1943 58.1474 45.28C58.1291 45.3595 58.1046 45.4115 58.074 45.436L58.0098 45.4452L57.9822 45.2616C57.9272 45.2005 57.8752 45.0995 57.8262 44.9588C57.7773 44.8119 57.7375 44.7141 57.7069 44.6651L57.7161 44.5733C57.6916 44.4938 57.6396 44.3837 57.5601 44.2429L57.5509 44.1512L57.4683 44.0869L57.4408 43.9034L57.3582 43.8391V43.7382L57.2939 43.6648C57.2939 43.6281 57.2205 43.4414 57.0737 43.1049C56.9329 42.7623 56.8565 42.5849 56.8442 42.5727L56.8167 42.3799L56.7249 42.3065L56.7433 42.1964C56.7004 42.0679 56.6484 41.9853 56.5873 41.9486V41.9119C56.5934 41.8568 56.5536 41.765 56.468 41.6366C56.3884 41.502 56.3548 41.4132 56.367 41.3704L56.3119 41.297C56.3181 41.2297 56.263 41.0859 56.1467 40.8657C56.0733 40.7127 55.9999 40.5628 55.9265 40.416L55.6328 40.2967L55.5686 40.315L55.4676 40.2783L55.6145 40.2049C55.7062 40.2171 55.7949 40.2294 55.8806 40.2416C55.954 40.2538 56.0488 40.2385 56.1651 40.1957L56.2477 40.2416C56.3517 40.2416 56.5047 40.2263 56.7066 40.1957L56.7983 40.2508L56.8901 40.1957L57.0645 40.2508L57.1471 40.2141L57.1012 40.2967L56.9544 40.2875C56.9544 40.2875 56.8962 40.312 56.78 40.3609L56.6699 40.5353L56.7066 40.7831L56.835 40.9299L56.8167 41.0308C56.8534 41.0859 56.9023 41.1655 56.9635 41.2695C56.9819 41.3735 57.037 41.5173 57.1287 41.7008L57.1379 41.8018L57.193 41.8752V41.9761L57.2664 42.0495V42.1046C57.2541 42.2453 57.3857 42.591 57.661 43.1417C57.9363 43.6923 58.0679 44.0166 58.0556 44.1145L58.1199 44.1879V44.2888C58.1505 44.3194 58.1688 44.3806 58.1749 44.4724C58.1872 44.558 58.2117 44.6162 58.2484 44.6467L58.3126 44.3714L58.3952 44.3072L58.4503 44.041L58.5237 43.9676C58.5237 43.9064 58.5879 43.729 58.7164 43.4353C58.8449 43.1355 58.9122 42.9398 58.9183 42.848L58.9917 42.7837C58.9979 42.747 59.0223 42.6736 59.0652 42.5635C59.108 42.4778 59.1263 42.4044 59.1202 42.3432L59.2395 42.1964V42.0954L59.3129 42.0312V41.9302L59.3772 41.8568L59.3955 41.6733C59.4506 41.6304 59.4996 41.5478 59.5424 41.4255C59.5852 41.3031 59.6219 41.2205 59.6525 41.1777L59.6433 41.0767L59.7076 41.0125C59.7076 40.9513 59.7596 40.7555 59.8636 40.4251L59.8361 40.3609H59.7443L59.6525 40.2875L59.5424 40.3242L59.4414 40.2783L59.3221 40.3058L59.3588 40.2324C59.42 40.2079 59.4506 40.1957 59.4506 40.1957H60.2766C60.2766 40.1957 60.3378 40.211 60.4601 40.2416L60.5519 40.2049L60.7263 40.2508L60.8089 40.2141ZM64.2659 43.9584C64.2659 44.1665 64.2384 44.3133 64.1833 44.399V44.4724L64.119 44.5274C64.0946 44.5825 64.064 44.6651 64.0273 44.7752L63.9447 44.8303L63.9263 44.9404C63.8529 44.9649 63.7611 45.0291 63.651 45.1332C63.5409 45.2372 63.4369 45.3106 63.339 45.3534C63.1738 45.4268 62.9627 45.4635 62.7057 45.4635C62.6078 45.4635 62.5283 45.4482 62.4671 45.4177L62.3845 45.4452C62.3478 45.4146 62.2774 45.3962 62.1734 45.3901C62.0694 45.384 61.9991 45.3595 61.9624 45.3167H61.8706L61.8063 45.2616H61.7605C61.6381 45.2616 61.4484 45.1423 61.1915 44.9037H61.1823L61.2006 44.7293C61.2006 44.6437 61.1884 44.5213 61.1639 44.3622C61.1394 44.2032 61.1242 44.09 61.118 44.0227L61.1639 44.0043C61.2067 44.0288 61.2526 44.1267 61.3016 44.298C61.3505 44.4632 61.4362 44.5947 61.5585 44.6926L61.5953 44.8028C61.8583 44.9802 62.0297 45.0873 62.1092 45.124C62.2683 45.1913 62.4702 45.2249 62.7149 45.2249C63.0208 45.2249 63.2564 45.127 63.4216 44.9312L63.5317 44.8945C63.5623 44.8395 63.6173 44.7661 63.6969 44.6743V44.5825L63.7611 44.5183L63.807 44.1328L63.7428 44.0319L63.7519 43.9309L63.3298 43.3527L63.238 43.3344L63.1095 43.2151L63.0178 43.1967L62.9535 43.1325C62.8679 43.1141 62.7853 43.0713 62.7057 43.004L62.614 42.9948L62.5497 42.903L62.4304 42.9122C62.3142 42.7899 62.0266 42.5818 61.5677 42.2882L61.3658 41.8935L61.375 41.8018C61.375 41.8018 61.3566 41.7559 61.3199 41.6641C61.2893 41.5662 61.274 41.4928 61.274 41.4438C61.274 41.4071 61.2955 41.3429 61.3383 41.2511C61.3811 41.1532 61.4025 41.0798 61.4025 41.0308C61.4025 41.0064 61.3995 40.985 61.3934 40.9666L61.4943 40.7647L61.5769 40.728C61.7482 40.4404 61.9318 40.3028 62.1275 40.315L62.2101 40.2416L62.3203 40.2508L62.4946 40.1682C62.5742 40.1498 62.6874 40.1529 62.8342 40.1773L62.9352 40.1406C63.2472 40.2079 63.4736 40.2752 63.6143 40.3425C63.8774 40.4771 64.0089 40.6515 64.0089 40.8657C64.0089 40.9452 63.9844 41.0308 63.9355 41.1226L63.9814 41.3245L63.9447 41.3704L63.9906 41.453L63.9355 41.4714C63.8866 41.4102 63.8468 41.3245 63.8162 41.2144C63.755 41.0431 63.7244 40.9544 63.7244 40.9483L63.651 40.9024C63.6204 40.7678 63.4858 40.6209 63.2472 40.4618L63.1371 40.471C63.1187 40.471 63.0851 40.4618 63.0361 40.4435C62.9872 40.419 62.9505 40.4068 62.926 40.4068C62.9076 40.4068 62.8923 40.4098 62.8801 40.416L62.7975 40.3701C62.5956 40.4068 62.3906 40.4404 62.1826 40.471C61.9073 40.575 61.7696 40.8901 61.7696 41.4163C61.7696 41.5998 61.9838 41.8507 62.412 42.1688C62.8464 42.487 63.1248 42.6216 63.2472 42.5727L63.3114 42.6461L63.4032 42.6644L63.4583 42.7378H63.55C63.5806 42.7684 63.7061 42.8663 63.9263 43.0315L63.963 43.1417L64.0548 43.2059C64.067 43.2487 64.1099 43.368 64.1833 43.5638C64.2384 43.6984 64.2659 43.83 64.2659 43.9584ZM70.1809 40.2599C70.1809 40.2783 70.1381 40.2905 70.0525 40.2967C69.9668 40.3028 69.9209 40.3058 69.9148 40.3058C69.7741 40.3731 69.6823 40.4313 69.6395 40.4802C69.5966 40.5291 69.5752 40.627 69.5752 40.7739C69.5752 40.9452 69.5966 41.1043 69.6395 41.2511L69.5844 41.3429L69.6395 41.4255C69.5661 41.8721 69.5599 42.1811 69.6211 42.3524L69.5752 42.4533L69.6119 42.5451C69.5814 42.5941 69.5752 42.7042 69.5936 42.8755C69.6181 43.1264 69.6303 43.2701 69.6303 43.3068C69.6303 43.417 69.6119 43.4935 69.5752 43.5363L69.6303 43.6281C69.5814 43.7382 69.5569 43.8973 69.5569 44.1053C69.5569 44.6192 69.6487 44.9955 69.8322 45.2341L70.0341 45.2983L70.0983 45.28L70.1718 45.2892L70.1351 45.3901C70.0678 45.3718 69.976 45.3565 69.8597 45.3442C69.8291 45.3442 69.7007 45.3534 69.4743 45.3718C69.2479 45.3962 69.1102 45.4085 69.0613 45.4085C68.8227 45.4085 68.63 45.3901 68.4831 45.3534L68.5657 45.2892L68.6483 45.2983L68.7493 45.2525L68.8227 45.2616C68.9634 45.2005 69.0338 45.1332 69.0338 45.0597C69.0338 44.9863 69.0491 44.8792 69.0797 44.7385L69.0246 44.6467L69.0797 43.9034C69.0674 43.83 69.0613 43.7076 69.0613 43.5363C69.0797 43.4323 69.0888 43.3038 69.0888 43.1508C69.0888 42.9428 69.0582 42.8388 68.9971 42.8388C69.0093 42.8388 68.9359 42.8633 68.7768 42.9122L68.685 42.8572C68.5015 42.851 68.2262 42.8633 67.8591 42.8939L67.7673 42.8572C67.6755 42.8939 67.4828 42.9092 67.1891 42.903C66.9321 42.8969 66.7302 42.8816 66.5834 42.8572L66.4916 42.903L66.3998 42.8663L66.3173 42.8847L66.2714 43.5179L66.3173 43.6005L66.2989 44.7477C66.2989 44.8395 66.3325 44.9465 66.3998 45.0689C66.4794 45.2157 66.562 45.2892 66.6476 45.2892C66.6721 45.2892 66.6966 45.2831 66.7211 45.2708L66.7853 45.3167L66.8679 45.2892L66.8312 45.3809C66.7884 45.3993 66.6813 45.4054 66.51 45.3993C66.3325 45.3993 66.2255 45.3871 66.1888 45.3626L66.097 45.3901L66.0144 45.3442C65.9226 45.3932 65.8308 45.4024 65.7391 45.3718L65.6473 45.3993L65.5555 45.3534C65.476 45.4024 65.3903 45.4268 65.2986 45.4268L65.1793 45.3626V45.3351C65.1793 45.3106 65.1976 45.2953 65.2343 45.2892C65.2649 45.2831 65.3077 45.2831 65.3628 45.2892C65.4301 45.2953 65.4607 45.2983 65.4546 45.2983C65.6136 45.2983 65.7024 45.2096 65.7207 45.0322C65.733 44.916 65.7452 44.7997 65.7574 44.6835L65.7115 44.4816C65.7544 44.4326 65.7758 44.3714 65.7758 44.298C65.7758 44.2674 65.7697 44.2185 65.7574 44.1512C65.7452 44.0777 65.7391 44.0257 65.7391 43.9952C65.7391 43.9523 65.7452 43.9156 65.7574 43.885L65.7115 43.7933C65.7115 43.7259 65.7299 43.6342 65.7666 43.5179L65.7207 43.3344L65.7574 43.2426L65.7299 43.1508L65.7758 43.0591L65.7115 42.9673C65.7483 42.7103 65.7513 42.4044 65.7207 42.0495C65.6962 41.8048 65.7054 41.5295 65.7483 41.2236L65.7024 41.141C65.7146 41.0676 65.733 40.9605 65.7574 40.8198L65.7115 40.728C65.7299 40.6117 65.6901 40.5047 65.5922 40.4068C65.5005 40.3089 65.3934 40.2599 65.271 40.2599C65.2343 40.2599 65.1976 40.2661 65.1609 40.2783L65.2251 40.2141C65.2557 40.2079 65.3016 40.2141 65.3628 40.2324C65.4301 40.2447 65.4729 40.2508 65.4913 40.2508C65.5831 40.2569 65.6748 40.2385 65.7666 40.1957L65.8584 40.2508C65.944 40.2141 66.1949 40.1957 66.6109 40.1957C66.7639 40.1957 66.8465 40.2049 66.8587 40.2232C66.871 40.2416 66.7394 40.2844 66.4641 40.3517L66.4182 40.4343L66.354 40.4618L66.3631 40.5628C66.3631 40.6301 66.3478 40.728 66.3173 40.8565C66.2867 40.9788 66.2714 41.0706 66.2714 41.1318C66.2714 41.4744 66.2897 41.6824 66.3264 41.7559L66.2897 41.8568C66.302 41.8874 66.2989 41.9761 66.2805 42.123C66.2561 42.3004 66.2438 42.4197 66.2438 42.4809C66.2438 42.5849 66.2652 42.643 66.3081 42.6553C66.4488 42.6858 66.6079 42.7042 66.7853 42.7103C66.9077 42.7164 67.0729 42.7164 67.2809 42.7103C67.5256 42.6981 67.6908 42.692 67.7765 42.692C67.8621 42.692 67.9814 42.6736 68.1344 42.6369L68.2262 42.6828C68.3057 42.6522 68.4281 42.6522 68.5932 42.6828L68.685 42.6369C68.7462 42.6369 68.838 42.6522 68.9603 42.6828L69.0705 42.6644C69.0338 42.4809 69.0307 42.282 69.0613 42.0679L69.0246 41.9761L69.0705 41.8018C69.0338 41.7589 69.0215 41.6213 69.0338 41.3888C69.0582 41.0278 69.0705 40.8779 69.0705 40.9391C69.0705 40.9085 69.0552 40.8565 69.0246 40.7831C68.994 40.7035 68.9787 40.6423 68.9787 40.5995C68.9787 40.5812 68.9818 40.5628 68.9879 40.5444L68.9236 40.4894L68.8961 40.4068C68.8104 40.3272 68.7217 40.2967 68.63 40.315L68.5657 40.2691L68.4739 40.2783L68.5382 40.2141L68.6208 40.2508L68.7126 40.2049L68.8043 40.2508C68.8349 40.2324 68.9481 40.2202 69.1439 40.2141C69.3642 40.2079 69.4926 40.2018 69.5293 40.1957L69.6211 40.2416L69.7037 40.2049C69.7527 40.2294 69.823 40.2355 69.9148 40.2232C70.0433 40.2049 70.1106 40.1957 70.1167 40.1957C70.1595 40.1957 70.1809 40.2171 70.1809 40.2599ZM75.7093 45.2892L75.6818 45.3901C75.6329 45.3718 75.5747 45.3687 75.5074 45.3809C75.3973 45.3932 75.3361 45.3993 75.3239 45.3993C74.8405 45.3993 74.501 45.3901 74.3052 45.3718L74.14 45.3993L74.0574 45.3809L74.1033 45.2892L74.1951 45.3167L74.2501 45.28C74.3174 45.2922 74.3817 45.2769 74.4428 45.2341C74.504 45.1913 74.5346 45.1362 74.5346 45.0689C74.5346 45.0444 74.5316 45.02 74.5254 44.9955C74.4459 44.7508 74.3694 44.503 74.296 44.2521C74.192 43.9401 74.091 43.7045 73.9932 43.5455L73.8647 43.5363C73.8218 43.5363 73.7423 43.5546 73.6261 43.5913L73.5343 43.5546L73.4333 43.6005C73.3721 43.5699 73.2834 43.5546 73.1672 43.5546C73.0203 43.5608 72.9255 43.5577 72.8827 43.5455L72.7817 43.5913L72.5982 43.5455L72.4146 43.6005L72.3229 43.5546C72.2739 43.5913 72.1577 43.6005 71.9741 43.5822L71.8915 43.6464V43.6831C71.8976 43.7688 71.8395 43.937 71.7172 44.1879C71.5948 44.4387 71.5397 44.5764 71.552 44.6009L71.4694 44.6743C71.4632 44.7049 71.4388 44.7599 71.3959 44.8395C71.3592 44.9129 71.3409 44.971 71.3409 45.0138C71.3409 45.124 71.3531 45.1913 71.3776 45.2157C71.4449 45.2769 71.6223 45.3106 71.9099 45.3167L71.8548 45.3626L71.763 45.3534L71.6713 45.3993C71.3654 45.3687 71.1206 45.3656 70.9371 45.3901L70.8453 45.3442L70.7535 45.3993L70.6618 45.3442L70.4048 45.3809L70.4415 45.3167C70.5516 45.3045 70.6618 45.2953 70.7719 45.2892C70.9187 45.2647 71.0074 45.2188 71.038 45.1515C71.246 44.6804 71.4541 44.1756 71.6621 43.6372L71.7539 43.573L71.7447 43.472C71.7447 43.4414 71.8854 43.1019 72.1668 42.4533C72.4544 41.7987 72.6227 41.4316 72.6716 41.3521L72.6624 41.2511C72.8521 40.9146 72.9714 40.6332 73.0203 40.4068L73.0938 40.3334L73.0754 40.2232L73.1305 40.1498H73.2039C73.2039 40.2294 73.2345 40.3395 73.2957 40.4802C73.363 40.6148 73.3997 40.7188 73.4058 40.7922L73.47 40.8748V40.9115C73.4639 40.9483 73.4762 40.988 73.5067 41.0308C73.5373 41.0737 73.5679 41.1134 73.5985 41.1502C73.6291 41.2725 73.6995 41.4438 73.8096 41.6641L73.7912 41.765C73.9197 41.8996 74.0421 42.1444 74.1583 42.4992C74.2807 42.8847 74.3878 43.1447 74.4796 43.2793L74.4704 43.3803C74.6172 43.7412 74.761 44.1022 74.9017 44.4632C75.1526 45.0261 75.3881 45.3075 75.6084 45.3075C75.6451 45.3075 75.6787 45.3014 75.7093 45.2892ZM73.8922 43.3436V43.2518L73.8188 43.1784V43.0866C73.776 43.0438 73.7392 42.9734 73.7087 42.8755C73.6781 42.7776 73.6444 42.7103 73.6077 42.6736L73.6169 42.5727C73.5924 42.5482 73.5496 42.4656 73.4884 42.3249C73.4333 42.1841 73.4089 42.0985 73.415 42.0679L73.3416 41.9945L73.3507 41.8935L73.2773 41.8293C73.2773 41.8048 73.2651 41.7742 73.2406 41.7375C73.2161 41.7008 73.2008 41.6763 73.1947 41.6641C73.1519 41.505 73.0754 41.2633 72.9653 40.9391C72.9408 41.037 72.8674 41.2236 72.745 41.4989C72.6349 41.7375 72.5737 41.9272 72.5615 42.0679L72.4789 42.1413V42.2331L72.4146 42.3065C72.4208 42.3799 72.4238 42.4228 72.4238 42.435C72.4238 42.4778 72.3565 42.6338 72.2219 42.903C72.0934 43.1722 72.0292 43.3099 72.0292 43.316C72.0292 43.3589 72.0751 43.3803 72.1668 43.3803C72.4666 43.3803 72.6716 43.3589 72.7817 43.316L72.8735 43.3711C72.9408 43.365 73.0356 43.3497 73.158 43.3252L73.2498 43.3711C73.2681 43.3711 73.2987 43.365 73.3416 43.3527C73.3905 43.3344 73.4272 43.3252 73.4517 43.3252C73.47 43.3252 73.5282 43.3405 73.6261 43.3711L73.7178 43.3252L73.8096 43.3711L73.8922 43.3436ZM81.1984 40.2324L81.1342 40.2875L80.8772 40.315L80.6937 40.471C80.6937 40.7586 80.6692 40.985 80.6202 41.1502L80.6478 41.2419L80.6111 41.3337L80.657 41.4255L80.6111 41.5173C80.6294 41.554 80.6386 41.6855 80.6386 41.9119C80.6386 42.0648 80.6386 42.2729 80.6386 42.5359C80.6325 42.7807 80.6294 42.9061 80.6294 42.9122C80.6294 42.9428 80.6386 42.9918 80.657 43.0591C80.6814 43.1202 80.6937 43.1661 80.6937 43.1967C80.6937 43.2212 80.6845 43.3068 80.6661 43.4537C80.66 43.5393 80.6692 43.6342 80.6937 43.7382L80.6478 43.83C80.6784 43.9034 80.6876 44.038 80.6753 44.2338C80.6692 44.4296 80.6753 44.5672 80.6937 44.6467L80.6386 44.7385C80.6692 44.8609 80.6784 44.9863 80.6661 45.1148C80.6478 45.28 80.6417 45.3993 80.6478 45.4727L80.5744 45.4177L80.5009 45.2433L80.4 45.2066L80.3633 45.1148C80.2287 45.0169 79.9564 44.711 79.5465 44.1971C79.1672 43.7321 78.9255 43.4782 78.8215 43.4353C78.7664 43.4109 78.7175 43.3558 78.6746 43.2701C78.6135 43.16 78.5737 43.0927 78.5553 43.0682C78.0781 42.5176 77.7997 42.2361 77.7202 42.2239L77.6927 42.123C77.5764 42.0312 77.4296 41.8782 77.2521 41.6641C77.0441 41.4255 76.9003 41.2664 76.8208 41.1869C76.9065 41.4561 76.9218 41.7283 76.8667 42.0037L76.9126 42.0954L76.8759 42.1872C76.8942 42.23 76.9003 42.2943 76.8942 42.3799C76.8942 42.4656 76.8973 42.5268 76.9034 42.5635L76.8575 42.6461C76.8881 42.7562 76.8973 42.9428 76.885 43.2059C76.8667 43.6342 76.8575 43.83 76.8575 43.7933C76.8575 44.2644 76.8697 44.5672 76.8942 44.7018C76.9554 45.0873 77.1084 45.28 77.3531 45.28L77.4265 45.2892L77.399 45.3901L77.2154 45.3442L77.0319 45.3993L76.9309 45.3534L76.7474 45.3993C76.7229 45.3748 76.4996 45.3595 76.0774 45.3534L76.2334 45.28L76.2977 45.3075C76.5485 45.3075 76.674 45.0964 76.674 44.6743C76.674 44.5519 76.6617 44.4448 76.6373 44.3531L76.6648 44.2613C76.6342 44.2246 76.6189 44.1848 76.6189 44.142C76.6189 44.1175 76.622 44.0839 76.6281 44.041C76.6403 43.9982 76.6464 43.9646 76.6464 43.9401C76.6464 43.885 76.6342 43.8361 76.6097 43.7933L76.6464 43.7015C76.6281 43.6709 76.6189 43.5975 76.6189 43.4812C76.6189 43.3833 76.6281 43.1753 76.6464 42.8572C76.6709 42.5329 76.6831 42.2912 76.6831 42.1321C76.6831 41.8629 76.6587 41.6824 76.6097 41.5907L76.6556 41.4989C76.625 41.2542 76.6097 41.1318 76.6097 41.1318C76.6097 41.089 76.6189 40.9666 76.6373 40.7647C76.6556 40.6179 76.6556 40.4986 76.6373 40.4068L76.6281 40.3976V40.1315L76.6464 40.1039L76.6923 40.1957L76.7841 40.2324C76.8086 40.3242 77.3256 40.9207 78.3351 42.022C79.4058 43.1845 80.0176 43.8881 80.1706 44.1328L80.2623 44.1787C80.2807 44.2399 80.3357 44.3378 80.4275 44.4724C80.4153 43.7871 80.4214 43.365 80.4459 43.2059C80.452 43.1814 80.4551 42.8694 80.4551 42.2698C80.4551 42.1597 80.4336 42.0832 80.3908 42.0404L80.4459 41.9486C80.4336 41.9364 80.4275 41.6794 80.4275 41.1777C80.4275 40.9758 80.3969 40.7647 80.3357 40.5444L80.2807 40.4986L80.2532 40.4068L80.1247 40.3242H79.9411C79.9411 40.3242 79.9044 40.3089 79.831 40.2783L80.0788 40.1957L80.1706 40.2508L80.2623 40.2141L80.3633 40.2508C80.5468 40.2141 80.7181 40.1957 80.8772 40.1957C81.0057 40.1957 81.1128 40.2079 81.1984 40.2324ZM90.049 45.2892L90.0215 45.3901C89.9726 45.3718 89.9144 45.3687 89.8471 45.3809C89.737 45.3932 89.6758 45.3993 89.6636 45.3993C89.1802 45.3993 88.8407 45.3901 88.6449 45.3718L88.4797 45.3993L88.3971 45.3809L88.443 45.2892L88.5348 45.3167L88.5898 45.28C88.6571 45.2922 88.7214 45.2769 88.7826 45.2341C88.8437 45.1913 88.8743 45.1362 88.8743 45.0689C88.8743 45.0444 88.8713 45.02 88.8652 44.9955C88.7856 44.7508 88.7091 44.503 88.6357 44.2521C88.5317 43.9401 88.4308 43.7045 88.3329 43.5455L88.2044 43.5363C88.1616 43.5363 88.082 43.5546 87.9658 43.5913L87.874 43.5546L87.773 43.6005C87.7119 43.5699 87.6231 43.5546 87.5069 43.5546C87.3601 43.5608 87.2652 43.5577 87.2224 43.5455L87.1214 43.5913L86.9379 43.5455L86.7543 43.6005L86.6626 43.5546C86.6136 43.5913 86.4974 43.6005 86.3138 43.5822L86.2312 43.6464V43.6831C86.2374 43.7688 86.1792 43.937 86.0569 44.1879C85.9345 44.4387 85.8794 44.5764 85.8917 44.6009L85.8091 44.6743C85.803 44.7049 85.7785 44.7599 85.7357 44.8395C85.6989 44.9129 85.6806 44.971 85.6806 45.0138C85.6806 45.124 85.6928 45.1913 85.7173 45.2157C85.7846 45.2769 85.962 45.3106 86.2496 45.3167L86.1945 45.3626L86.1028 45.3534L86.011 45.3993C85.7051 45.3687 85.4603 45.3656 85.2768 45.3901L85.185 45.3442L85.0932 45.3993L85.0015 45.3442L84.7445 45.3809L84.7812 45.3167C84.8913 45.3045 85.0015 45.2953 85.1116 45.2892C85.2584 45.2647 85.3471 45.2188 85.3777 45.1515C85.5858 44.6804 85.7938 44.1756 86.0018 43.6372L86.0936 43.573L86.0844 43.472C86.0844 43.4414 86.2251 43.1019 86.5066 42.4533C86.7941 41.7987 86.9624 41.4316 87.0113 41.3521L87.0021 41.2511C87.1918 40.9146 87.3111 40.6332 87.3601 40.4068L87.4335 40.3334L87.4151 40.2232L87.4702 40.1498H87.5436C87.5436 40.2294 87.5742 40.3395 87.6354 40.4802C87.7027 40.6148 87.7394 40.7188 87.7455 40.7922L87.8098 40.8748V40.9115C87.8036 40.9483 87.8159 40.988 87.8465 41.0308C87.8771 41.0737 87.9076 41.1134 87.9382 41.1502C87.9688 41.2725 88.0392 41.4438 88.1493 41.6641L88.131 41.765C88.2594 41.8996 88.3818 42.1444 88.4981 42.4992C88.6204 42.8847 88.7275 43.1447 88.8193 43.2793L88.8101 43.3803C88.9569 43.7412 89.1007 44.1022 89.2414 44.4632C89.4923 45.0261 89.7278 45.3075 89.9481 45.3075C89.9848 45.3075 90.0184 45.3014 90.049 45.2892ZM88.2319 43.3436V43.2518L88.1585 43.1784V43.0866C88.1157 43.0438 88.079 42.9734 88.0484 42.8755C88.0178 42.7776 87.9841 42.7103 87.9474 42.6736L87.9566 42.5727C87.9321 42.5482 87.8893 42.4656 87.8281 42.3249C87.773 42.1841 87.7486 42.0985 87.7547 42.0679L87.6813 41.9945L87.6904 41.8935L87.617 41.8293C87.617 41.8048 87.6048 41.7742 87.5803 41.7375C87.5558 41.7008 87.5405 41.6763 87.5344 41.6641C87.4916 41.505 87.4151 41.2633 87.305 40.9391C87.2805 41.037 87.2071 41.2236 87.0847 41.4989C86.9746 41.7375 86.9134 41.9272 86.9012 42.0679L86.8186 42.1413V42.2331L86.7543 42.3065C86.7605 42.3799 86.7635 42.4228 86.7635 42.435C86.7635 42.4778 86.6962 42.6338 86.5616 42.903C86.4331 43.1722 86.3689 43.3099 86.3689 43.316C86.3689 43.3589 86.4148 43.3803 86.5066 43.3803C86.8064 43.3803 87.0113 43.3589 87.1214 43.316L87.2132 43.3711C87.2805 43.365 87.3754 43.3497 87.4977 43.3252L87.5895 43.3711C87.6078 43.3711 87.6384 43.365 87.6813 43.3527C87.7302 43.3344 87.7669 43.3252 87.7914 43.3252C87.8098 43.3252 87.8679 43.3405 87.9658 43.3711L88.0575 43.3252L88.1493 43.3711L88.2319 43.3436ZM93.5099 43.9584C93.5099 44.1665 93.4824 44.3133 93.4273 44.399V44.4724L93.3631 44.5274C93.3386 44.5825 93.308 44.6651 93.2713 44.7752L93.1887 44.8303L93.1704 44.9404C93.0969 44.9649 93.0052 45.0291 92.895 45.1332C92.7849 45.2372 92.6809 45.3106 92.583 45.3534C92.4178 45.4268 92.2067 45.4635 91.9498 45.4635C91.8519 45.4635 91.7723 45.4482 91.7112 45.4177L91.6286 45.4452C91.5918 45.4146 91.5215 45.3962 91.4175 45.3901C91.3135 45.384 91.2431 45.3595 91.2064 45.3167H91.1146L91.0504 45.2616H91.0045C90.8821 45.2616 90.6925 45.1423 90.4355 44.9037H90.4263L90.4447 44.7293C90.4447 44.6437 90.4324 44.5213 90.408 44.3622C90.3835 44.2032 90.3682 44.09 90.3621 44.0227L90.408 44.0043C90.4508 44.0288 90.4967 44.1267 90.5456 44.298C90.5946 44.4632 90.6802 44.5947 90.8026 44.6926L90.8393 44.8028C91.1024 44.9802 91.2737 45.0873 91.3532 45.124C91.5123 45.1913 91.7142 45.2249 91.9589 45.2249C92.2649 45.2249 92.5004 45.127 92.6656 44.9312L92.7757 44.8945C92.8063 44.8395 92.8614 44.7661 92.9409 44.6743V44.5825L93.0052 44.5183L93.0511 44.1328L92.9868 44.0319L92.996 43.9309L92.5738 43.3527L92.4821 43.3344L92.3536 43.2151L92.2618 43.1967L92.1976 43.1325C92.1119 43.1141 92.0293 43.0713 91.9498 43.004L91.858 42.9948L91.7937 42.903L91.6744 42.9122C91.5582 42.7899 91.2706 42.5818 90.8118 42.2882L90.6099 41.8935L90.619 41.8018C90.619 41.8018 90.6007 41.7559 90.564 41.6641C90.5334 41.5662 90.5181 41.4928 90.5181 41.4438C90.5181 41.4071 90.5395 41.3429 90.5823 41.2511C90.6252 41.1532 90.6466 41.0798 90.6466 41.0308C90.6466 41.0064 90.6435 40.985 90.6374 40.9666L90.7383 40.7647L90.8209 40.728C90.9923 40.4404 91.1758 40.3028 91.3716 40.315L91.4542 40.2416L91.5643 40.2508L91.7387 40.1682C91.8182 40.1498 91.9314 40.1529 92.0782 40.1773L92.1792 40.1406C92.4912 40.2079 92.7176 40.2752 92.8583 40.3425C93.1214 40.4771 93.253 40.6515 93.253 40.8657C93.253 40.9452 93.2285 41.0308 93.1795 41.1226L93.2254 41.3245L93.1887 41.3704L93.2346 41.453L93.1795 41.4714C93.1306 41.4102 93.0908 41.3245 93.0602 41.2144C92.999 41.0431 92.9685 40.9544 92.9685 40.9483L92.895 40.9024C92.8644 40.7678 92.7298 40.6209 92.4912 40.4618L92.3811 40.471C92.3627 40.471 92.3291 40.4618 92.2802 40.4435C92.2312 40.419 92.1945 40.4068 92.17 40.4068C92.1517 40.4068 92.1364 40.4098 92.1241 40.416L92.0415 40.3701C91.8396 40.4068 91.6347 40.4404 91.4267 40.471C91.1513 40.575 91.0137 40.8901 91.0137 41.4163C91.0137 41.5998 91.2278 41.8507 91.6561 42.1688C92.0905 42.487 92.3689 42.6216 92.4912 42.5727L92.5555 42.6461L92.6472 42.6644L92.7023 42.7378H92.7941C92.8247 42.7684 92.9501 42.8663 93.1704 43.0315L93.2071 43.1417L93.2988 43.2059C93.3111 43.2487 93.3539 43.368 93.4273 43.5638C93.4824 43.6984 93.5099 43.83 93.5099 43.9584ZM99.9481 42.9306L99.8839 42.9948C99.7676 42.9765 99.6177 43.0315 99.4342 43.16L99.425 43.2977L99.3699 43.3711L99.4158 43.4629L99.3883 43.5546L99.4158 43.6464L99.3699 43.7382L99.4066 44.0135L99.3699 44.0961C99.3822 44.1145 99.3975 44.2185 99.4158 44.4081C99.4342 44.61 99.4342 44.7263 99.4158 44.7569C99.3791 44.8119 99.2843 44.8762 99.1313 44.9496C99.0212 45.0047 98.908 45.0536 98.7917 45.0964C98.6755 45.1393 98.5225 45.1913 98.3329 45.2525C98.1004 45.332 97.9352 45.3718 97.8373 45.3718L97.0389 45.4727L96.9471 45.4268L96.8553 45.4452L96.7727 45.3901L96.6718 45.4177L96.5892 45.3718L96.4882 45.3993L96.4148 45.3442C96.3658 45.3565 96.3169 45.3626 96.268 45.3626C96.1639 45.3626 95.9865 45.2953 95.7357 45.1607C95.5399 45.0506 95.341 44.9435 95.1391 44.8395C94.925 44.6865 94.7873 44.4999 94.7261 44.2797L94.6436 44.2338C94.5763 44.0563 94.4753 43.7871 94.3407 43.4262L94.3682 43.3252L94.2856 43.1508C94.3162 43.108 94.3315 43.0621 94.3315 43.0132C94.3315 42.9642 94.3438 42.9061 94.3682 42.8388C94.3927 42.7715 94.4049 42.7195 94.4049 42.6828C94.4049 42.6461 94.3927 42.5971 94.3682 42.5359C94.3438 42.4748 94.3315 42.4228 94.3315 42.3799C94.3315 42.0495 94.5732 41.606 95.0565 41.0492C95.5399 40.4863 95.9559 40.2049 96.3047 40.2049C96.372 40.2049 96.4331 40.2202 96.4882 40.2508L96.58 40.1865C96.7085 40.1743 96.8064 40.159 96.8737 40.1406L97.0756 40.1957C97.1306 40.1712 97.1796 40.159 97.2224 40.159C97.2408 40.159 97.2958 40.1712 97.3876 40.1957C97.4549 40.2079 97.5191 40.2049 97.5803 40.1865L97.6721 40.2416L97.773 40.2141C97.8342 40.2385 97.9229 40.2814 98.0392 40.3425L98.1493 40.3334C98.2839 40.3762 98.4705 40.468 98.7091 40.6087H98.8009L99.1955 40.8748L99.1772 41.0033C99.1772 41.0584 99.2017 41.196 99.2506 41.4163C99.3057 41.661 99.3485 41.8109 99.3791 41.866L99.2781 41.8935C99.2108 41.7222 99.0915 41.4775 98.9202 41.1593L98.8376 41.1226L98.8101 41.0308L98.7275 40.985L98.6816 40.9024C98.6204 40.8534 98.5164 40.7922 98.3696 40.7188L98.3145 40.6362C98.3268 40.6362 98.1738 40.5995 97.8556 40.5261C97.5436 40.4527 97.3234 40.4129 97.1949 40.4068C97.097 40.4313 96.9471 40.4374 96.7452 40.4251L96.5616 40.5169L96.4515 40.5077C96.4209 40.5628 96.3291 40.6179 96.1762 40.6729C96.0232 40.728 95.9314 40.7892 95.9009 40.8565L95.8091 40.884C95.6928 41.0247 95.5796 41.1655 95.4695 41.3062C95.3349 41.4775 95.2523 41.6335 95.2217 41.7742L95.1483 41.8385V41.9302C95.0137 42.0281 94.9464 42.2545 94.9464 42.6094C94.9464 42.6338 94.9525 42.7684 94.9648 43.0132C94.9831 43.2518 94.9892 43.3741 94.9831 43.3803L95.0382 43.4629L95.0198 43.5638L95.0932 43.6372C95.1116 43.9248 95.3196 44.2582 95.7173 44.6376C96.115 45.0108 96.4699 45.1974 96.7819 45.1974C96.8247 45.1974 96.8645 45.1913 96.9012 45.179L96.9838 45.2433C97.0266 45.2433 97.0939 45.2494 97.1857 45.2616C97.2836 45.2678 97.357 45.2708 97.406 45.2708C97.6201 45.2708 97.874 45.2005 98.1677 45.0597C98.4246 44.9374 98.651 44.7966 98.8468 44.6376L98.7917 44.5274C98.8346 44.4296 98.8376 44.2644 98.8009 44.0319L98.8468 43.9309C98.8162 43.8881 98.807 43.8055 98.8193 43.6831C98.8315 43.5424 98.8346 43.4567 98.8285 43.4262C98.7673 43.212 98.651 43.0713 98.4797 43.004L98.4155 43.0223L98.2778 43.0132L98.3145 42.9398L98.4063 42.903L98.4981 42.9398L98.5898 42.903L98.6724 42.9398L98.856 42.8939C98.9294 42.9489 99.0793 42.9612 99.3057 42.9306C99.5321 42.8939 99.682 42.9 99.7554 42.9489L99.8471 42.9122L99.9481 42.9306ZM105.24 45.2892L105.213 45.3901C105.164 45.3718 105.106 45.3687 105.038 45.3809C104.928 45.3932 104.867 45.3993 104.855 45.3993C104.371 45.3993 104.032 45.3901 103.836 45.3718L103.671 45.3993L103.588 45.3809L103.634 45.2892L103.726 45.3167L103.781 45.28C103.848 45.2922 103.913 45.2769 103.974 45.2341C104.035 45.1913 104.065 45.1362 104.065 45.0689C104.065 45.0444 104.062 45.02 104.056 44.9955C103.977 44.7508 103.9 44.503 103.827 44.2521C103.723 43.9401 103.622 43.7045 103.524 43.5455L103.396 43.5363C103.353 43.5363 103.273 43.5546 103.157 43.5913L103.065 43.5546L102.964 43.6005C102.903 43.5699 102.814 43.5546 102.698 43.5546C102.551 43.5608 102.456 43.5577 102.414 43.5455L102.313 43.5913L102.129 43.5455L101.945 43.6005L101.854 43.5546C101.805 43.5913 101.689 43.6005 101.505 43.5822L101.422 43.6464V43.6831C101.428 43.7688 101.37 43.937 101.248 44.1879C101.126 44.4387 101.071 44.5764 101.083 44.6009L101 44.6743C100.994 44.7049 100.97 44.7599 100.927 44.8395C100.89 44.9129 100.872 44.971 100.872 45.0138C100.872 45.124 100.884 45.1913 100.908 45.2157C100.976 45.2769 101.153 45.3106 101.441 45.3167L101.386 45.3626L101.294 45.3534L101.202 45.3993C100.896 45.3687 100.651 45.3656 100.468 45.3901L100.376 45.3442L100.284 45.3993L100.193 45.3442L99.9356 45.3809L99.9723 45.3167C100.082 45.3045 100.193 45.2953 100.303 45.2892C100.45 45.2647 100.538 45.2188 100.569 45.1515C100.777 44.6804 100.985 44.1756 101.193 43.6372L101.285 43.573L101.276 43.472C101.276 43.4414 101.416 43.1019 101.698 42.4533C101.985 41.7987 102.153 41.4316 102.202 41.3521L102.193 41.2511C102.383 40.9146 102.502 40.6332 102.551 40.4068L102.625 40.3334L102.606 40.2232L102.661 40.1498H102.735C102.735 40.2294 102.765 40.3395 102.827 40.4802C102.894 40.6148 102.931 40.7188 102.937 40.7922L103.001 40.8748V40.9115C102.995 40.9483 103.007 40.988 103.038 41.0308C103.068 41.0737 103.099 41.1134 103.129 41.1502C103.16 41.2725 103.23 41.4438 103.34 41.6641L103.322 41.765C103.451 41.8996 103.573 42.1444 103.689 42.4992C103.812 42.8847 103.919 43.1447 104.01 43.2793L104.001 43.3803C104.148 43.7412 104.292 44.1022 104.433 44.4632C104.683 45.0261 104.919 45.3075 105.139 45.3075C105.176 45.3075 105.21 45.3014 105.24 45.2892ZM103.423 43.3436V43.2518L103.35 43.1784V43.0866C103.307 43.0438 103.27 42.9734 103.239 42.8755C103.209 42.7776 103.175 42.7103 103.139 42.6736L103.148 42.5727C103.123 42.5482 103.08 42.4656 103.019 42.3249C102.964 42.1841 102.94 42.0985 102.946 42.0679L102.872 41.9945L102.882 41.8935L102.808 41.8293C102.808 41.8048 102.796 41.7742 102.771 41.7375C102.747 41.7008 102.732 41.6763 102.726 41.6641C102.683 41.505 102.606 41.2633 102.496 40.9391C102.472 41.037 102.398 41.2236 102.276 41.4989C102.166 41.7375 102.105 41.9272 102.092 42.0679L102.01 42.1413V42.2331L101.945 42.3065C101.952 42.3799 101.955 42.4228 101.955 42.435C101.955 42.4778 101.887 42.6338 101.753 42.903C101.624 43.1722 101.56 43.3099 101.56 43.316C101.56 43.3589 101.606 43.3803 101.698 43.3803C101.997 43.3803 102.202 43.3589 102.313 43.316L102.404 43.3711C102.472 43.365 102.566 43.3497 102.689 43.3252L102.781 43.3711C102.799 43.3711 102.83 43.365 102.872 43.3527C102.921 43.3344 102.958 43.3252 102.983 43.3252C103.001 43.3252 103.059 43.3405 103.157 43.3711L103.249 43.3252L103.34 43.3711L103.423 43.3436ZM110.711 45.5186C110.668 45.5431 110.598 45.5553 110.5 45.5553C110.402 45.5553 110.335 45.5645 110.298 45.5828L110.197 45.537L110.096 45.5553C109.986 45.5308 109.836 45.4697 109.646 45.3718L109.555 45.3626L109.499 45.2892L109.399 45.2983L109.343 45.2157L109.252 45.1974L109.197 45.124C109.166 45.124 109.071 45.0506 108.912 44.9037C108.753 44.7508 108.664 44.6682 108.646 44.6559C108.585 44.6192 108.502 44.5366 108.398 44.4081C108.313 44.3225 108.224 44.2062 108.132 44.0594L108.059 44.0043C108.065 43.9187 107.982 43.7504 107.811 43.4996C107.609 43.1937 107.404 43.0407 107.196 43.0407C107.141 43.0407 107.086 43.0529 107.031 43.0774L106.93 43.0407L107.113 42.9581L107.223 42.9765L107.297 42.9398C107.67 42.9703 107.958 42.8266 108.16 42.5084C108.251 42.3555 108.368 42.0373 108.508 41.554L108.462 41.4714L108.49 41.3888C108.459 41.3826 108.413 41.2786 108.352 41.0767C108.297 40.8687 108.257 40.7494 108.233 40.7188C108.056 40.5169 107.606 40.416 106.884 40.416C106.774 40.416 106.719 40.4894 106.719 40.6362C106.719 40.6607 106.725 40.7311 106.737 40.8473C106.749 40.933 106.749 41.0033 106.737 41.0584L106.783 41.1502L106.728 41.3429L106.783 41.4347C106.722 42.5482 106.713 43.1264 106.755 43.1692L106.719 43.2518C106.762 43.3007 106.777 43.3741 106.765 43.472C106.746 43.5883 106.746 43.6678 106.765 43.7107L106.728 43.8024C106.759 43.8575 106.759 43.9829 106.728 44.1787L106.765 44.2705L106.728 44.4632L106.774 44.555L106.728 44.6467C106.771 44.7875 106.814 44.9282 106.856 45.0689C106.918 45.228 107.012 45.3075 107.141 45.3075C107.184 45.3075 107.233 45.2983 107.288 45.28L107.26 45.3534L106.994 45.3901L106.902 45.3442C106.731 45.3809 106.609 45.3871 106.535 45.3626L106.443 45.3901C106.388 45.3289 106.281 45.2983 106.122 45.2983C106.018 45.2983 105.89 45.3106 105.737 45.3351C105.694 45.3412 105.651 45.3473 105.608 45.3534C105.725 45.3167 105.844 45.28 105.966 45.2433C106.089 45.2066 106.162 45.127 106.186 45.0047L106.131 44.9221L106.205 44.8028L106.15 44.6009L106.196 44.4357L106.15 44.3439C106.186 44.2582 106.205 44.1328 106.205 43.9676C106.205 43.9126 106.202 43.8269 106.196 43.7107C106.19 43.5944 106.186 43.5088 106.186 43.4537C106.186 43.313 106.199 43.1998 106.223 43.1141L106.168 43.0223C106.217 42.9734 106.242 42.8908 106.242 42.7746C106.242 41.8385 106.245 41.4255 106.251 41.5356C106.232 40.936 106.162 40.5597 106.04 40.4068L105.966 40.3884L105.911 40.3242L105.645 40.2967L105.673 40.2324C105.917 40.2079 106.04 40.1957 106.04 40.1957C106.04 40.1957 106.339 40.1957 106.939 40.1957C107.019 40.1957 107.138 40.211 107.297 40.2416C107.462 40.2661 107.584 40.2783 107.664 40.2783C107.737 40.2783 107.808 40.2691 107.875 40.2508L107.949 40.315L108.196 40.3517L108.261 40.4435L108.527 40.5536L108.573 40.6546L108.683 40.6821L108.71 40.7739C108.753 40.7861 108.796 40.8228 108.839 40.884C108.888 40.9391 108.909 40.988 108.903 41.0308L108.967 41.0951C108.979 41.2419 109.004 41.4652 109.041 41.765L108.995 41.8476C109.001 41.8721 109.004 41.8996 109.004 41.9302C109.004 42.1138 108.885 42.334 108.646 42.591C108.413 42.848 108.212 42.9765 108.04 42.9765C108.218 43.2701 108.398 43.5608 108.582 43.8483C108.82 44.2154 109.047 44.4601 109.261 44.5825L109.298 44.6835C109.347 44.6896 109.402 44.7293 109.463 44.8028C109.524 44.8701 109.579 44.9068 109.628 44.9129L109.674 45.0138C109.784 45.1179 109.964 45.2372 110.215 45.3718C110.325 45.3962 110.485 45.4482 110.693 45.5278L110.711 45.5186ZM115.267 44.3806C115.249 44.4418 115.212 44.5305 115.157 44.6467L115.148 44.7477L115.084 44.8211L115.093 44.9496C115.099 45.0475 115.065 45.1484 114.992 45.2525C114.919 45.3565 114.836 45.4085 114.744 45.4085C114.714 45.4085 114.637 45.3993 114.515 45.3809C114.435 45.3687 114.353 45.3748 114.267 45.3993L114.175 45.3534C114.126 45.3779 113.848 45.3809 113.34 45.3626C112.838 45.3381 112.563 45.3504 112.514 45.3993L112.422 45.3534L112.331 45.3993L112.239 45.3626L112.147 45.3993L112.055 45.3534C112 45.384 111.911 45.3962 111.789 45.3901C111.648 45.384 111.553 45.3871 111.505 45.3993L111.413 45.3534L111.321 45.3809L111.229 45.3534C111.174 45.384 110.96 45.3993 110.587 45.3993C110.587 45.3993 110.556 45.3901 110.495 45.3718L110.532 45.2892L110.614 45.2341L110.651 45.1423C110.694 45.124 110.743 45.0811 110.798 45.0138C110.853 44.9465 110.89 44.9037 110.908 44.8854L110.926 44.7752C110.975 44.7324 111.046 44.6712 111.137 44.5917L111.156 44.4907C111.217 44.4846 111.309 44.3806 111.431 44.1787C111.56 43.9707 111.667 43.8453 111.752 43.8024L111.771 43.6923L111.862 43.6556C111.93 43.5577 112.077 43.3619 112.303 43.0682C112.419 42.9214 112.499 42.8327 112.542 42.8021L112.551 42.692L112.633 42.6461C112.658 42.5727 112.841 42.3157 113.184 41.8752C113.533 41.4285 113.738 41.1838 113.799 41.141L113.817 41.0308C113.866 40.9635 113.946 40.8687 114.056 40.7463L114.093 40.6546L114.184 40.5995L114.203 40.5077L114.285 40.4527C114.194 40.4343 114.044 40.4313 113.836 40.4435C113.634 40.4557 113.478 40.4466 113.368 40.416L113.276 40.4618L113.184 40.4343L113.092 40.4618L113 40.416C112.915 40.4404 112.802 40.4466 112.661 40.4343C112.441 40.416 112.327 40.4068 112.321 40.4068C111.911 40.4068 111.636 40.4435 111.495 40.5169C111.41 40.5597 111.333 40.6576 111.266 40.8106C111.186 40.988 111.07 41.1379 110.917 41.2603L110.908 41.2236C110.908 41.193 110.948 41.0859 111.027 40.9024C111.107 40.7188 111.144 40.5812 111.137 40.4894L111.211 40.416L111.248 40.2049L111.321 40.1957C111.339 40.1957 111.37 40.2049 111.413 40.2232C111.462 40.2355 111.498 40.2385 111.523 40.2324C111.621 40.2018 111.737 40.1865 111.872 40.1865C111.97 40.1865 112.116 40.1988 112.312 40.2232C112.508 40.2416 112.649 40.2508 112.734 40.2508C112.869 40.2508 112.982 40.2355 113.074 40.2049L113.166 40.2324L113.257 40.2049C113.282 40.2171 113.404 40.2324 113.625 40.2508L113.716 40.1957C113.716 40.1957 113.933 40.1896 114.368 40.1773C114.796 40.159 115.032 40.1743 115.075 40.2232C115.087 40.2355 115.093 40.2477 115.093 40.2599C115.093 40.3089 115.038 40.3915 114.928 40.5077C114.787 40.6485 114.714 40.7249 114.707 40.7372C114.622 40.8718 114.484 41.0676 114.294 41.3245C114.294 41.3245 114.246 41.3612 114.148 41.4347L114.12 41.5264L114.038 41.5815C114.025 41.6488 113.943 41.7803 113.79 41.9761C113.618 42.1964 113.517 42.3371 113.487 42.3983L113.386 42.435C113.361 42.6247 113.199 42.8357 112.9 43.0682L112.89 43.1692C112.817 43.1875 112.762 43.261 112.725 43.3894L112.633 43.4262C112.615 43.5608 112.542 43.6586 112.413 43.7198L112.395 43.8208C112.303 43.833 112.116 44.0686 111.835 44.5274L111.743 44.5733L111.716 44.6651L111.642 44.7293C111.63 44.7783 111.572 44.8487 111.468 44.9404C111.364 45.0261 111.318 45.0995 111.33 45.1607C111.336 45.2035 111.37 45.2249 111.431 45.2249C111.456 45.2249 111.498 45.2188 111.56 45.2066C111.627 45.1943 111.676 45.1882 111.706 45.1882C111.737 45.1882 111.765 45.1943 111.789 45.2066L111.881 45.1515C112.254 45.1699 112.639 45.1729 113.037 45.1607C113.257 45.1729 113.524 45.1699 113.836 45.1515L113.927 45.2066C114.19 45.1943 114.362 45.1729 114.441 45.1423C114.564 45.0811 114.689 45.023 114.818 44.968L114.873 44.867C114.934 44.8303 114.989 44.7569 115.038 44.6467C115.093 44.5305 115.148 44.4571 115.203 44.4265L115.231 44.3439L115.267 44.3806ZM120.44 45.2892L120.413 45.3901C120.364 45.3718 120.306 45.3687 120.238 45.3809C120.128 45.3932 120.067 45.3993 120.055 45.3993C119.571 45.3993 119.232 45.3901 119.036 45.3718L118.871 45.3993L118.788 45.3809L118.834 45.2892L118.926 45.3167L118.981 45.28C119.048 45.2922 119.113 45.2769 119.174 45.2341C119.235 45.1913 119.266 45.1362 119.266 45.0689C119.266 45.0444 119.262 45.02 119.256 44.9955C119.177 44.7508 119.1 44.503 119.027 44.2521C118.923 43.9401 118.822 43.7045 118.724 43.5455L118.596 43.5363C118.553 43.5363 118.473 43.5546 118.357 43.5913L118.265 43.5546L118.164 43.6005C118.103 43.5699 118.014 43.5546 117.898 43.5546C117.751 43.5608 117.656 43.5577 117.614 43.5455L117.513 43.5913L117.329 43.5455L117.146 43.6005L117.054 43.5546C117.005 43.5913 116.889 43.6005 116.705 43.5822L116.622 43.6464V43.6831C116.629 43.7688 116.57 43.937 116.448 44.1879C116.326 44.4387 116.271 44.5764 116.283 44.6009L116.2 44.6743C116.194 44.7049 116.17 44.7599 116.127 44.8395C116.09 44.9129 116.072 44.971 116.072 45.0138C116.072 45.124 116.084 45.1913 116.109 45.2157C116.176 45.2769 116.353 45.3106 116.641 45.3167L116.586 45.3626L116.494 45.3534L116.402 45.3993C116.096 45.3687 115.852 45.3656 115.668 45.3901L115.576 45.3442L115.484 45.3993L115.393 45.3442L115.136 45.3809L115.172 45.3167C115.283 45.3045 115.393 45.2953 115.503 45.2892C115.65 45.2647 115.738 45.2188 115.769 45.1515C115.977 44.6804 116.185 44.1756 116.393 43.6372L116.485 43.573L116.476 43.472C116.476 43.4414 116.616 43.1019 116.898 42.4533C117.185 41.7987 117.354 41.4316 117.403 41.3521L117.393 41.2511C117.583 40.9146 117.702 40.6332 117.751 40.4068L117.825 40.3334L117.806 40.2232L117.861 40.1498H117.935C117.935 40.2294 117.965 40.3395 118.027 40.4802C118.094 40.6148 118.131 40.7188 118.137 40.7922L118.201 40.8748V40.9115C118.195 40.9483 118.207 40.988 118.238 41.0308C118.268 41.0737 118.299 41.1134 118.329 41.1502C118.36 41.2725 118.43 41.4438 118.541 41.6641L118.522 41.765C118.651 41.8996 118.773 42.1444 118.889 42.4992C119.012 42.8847 119.119 43.1447 119.21 43.2793L119.201 43.3803C119.348 43.7412 119.492 44.1022 119.633 44.4632C119.883 45.0261 120.119 45.3075 120.339 45.3075C120.376 45.3075 120.41 45.3014 120.44 45.2892ZM118.623 43.3436V43.2518L118.55 43.1784V43.0866C118.507 43.0438 118.47 42.9734 118.44 42.8755C118.409 42.7776 118.375 42.7103 118.339 42.6736L118.348 42.5727C118.323 42.5482 118.281 42.4656 118.219 42.3249C118.164 42.1841 118.14 42.0985 118.146 42.0679L118.072 41.9945L118.082 41.8935L118.008 41.8293C118.008 41.8048 117.996 41.7742 117.972 41.7375C117.947 41.7008 117.932 41.6763 117.926 41.6641C117.883 41.505 117.806 41.2633 117.696 40.9391C117.672 41.037 117.598 41.2236 117.476 41.4989C117.366 41.7375 117.305 41.9272 117.292 42.0679L117.21 42.1413V42.2331L117.146 42.3065C117.152 42.3799 117.155 42.4228 117.155 42.435C117.155 42.4778 117.087 42.6338 116.953 42.903C116.824 43.1722 116.76 43.3099 116.76 43.316C116.76 43.3589 116.806 43.3803 116.898 43.3803C117.198 43.3803 117.403 43.3589 117.513 43.316L117.604 43.3711C117.672 43.365 117.767 43.3497 117.889 43.3252L117.981 43.3711C117.999 43.3711 118.03 43.365 118.072 43.3527C118.121 43.3344 118.158 43.3252 118.183 43.3252C118.201 43.3252 118.259 43.3405 118.357 43.3711L118.449 43.3252L118.541 43.3711L118.623 43.3436ZM125.929 42.9398C125.929 43.1294 125.89 43.3007 125.81 43.4537L125.828 43.5546C125.828 43.5546 125.801 43.6464 125.746 43.83L125.672 43.885C125.611 44.0319 125.519 44.1848 125.397 44.3439C125.244 44.5519 125.146 44.6926 125.103 44.7661L124.984 44.7752C124.886 44.8915 124.669 45.0138 124.332 45.1423C124.002 45.2708 123.739 45.3351 123.543 45.3351C123.5 45.3351 123.464 45.332 123.433 45.3259L123.36 45.3718L123.286 45.3351L123.13 45.3718L123.048 45.3351L122.965 45.3809L122.873 45.3626L122.791 45.3993C122.705 45.3626 122.531 45.3442 122.268 45.3442C122.096 45.3442 121.845 45.3534 121.515 45.3718C121.185 45.3901 120.986 45.3993 120.918 45.3993L120.845 45.3809L120.882 45.3167C120.949 45.3228 121.032 45.3075 121.13 45.2708C121.227 45.228 121.295 45.179 121.331 45.124C121.411 45.0138 121.42 44.8915 121.359 44.7569L121.405 44.6835C121.38 44.555 121.368 44.4081 121.368 44.2429C121.368 44.1634 121.371 44.0441 121.377 43.885C121.39 43.7198 121.396 43.5975 121.396 43.5179C121.396 43.3466 121.38 43.1937 121.35 43.0591L121.396 42.9673L121.341 42.8755L121.387 42.7837L121.35 42.692C121.368 42.6308 121.368 42.5268 121.35 42.3799C121.338 42.2331 121.353 42.123 121.396 42.0495L121.359 41.9578C121.39 41.8415 121.405 41.7467 121.405 41.6733C121.405 41.5631 121.399 41.4438 121.387 41.3153C121.393 41.3765 121.396 41.2542 121.396 40.9483C121.396 40.52 121.267 40.312 121.01 40.3242L120.964 40.2967L120.891 40.3242L120.808 40.2875L120.854 40.2232C120.94 40.2477 121.117 40.2385 121.387 40.1957L121.478 40.2508L121.662 40.2049L121.744 40.2416L121.928 40.1957L122.02 40.2324L122.102 40.1957C122.182 40.2385 122.301 40.2385 122.46 40.1957L122.644 40.2599L122.745 40.1957H122.956C122.962 40.1957 123.048 40.2079 123.213 40.2324C123.341 40.2447 123.424 40.2416 123.461 40.2232L123.552 40.2783L123.653 40.2232C123.837 40.2722 124.124 40.3731 124.516 40.5261C124.565 40.5506 124.663 40.6179 124.81 40.728C124.926 40.8198 125.024 40.8687 125.103 40.8748L125.14 40.9574L125.241 40.985C125.682 41.5723 125.902 42.0251 125.902 42.3432C125.902 42.4044 125.893 42.4564 125.874 42.4992L125.92 42.591L125.893 42.692C125.917 42.7654 125.929 42.848 125.929 42.9398ZM125.342 42.9306L125.305 42.848C125.324 42.799 125.333 42.7378 125.333 42.6644C125.333 42.3463 125.143 41.8813 124.764 41.2695C124.733 41.2144 124.654 41.1318 124.525 41.0217C124.403 40.9115 124.311 40.8473 124.25 40.8289C124.048 40.7494 123.849 40.6729 123.653 40.5995C123.39 40.5016 123.109 40.4527 122.809 40.4527C122.809 40.4527 122.745 40.468 122.616 40.4986L122.525 40.4527L122.442 40.4894C122.277 40.4649 122.157 40.4527 122.084 40.4527L121.974 40.471C121.943 40.6056 121.928 40.8106 121.928 41.0859C121.928 41.2878 121.94 41.5968 121.965 42.0128C121.989 42.4289 122.001 42.7378 122.001 42.9398C122.001 42.9948 121.992 43.0866 121.974 43.2151C121.962 43.3374 121.956 43.4323 121.956 43.4996C121.956 43.5363 121.952 43.7321 121.946 44.0869C121.934 44.4601 121.928 44.6712 121.928 44.7202C121.928 44.8119 121.977 44.9098 122.075 45.0138C122.179 45.1117 122.283 45.1607 122.387 45.1607C122.442 45.1607 122.488 45.1423 122.525 45.1056L122.607 45.1515C122.901 45.1393 123.219 45.1056 123.562 45.0506L123.626 45.0597C123.705 45.0597 123.828 45.0261 123.993 44.9588C124.164 44.8915 124.265 44.8272 124.296 44.7661L124.388 44.7569C124.498 44.6406 124.645 44.5152 124.828 44.3806L124.856 44.2888L124.957 44.2521C124.975 44.1848 125.012 44.0961 125.067 43.986C125.11 43.9248 125.146 43.8361 125.177 43.7198C125.214 43.6036 125.247 43.521 125.278 43.472L125.269 43.3803C125.269 43.3436 125.278 43.3038 125.296 43.261C125.314 43.2181 125.324 43.1784 125.324 43.1417C125.324 43.1111 125.318 43.0713 125.305 43.0223L125.342 42.9306ZM130.803 44.3806C130.797 44.3867 130.739 44.503 130.629 44.7293L130.638 44.8303C130.638 44.971 130.604 45.0934 130.537 45.1974C130.457 45.3198 130.353 45.3809 130.225 45.3809C130.188 45.3809 130.142 45.3718 130.087 45.3534C130.032 45.3351 129.992 45.3259 129.968 45.3259C129.919 45.3259 129.842 45.3412 129.738 45.3718C129.64 45.3962 129.57 45.4085 129.527 45.4085C128.279 45.4085 127.628 45.3932 127.572 45.3626L127.481 45.3901C127.358 45.3228 127.236 45.3259 127.114 45.3993L127.022 45.3442L126.921 45.3718C127.043 45.3228 127.169 45.2708 127.297 45.2157C127.432 45.1546 127.499 45.0536 127.499 44.9129C127.499 44.8884 127.487 44.8517 127.462 44.8028C127.444 44.7477 127.435 44.7079 127.435 44.6835C127.435 44.6467 127.444 44.5856 127.462 44.4999C127.475 44.4448 127.472 44.3775 127.453 44.298L127.499 44.2154L127.462 44.1328L127.499 44.0502L127.472 43.9676L127.49 43.885L127.453 43.7933L127.499 43.7015C127.487 43.5546 127.472 43.3405 127.453 43.0591L127.499 42.9673L127.453 42.7837L127.508 42.6002L127.462 42.4166L127.499 42.3249L127.453 42.2331C127.465 42.0924 127.468 42.0006 127.462 41.9578L127.499 41.866C127.456 41.7069 127.438 41.4867 127.444 41.2052C127.45 40.8871 127.444 40.6668 127.426 40.5444L127.316 40.4068L127.242 40.3884L127.187 40.315L127.114 40.3242L127.003 40.2599L126.93 40.3058L126.958 40.1957C127.159 40.2018 127.423 40.2018 127.747 40.1957C128.145 40.1896 128.405 40.1865 128.527 40.1865C128.57 40.1865 128.652 40.1988 128.775 40.2232C128.879 40.2416 128.952 40.2477 128.995 40.2416C129.105 40.2232 129.185 40.2232 129.234 40.2416C129.491 40.2294 129.772 40.2202 130.078 40.2141L130.069 40.315L130.28 40.9941L130.206 41.04L130.179 40.8748L130.096 40.8198L130.087 40.728C129.885 40.5934 129.754 40.5139 129.692 40.4894C129.576 40.4343 129.423 40.4068 129.234 40.4068C129.234 40.4068 129.172 40.4221 129.05 40.4527L128.958 40.416C128.879 40.4343 128.769 40.4343 128.628 40.416C128.444 40.3915 128.331 40.3793 128.288 40.3793C128.19 40.3793 128.105 40.3976 128.031 40.4343C128.001 40.4466 127.985 40.5077 127.985 40.6179C127.979 40.6974 127.982 40.8075 127.995 40.9483C128.007 41.089 128.013 41.1655 128.013 41.1777C128.013 41.2511 128.007 41.4163 127.995 41.6733C127.989 41.8935 127.985 42.0679 127.985 42.1964C127.992 42.386 128.013 42.5421 128.05 42.6644C128.056 42.695 128.12 42.7103 128.242 42.7103C128.316 42.7103 128.432 42.7042 128.591 42.692C128.756 42.6797 128.879 42.6736 128.958 42.6736C128.958 42.6736 128.986 42.6614 129.041 42.6369L129.197 42.6553C129.558 42.6553 129.738 42.4992 129.738 42.1872C129.738 42.1872 129.748 42.1597 129.766 42.1046L129.839 42.0863C129.815 42.1719 129.818 42.2912 129.848 42.4442L129.821 42.5359L129.867 42.6277C129.861 42.6522 129.852 42.8877 129.839 43.3344L129.748 43.3527L129.757 43.261C129.769 43.0529 129.656 42.9214 129.417 42.8663C129.325 42.848 129.114 42.8388 128.784 42.8388C128.735 42.8388 128.643 42.848 128.509 42.8663C128.374 42.8847 128.273 42.8939 128.206 42.8939C128.145 42.8939 128.096 42.8877 128.059 42.8755L128.013 42.9765C128.019 43.1539 128.025 43.4078 128.031 43.7382C128.031 43.9279 128.047 44.0472 128.077 44.0961L128.041 44.1971C128.089 44.3072 128.083 44.4693 128.022 44.6835L128.059 44.7752L128.022 44.8028L128.169 45.023C128.261 45.072 128.398 45.124 128.582 45.179C128.655 45.179 128.79 45.1852 128.986 45.1974C129.163 45.2035 129.295 45.2066 129.38 45.2066C129.809 45.2066 130.09 45.1332 130.225 44.9863L130.326 44.968C130.485 44.8211 130.632 44.61 130.766 44.3347L130.803 44.3806Z" fill="white"/>
<rect x="171.178" y="1.49042" width="78.008" height="9.17741" rx="4.58871" fill="url(#paint0_linear_566_1390)"/>
<rect x="179.781" y="18.4112" width="78.008" height="9.17741" rx="4.58871" fill="url(#paint1_linear_566_1390)"/>
<rect x="188.959" y="35.3321" width="78.008" height="9.17741" rx="4.58871" fill="url(#paint2_linear_566_1390)"/>
<defs>
<linearGradient id="paint0_linear_566_1390" x1="171.178" y1="6.07913" x2="249.186" y2="6.07913" gradientUnits="userSpaceOnUse">
<stop stop-color="#FFDB5F"/>
<stop offset="1" stop-color="#FF924C"/>
</linearGradient>
<linearGradient id="paint1_linear_566_1390" x1="179.781" y1="22.9999" x2="257.789" y2="22.9999" gradientUnits="userSpaceOnUse">
<stop stop-color="#58E0E7"/>
<stop offset="1" stop-color="#0253A9"/>
</linearGradient>
<linearGradient id="paint2_linear_566_1390" x1="188.959" y1="39.9208" x2="266.967" y2="39.9208" gradientUnits="userSpaceOnUse">
<stop stop-color="#D5D5D5"/>
<stop offset="1" stop-color="#575757"/>
</linearGradient>
</defs>
</svg>
