<svg width="24" height="24" viewBox="0 0 24 24" fill="none" xmlns="http://www.w3.org/2000/svg">
<g id="Group 1">
<rect id="Box" x="24" y="24" width="24" height="24" rx="12" transform="rotate(-180 24 24)" fill="#D58B0E"/>
<path id="Line 2 (Stroke)" fill-rule="evenodd" clip-rule="evenodd" d="M9.99857 16.9999C9.70567 16.707 10.1753 16.2479 10.4682 15.955L18.9535 7.46972C19.2464 7.17682 19.7213 7.17682 20.0142 7.46972C20.3071 7.76261 20.3071 8.23748 20.0142 8.53038L11.5289 17.0157C11.236 17.3086 10.2915 17.2928 9.99857 16.9999Z" fill="#222222"/>
<path id="Line 3 (Stroke)" fill-rule="evenodd" clip-rule="evenodd" d="M5.46967 11.4697C5.76256 11.1768 6.23744 11.1768 6.53033 11.4697L10.773 15.7123C11.0659 16.0052 11.0659 16.48 10.773 16.7729C10.4801 17.0658 10.0053 17.0658 9.71236 16.7729L5.46968 12.5303C5.17679 12.2374 5.17678 11.7626 5.46967 11.4697Z" fill="#222222"/>
</g>
</svg>
