<svg width="319" height="168" viewBox="0 0 319 168" fill="none" xmlns="http://www.w3.org/2000/svg">
<path d="M53.72 28.768L54.3909 29.5095L55.0888 28.8782L54.5009 28.1433L53.72 28.768ZM44.144 37.432L43.3746 38.0708L44.0411 38.8736L44.8149 38.1735L44.144 37.432ZM44.144 55.368L44.8149 54.6265L44.0411 53.9264L43.3746 54.7292L44.144 55.368ZM53.72 64.032L54.5009 64.6567L55.0888 63.9218L54.3909 63.2905L53.72 64.032ZM30.844 73.064C14.4649 73.064 2.584 61.9781 2.584 46.4H0.584C0.584 63.1979 13.4791 75.064 30.844 75.064V73.064ZM2.584 46.4C2.584 30.8219 14.4649 19.736 30.844 19.736V17.736C13.4791 17.736 0.584 29.6021 0.584 46.4H2.584ZM30.844 19.736C40.3929 19.736 47.9894 23.2055 52.9391 29.3927L54.5009 28.1433C49.1146 21.4105 40.9031 17.736 30.844 17.736V19.736ZM53.0491 28.0265L43.4731 36.6905L44.8149 38.1735L54.3909 29.5095L53.0491 28.0265ZM44.9134 36.7932C41.4087 32.5717 37.0364 30.2 31.604 30.2V32.2C36.3556 32.2 40.1913 34.2363 43.3746 38.0708L44.9134 36.7932ZM31.604 30.2C26.9954 30.2 23.0235 31.8076 20.2031 34.6793C17.3836 37.55 15.784 41.6132 15.784 46.4H17.784C17.784 42.0668 19.2244 38.53 21.6299 36.0807C24.0345 33.6324 27.4726 32.2 31.604 32.2V30.2ZM15.784 46.4C15.784 51.1868 17.3836 55.25 20.2031 58.1207C23.0235 60.9924 26.9954 62.6 31.604 62.6V60.6C27.4726 60.6 24.0345 59.1676 21.6299 56.7193C19.2244 54.27 17.784 50.7332 17.784 46.4H15.784ZM31.604 62.6C37.0364 62.6 41.4087 60.2283 44.9134 56.0068L43.3746 54.7292C40.1913 58.5637 36.3556 60.6 31.604 60.6V62.6ZM43.4731 56.1095L53.0491 64.7735L54.3909 63.2905L44.8149 54.6265L43.4731 56.1095ZM52.9391 63.4073C47.9894 69.5945 40.3929 73.064 30.844 73.064V75.064C40.9031 75.064 49.1146 71.3895 54.5009 64.6567L52.9391 63.4073ZM83.1041 73.064C66.568 73.064 54.5401 61.7455 54.5401 46.4H52.5401C52.5401 62.9745 65.5922 75.064 83.1041 75.064V73.064ZM54.5401 46.4C54.5401 31.0545 66.568 19.736 83.1041 19.736V17.736C65.5922 17.736 52.5401 29.8255 52.5401 46.4H54.5401ZM83.1041 19.736C99.6402 19.736 111.668 31.0545 111.668 46.4H113.668C113.668 29.8255 100.616 17.736 83.1041 17.736V19.736ZM111.668 46.4C111.668 61.7455 99.6402 73.064 83.1041 73.064V75.064C100.616 75.064 113.668 62.9745 113.668 46.4H111.668ZM83.1041 62.6C91.7362 62.6 98.4681 56.1242 98.4681 46.4H96.4681C96.4681 55.0678 90.584 60.6 83.1041 60.6V62.6ZM98.4681 46.4C98.4681 36.6758 91.7362 30.2 83.1041 30.2V32.2C90.584 32.2 96.4681 37.7322 96.4681 46.4H98.4681ZM83.1041 30.2C74.472 30.2 67.7401 36.6758 67.7401 46.4H69.7401C69.7401 37.7322 75.6242 32.2 83.1041 32.2V30.2ZM67.7401 46.4C67.7401 56.1242 74.472 62.6 83.1041 62.6V60.6C75.6242 60.6 69.7401 55.0678 69.7401 46.4H67.7401ZM179.374 73V74H180.376L180.374 72.9971L179.374 73ZM165.542 73L164.542 73.0054L164.547 74H165.542V73ZM165.39 44.804L166.39 44.7986L166.37 41.2056L164.531 44.292L165.39 44.804ZM151.71 67.756V68.756H152.278L152.569 68.268L151.71 67.756ZM145.022 67.756L144.169 68.2786L144.462 68.756H145.022V67.756ZM131.418 45.564L132.27 45.0414L130.418 42.0193V45.564H131.418ZM131.418 73V74H132.418V73H131.418ZM117.51 73H116.51V74H117.51V73ZM117.51 19.8V18.8H116.51V19.8H117.51ZM129.898 19.8L130.752 19.2799L130.459 18.8H129.898V19.8ZM148.594 50.504L147.739 51.0241L148.604 52.4442L149.453 51.0147L148.594 50.504ZM166.834 19.8V18.8H166.264L165.974 19.2893L166.834 19.8ZM179.222 19.8L180.222 19.7971L180.219 18.8H179.222V19.8ZM179.374 72H165.542V74H179.374V72ZM166.542 72.9946L166.39 44.7986L164.39 44.8094L164.542 73.0054L166.542 72.9946ZM164.531 44.292L150.851 67.244L152.569 68.268L166.249 45.316L164.531 44.292ZM151.71 66.756H145.022V68.756H151.71V66.756ZM145.874 67.2334L132.27 45.0414L130.565 46.0866L144.169 68.2786L145.874 67.2334ZM130.418 45.564V73H132.418V45.564H130.418ZM131.418 72H117.51V74H131.418V72ZM118.51 73V19.8H116.51V73H118.51ZM117.51 20.8H129.898V18.8H117.51V20.8ZM129.043 20.3201L147.739 51.0241L149.448 49.9839L130.752 19.2799L129.043 20.3201ZM149.453 51.0147L167.693 20.3107L165.974 19.2893L147.734 49.9933L149.453 51.0147ZM166.834 20.8H179.222V18.8H166.834V20.8ZM178.222 19.8029L178.374 73.0029L180.374 72.9971L180.222 19.7971L178.222 19.8029ZM186.981 73H185.981V74H186.981V73ZM186.981 19.8V18.8H185.981V19.8H186.981ZM202.029 19.8H203.029V18.8H202.029V19.8ZM202.029 73V74H203.029V73H202.029ZM194.505 14.62C192.543 14.62 190.924 13.9305 189.797 12.8039C188.671 11.6772 187.981 10.058 187.981 8.096H185.981C185.981 10.542 186.85 12.6848 188.383 14.2181C189.916 15.7514 192.059 16.62 194.505 16.62V14.62ZM187.981 8.096C187.981 4.32303 190.643 1.648 194.505 1.648V-0.352002C189.552 -0.352002 185.981 3.20496 185.981 8.096H187.981ZM194.505 1.648C198.368 1.648 201.029 4.32303 201.029 8.096H203.029C203.029 3.20496 199.459 -0.352002 194.505 -0.352002V1.648ZM201.029 8.096C201.029 10.058 200.34 11.6772 199.213 12.8039C198.086 13.9305 196.467 14.62 194.505 14.62V16.62C196.951 16.62 199.094 15.7514 200.627 14.2181C202.161 12.6848 203.029 10.542 203.029 8.096H201.029ZM187.981 73V19.8H185.981V73H187.981ZM186.981 20.8H202.029V18.8H186.981V20.8ZM201.029 19.8V73H203.029V19.8H201.029ZM202.029 72H186.981V74H202.029V72ZM245.567 19.8V18.8H244.567V19.8H245.567ZM260.311 19.8H261.311V18.8H260.311V19.8ZM260.311 73V74H261.311V73H260.311ZM247.923 73L247.153 73.6379L247.453 74H247.923V73ZM224.439 44.652L225.209 44.014L223.439 41.8774V44.652H224.439ZM224.439 73V74H225.439V73H224.439ZM209.695 73H208.695V74H209.695V73ZM209.695 19.8V18.8H208.695V19.8H209.695ZM222.083 19.8L222.853 19.162L222.553 18.8H222.083V19.8ZM245.567 48.148L244.797 48.7859L246.567 50.9226V48.148H245.567ZM245.567 20.8H260.311V18.8H245.567V20.8ZM259.311 19.8V73H261.311V19.8H259.311ZM260.311 72H247.923V74H260.311V72ZM248.693 72.3621L225.209 44.014L223.669 45.2899L247.153 73.6379L248.693 72.3621ZM223.439 44.652V73H225.439V44.652H223.439ZM224.439 72H209.695V74H224.439V72ZM210.695 73V19.8H208.695V73H210.695ZM209.695 20.8H222.083V18.8H209.695V20.8ZM221.313 20.4379L244.797 48.7859L246.337 47.5101L222.853 19.162L221.313 20.4379ZM246.567 48.148V19.8H244.567V48.148H246.567ZM303.53 59.852L303.945 60.7615L304.53 60.4944V59.852H303.53ZM303.53 45.26V44.26H302.53V45.26H303.53ZM316.83 45.26H317.83V44.26H316.83V45.26ZM316.83 67.3L317.412 68.1131L317.83 67.8139V67.3H316.83ZM318.046 28.464L318.717 29.2055L319.428 28.5622L318.815 27.8247L318.046 28.464ZM308.47 37.128L307.728 37.7993L308.399 38.5401L309.141 37.8695L308.47 37.128ZM304.53 59.852V45.26H302.53V59.852H304.53ZM303.53 46.26H316.83V44.26H303.53V46.26ZM315.83 45.26V67.3H317.83V45.26H315.83ZM316.247 66.4869C310.286 70.7556 302.062 73.064 294.486 73.064V75.064C302.414 75.064 311.061 72.6604 317.412 68.1131L316.247 66.4869ZM294.486 73.064C278.029 73.064 266.15 61.9765 266.15 46.4H264.15C264.15 63.1995 277.047 75.064 294.486 75.064V73.064ZM266.15 46.4C266.15 30.8301 278.022 19.736 294.79 19.736V17.736C277.054 17.736 264.15 29.5939 264.15 46.4H266.15ZM294.79 19.736C304.512 19.736 312.26 23.0683 317.277 29.1033L318.815 27.8247C313.344 21.2437 304.98 17.736 294.79 17.736V19.736ZM317.375 27.7225L307.799 36.3865L309.141 37.8695L318.717 29.2055L317.375 27.7225ZM309.211 36.4567C305.385 32.2324 300.941 30.2 295.55 30.2V32.2C300.342 32.2 304.258 33.9676 307.728 37.7993L309.211 36.4567ZM295.55 30.2C290.766 30.2 286.698 31.7789 283.824 34.6431C280.949 37.5079 279.35 41.5765 279.35 46.4H281.35C281.35 42.0275 282.791 38.4961 285.235 36.0599C287.681 33.6231 291.213 32.2 295.55 32.2V30.2ZM279.35 46.4C279.35 51.1145 280.952 55.1772 283.798 58.065C286.647 60.9543 290.675 62.6 295.398 62.6V60.6C291.152 60.6 287.656 59.1297 285.223 56.661C282.788 54.1908 281.35 50.6535 281.35 46.4H279.35ZM295.398 62.6C298.345 62.6 301.147 62.0406 303.945 60.7615L303.114 58.9425C300.592 60.0954 298.075 60.6 295.398 60.6V62.6ZM0.596 161.212L-0.317553 160.805L-0.653564 161.56L0.0242075 162.032L0.596 161.212ZM5.536 150.116L6.08759 149.282L5.10269 148.631L4.62245 149.709L5.536 150.116ZM44.372 116.372L45.2956 116.755L45.6314 115.946L44.8735 115.507L44.372 116.372ZM39.736 127.544L39.2627 128.425L40.2361 128.948L40.6596 127.927L39.736 127.544ZM23.016 166.064C14.4112 166.064 5.967 163.737 1.16779 160.392L0.0242075 162.032C5.257 165.679 14.1408 168.064 23.016 168.064V166.064ZM1.50955 161.619L6.44955 150.523L4.62245 149.709L-0.317553 160.805L1.50955 161.619ZM4.98441 150.95C9.85646 154.172 16.7356 156.36 23.092 156.36V154.36C17.1364 154.36 10.6395 152.292 6.08759 149.282L4.98441 150.95ZM23.092 156.36C26.2705 156.36 28.6363 155.92 30.2415 155.04C31.9238 154.118 32.756 152.713 32.756 151.028H30.756C30.756 151.927 30.3722 152.688 29.2805 153.286C28.1117 153.926 26.1455 154.36 23.092 154.36V156.36ZM32.756 151.028C32.756 149.617 32.1012 148.524 31.09 147.696C30.1168 146.899 28.7924 146.324 27.3377 145.853C25.8705 145.378 24.1743 144.98 22.4047 144.582C20.6207 144.181 18.7543 143.778 16.886 143.287C13.1356 142.303 9.53105 140.999 6.86965 138.81C4.26159 136.663 2.508 133.625 2.508 128.988H0.508C0.508 134.231 2.53541 137.833 5.59885 140.354C8.60895 142.831 12.5664 144.221 16.378 145.222C18.2907 145.724 20.2053 146.137 21.966 146.533C23.7411 146.932 25.3533 147.312 26.7218 147.755C28.1028 148.202 29.1415 148.685 29.8225 149.243C30.4655 149.77 30.756 150.33 30.756 151.028H32.756ZM2.508 128.988C2.508 124.531 4.31613 120.51 7.984 117.581C11.671 114.637 17.3175 112.736 25.068 112.736V110.736C17.0105 110.736 10.877 112.711 6.736 116.018C2.57587 119.34 0.508 123.945 0.508 128.988H2.508ZM25.068 112.736C31.8535 112.736 38.814 114.306 43.8705 117.237L44.8735 115.507C39.442 112.358 32.1145 110.736 25.068 110.736V112.736ZM43.4484 115.989L38.8124 127.161L40.6596 127.927L45.2956 116.755L43.4484 115.989ZM40.2093 126.663C35.0018 123.865 29.8241 122.44 24.992 122.44V124.44C29.4319 124.44 34.2862 125.751 39.2627 128.425L40.2093 126.663ZM24.992 122.44C21.7528 122.44 19.3847 122.982 17.7956 123.993C16.1443 125.044 15.404 126.561 15.404 128.228H17.404C17.404 127.235 17.8037 126.358 18.8694 125.68C19.9973 124.962 21.9232 124.44 24.992 124.44V122.44ZM15.404 128.228C15.404 129.615 16.0717 130.679 17.0814 131.475C18.0527 132.24 19.3729 132.79 20.8213 133.241C22.283 133.695 23.9736 134.077 25.7376 134.462C27.5155 134.85 29.3775 135.242 31.24 135.723C34.9798 136.688 38.5746 137.978 41.2284 140.149C43.8287 142.277 45.576 145.291 45.576 149.888H47.576C47.576 144.681 45.5518 141.102 42.4949 138.601C39.4914 136.144 35.5432 134.768 31.74 133.786C29.831 133.293 27.9215 132.891 26.1637 132.508C24.3918 132.122 22.7824 131.756 21.4154 131.331C20.0352 130.901 18.9982 130.439 18.3195 129.904C17.6792 129.399 17.404 128.874 17.404 128.228H15.404ZM45.576 149.888C45.576 154.225 43.7721 158.23 40.0988 161.173C36.4095 164.128 30.7618 166.064 23.016 166.064V168.064C31.0782 168.064 37.2105 166.048 41.3492 162.734C45.5039 159.406 47.576 154.823 47.576 149.888H45.576ZM77.315 166.064C60.779 166.064 48.751 154.745 48.751 139.4H46.751C46.751 155.975 59.8031 168.064 77.315 168.064V166.064ZM48.751 139.4C48.751 124.055 60.779 112.736 77.315 112.736V110.736C59.8031 110.736 46.751 122.825 46.751 139.4H48.751ZM77.315 112.736C93.8511 112.736 105.879 124.055 105.879 139.4H107.879C107.879 122.825 94.827 110.736 77.315 110.736V112.736ZM105.879 139.4C105.879 154.745 93.8511 166.064 77.315 166.064V168.064C94.827 168.064 107.879 155.975 107.879 139.4H105.879ZM77.315 155.6C85.9471 155.6 92.679 149.124 92.679 139.4H90.679C90.679 148.068 84.7949 153.6 77.315 153.6V155.6ZM92.679 139.4C92.679 129.676 85.9471 123.2 77.315 123.2V125.2C84.7949 125.2 90.679 130.732 90.679 139.4H92.679ZM77.315 123.2C68.6829 123.2 61.951 129.676 61.951 139.4H63.951C63.951 130.732 69.8351 125.2 77.315 125.2V123.2ZM61.951 139.4C61.951 149.124 68.6829 155.6 77.315 155.6V153.6C69.8351 153.6 63.951 148.068 63.951 139.4H61.951ZM138.548 166.064C122.012 166.064 109.984 154.745 109.984 139.4H107.984C107.984 155.975 121.037 168.064 138.548 168.064V166.064ZM109.984 139.4C109.984 124.055 122.012 112.736 138.548 112.736V110.736C121.037 110.736 107.984 122.825 107.984 139.4H109.984ZM138.548 112.736C155.085 112.736 167.112 124.055 167.112 139.4H169.112C169.112 122.825 156.06 110.736 138.548 110.736V112.736ZM167.112 139.4C167.112 154.745 155.085 166.064 138.548 166.064V168.064C156.06 168.064 169.112 155.975 169.112 139.4H167.112ZM138.548 155.6C147.181 155.6 153.912 149.124 153.912 139.4H151.912C151.912 148.068 146.028 153.6 138.548 153.6V155.6ZM153.912 139.4C153.912 129.676 147.181 123.2 138.548 123.2V125.2C146.028 125.2 151.912 130.732 151.912 139.4H153.912ZM138.548 123.2C129.916 123.2 123.184 129.676 123.184 139.4H125.184C125.184 130.732 131.069 125.2 138.548 125.2V123.2ZM123.184 139.4C123.184 149.124 129.916 155.6 138.548 155.6V153.6C131.069 153.6 125.184 148.068 125.184 139.4H123.184ZM208.826 112.8V111.8H207.826V112.8H208.826ZM223.57 112.8H224.57V111.8H223.57V112.8ZM223.57 166V167H224.57V166H223.57ZM211.182 166L210.412 166.638L210.712 167H211.182V166ZM187.698 137.652L188.468 137.014L186.698 134.877V137.652H187.698ZM187.698 166V167H188.698V166H187.698ZM172.954 166H171.954V167H172.954V166ZM172.954 112.8V111.8H171.954V112.8H172.954ZM185.342 112.8L186.112 112.162L185.812 111.8H185.342V112.8ZM208.826 141.148L208.056 141.786L209.826 143.923V141.148H208.826ZM208.826 113.8H223.57V111.8H208.826V113.8ZM222.57 112.8V166H224.57V112.8H222.57ZM223.57 165H211.182V167H223.57V165ZM211.952 165.362L188.468 137.014L186.928 138.29L210.412 166.638L211.952 165.362ZM186.698 137.652V166H188.698V137.652H186.698ZM187.698 165H172.954V167H187.698V165ZM173.954 166V112.8H171.954V166H173.954ZM172.954 113.8H185.342V111.8H172.954V113.8ZM184.572 113.438L208.056 141.786L209.596 140.51L186.112 112.162L184.572 113.438ZM209.826 141.148V112.8H207.826V141.148H209.826ZM236.54 165.684C232.205 165.684 228.876 162.537 228.876 158.096H226.876C226.876 163.687 231.148 167.684 236.54 167.684V165.684ZM228.876 158.096C228.876 155.769 229.726 153.909 231.074 152.627C232.427 151.339 234.339 150.584 236.54 150.584V148.584C233.878 148.584 231.457 149.501 229.695 151.177C227.927 152.859 226.876 155.255 226.876 158.096H228.876ZM236.54 150.584C238.783 150.584 240.692 151.34 242.033 152.624C243.37 153.903 244.204 155.763 244.204 158.096H246.204C246.204 155.261 245.177 152.865 243.416 151.18C241.661 149.499 239.238 148.584 236.54 148.584V150.584ZM244.204 158.096C244.204 162.542 240.946 165.684 236.54 165.684V167.684C242.015 167.684 246.204 163.682 246.204 158.096H244.204ZM255.024 165.684C250.689 165.684 247.36 162.537 247.36 158.096H245.36C245.36 163.687 249.631 167.684 255.024 167.684V165.684ZM247.36 158.096C247.36 155.769 248.209 153.909 249.557 152.627C250.911 151.339 252.822 150.584 255.024 150.584V148.584C252.362 148.584 249.941 149.501 248.179 151.177C246.41 152.859 245.36 155.255 245.36 158.096H247.36ZM255.024 150.584C257.267 150.584 259.175 151.34 260.517 152.624C261.853 153.903 262.688 155.763 262.688 158.096H264.688C264.688 155.261 263.66 152.865 261.9 151.18C260.144 149.499 257.721 148.584 255.024 148.584V150.584ZM262.688 158.096C262.688 162.542 259.429 165.684 255.024 165.684V167.684C260.499 167.684 264.688 163.682 264.688 158.096H262.688ZM273.507 165.684C269.172 165.684 265.843 162.537 265.843 158.096H263.843C263.843 163.687 268.114 167.684 273.507 167.684V165.684ZM265.843 158.096C265.843 155.769 266.693 153.909 268.04 152.627C269.394 151.339 271.306 150.584 273.507 150.584V148.584C270.845 148.584 268.424 149.501 266.662 151.177C264.894 152.859 263.843 155.255 263.843 158.096H265.843ZM273.507 150.584C275.75 150.584 277.659 151.34 279 152.624C280.337 153.903 281.171 155.763 281.171 158.096H283.171C283.171 155.261 282.144 152.865 280.383 151.18C278.628 149.499 276.205 148.584 273.507 148.584V150.584ZM281.171 158.096C281.171 162.542 277.913 165.684 273.507 165.684V167.684C278.982 167.684 283.171 163.682 283.171 158.096H281.171Z" fill="white"/>
</svg>
