<svg width="31" height="24" viewBox="0 0 31 24" fill="none" xmlns="http://www.w3.org/2000/svg">
<g id="Img" clip-path="url(#clip0_999_2981)">
<path id="Vector" opacity="0.2" fill-rule="evenodd" clip-rule="evenodd" d="M19.9329 2.19824C18.9941 2.8573 18.2278 3.7329 17.6992 4.75089C17.1705 5.76888 16.8949 6.89928 16.8958 8.04637C16.8958 9.77481 17.5092 11.3603 18.5294 12.5949H5.19953C4.85486 12.5949 4.52431 12.7318 4.28059 12.9755C4.03687 13.2193 3.89995 13.5498 3.89995 13.8945V15.1941C3.89995 15.5387 4.03687 15.8693 4.28059 16.113C4.52431 16.3567 4.85486 16.4937 5.19953 16.4937H25.9929C26.3375 16.4937 26.6681 16.3567 26.9118 16.113C27.1555 15.8693 27.2924 15.5387 27.2924 15.1941V14.4143C28.329 13.8837 29.2211 13.109 29.8916 12.1569V20.3924C29.8916 21.0818 29.6178 21.7429 29.1303 22.2303C28.6429 22.7177 27.9818 22.9916 27.2924 22.9916H3.89995C3.21061 22.9916 2.5495 22.7177 2.06206 22.2303C1.57462 21.7429 1.30078 21.0818 1.30078 20.3924V4.79741C1.30078 4.10807 1.57462 3.44696 2.06206 2.95952C2.5495 2.47208 3.21061 2.19824 3.89995 2.19824H19.9329ZM28.6492 2.57902C28.9598 2.84154 29.247 3.13004 29.5095 3.44064C29.2946 3.08968 28.9999 2.79445 28.6492 2.57902Z" fill="#F3F3F3"/>
<path id="Vector_2" opacity="0.4" fill-rule="evenodd" clip-rule="evenodd" d="M17.6755 4.79761C17.0604 5.99963 16.7999 7.35183 16.9244 8.69636H1.30078V4.79761H17.6755Z" fill="#F3F3F3"/>
<path id="Vector_3" fill-rule="evenodd" clip-rule="evenodd" d="M24.0422 15.1941C22.1465 15.1941 20.3285 14.441 18.988 13.1006C17.6476 11.7601 16.8945 9.94208 16.8945 8.04639C16.8945 6.1507 17.6476 4.33265 18.988 2.9922C20.3285 1.65174 22.1465 0.898682 24.0422 0.898682C25.9379 0.898682 27.756 1.65174 29.0964 2.9922C30.4369 4.33265 31.1899 6.1507 31.1899 8.04639C31.1899 9.94208 30.4369 11.7601 29.0964 13.1006C27.756 14.441 25.9379 15.1941 24.0422 15.1941ZM21.2039 5.08464H20.3969L18.4267 6.08532V7.10679L19.9888 6.29065V11.0081H21.2143V5.08334H21.2039V5.08464ZM23.5523 5.90208C24.1345 5.90208 24.5426 6.22827 24.5426 6.69872C24.5426 7.20946 24.0617 7.56684 23.3678 7.56684H23.0624V8.43497H23.4301C24.1644 8.43497 24.6647 8.80145 24.6647 9.33298C24.6647 9.84371 24.1748 10.1907 23.4808 10.1907C22.9701 10.1907 22.4593 10.027 21.9291 9.70986V10.7313C22.5009 10.977 23.0728 11.1095 23.6342 11.1095C24.9714 11.1095 25.8902 10.4259 25.8902 9.43565C25.8902 8.74037 25.4614 8.17895 24.7466 7.95412C25.36 7.75008 25.7577 7.20946 25.7577 6.59605C25.7577 5.63696 24.9104 4.98327 23.6849 4.98327C23.1323 4.98927 22.5868 5.10732 22.0812 5.33026V6.33094C22.5724 6.05543 23.0727 5.90208 23.5523 5.90208ZM27.9631 8.12826C28.709 8.12826 29.2289 8.56752 29.2289 9.13934C29.2289 9.74105 28.709 10.1595 27.9631 10.1595C27.5134 10.1595 27.0443 10.0166 26.5647 9.72155V10.7729C27.0651 10.9977 27.5758 11.1108 28.0761 11.1108C28.3413 11.1108 28.5856 11.0692 28.8208 11.0068C29.3667 10.1234 29.6565 9.10568 29.6577 8.06718L29.6382 7.63832C29.2585 7.41319 28.8229 7.29969 28.3815 7.31083C28.1867 7.31012 27.9921 7.32402 27.7993 7.35241V6.02424H29.2705C29.1427 5.69733 28.9852 5.38282 28.8 5.08464H26.7376V8.30111C27.1375 8.19365 27.5491 8.1356 27.9631 8.12826Z" fill="#F3F3F3"/>
</g>
<defs>
<clipPath id="clip0_999_2981">
<rect width="31" height="24" fill="white"/>
</clipPath>
</defs>
</svg>
