<svg width="100" height="26" viewBox="0 0 100 26" fill="none" xmlns="http://www.w3.org/2000/svg">
<g id="PaypalLogo.svg" clip-path="url(#clip0_1093_3432)">
<g id="Clip path group">
<mask id="mask0_1093_3432" style="mask-type:luminance" maskUnits="userSpaceOnUse" x="0" y="0" width="100" height="25">
<g id="paypal-logo">
<path id="Vector" d="M100 0.5H0V24.9192H100V0.5Z" fill="white"/>
</g>
</mask>
<g mask="url(#mask0_1093_3432)">
<g id="Group">
<path id="Vector_2" d="M38.0402 11.1434C37.7365 13.1289 36.227 13.1289 34.7538 13.1289H33.9174L34.5044 9.4209C34.5198 9.31198 34.5743 9.21238 34.6577 9.14065C34.7411 9.06893 34.8478 9.02998 34.9577 9.03106H35.3408C36.338 9.03106 37.2809 9.03106 37.7682 9.59995C38.0515 9.93992 38.1399 10.4408 38.0402 11.1434ZM37.401 5.95996H31.8572C31.674 5.96025 31.4969 6.02558 31.3574 6.1443C31.218 6.26302 31.1252 6.42741 31.0956 6.60818L28.8586 20.7987C28.8469 20.8645 28.8499 20.9321 28.8674 20.9966C28.8848 21.0611 28.9164 21.121 28.9597 21.1719C29.003 21.2228 29.0571 21.2635 29.118 21.291C29.1788 21.3186 29.2451 21.3324 29.3119 21.3313H31.9546C32.1377 21.3314 32.3147 21.2662 32.4539 21.1473C32.5931 21.0285 32.6853 20.8639 32.7139 20.6831L33.3168 16.855C33.3454 16.674 33.4375 16.5091 33.5766 16.3899C33.7158 16.2707 33.8928 16.205 34.0761 16.2045H35.8281C39.4749 16.2045 41.5782 14.4412 42.1267 10.9462C42.3737 9.41637 42.138 8.22646 41.4218 7.37425C40.6376 6.44953 39.2414 5.95996 37.3897 5.95996H37.401Z" fill="white"/>
<path id="Vector_3" d="M50.2407 16.2364C50.1393 16.9514 49.7788 17.6043 49.2276 18.071C48.6765 18.5377 47.9732 18.7858 47.2512 18.768C46.4806 18.768 45.8664 18.521 45.472 18.0518C45.2704 17.7912 45.1285 17.4894 45.0564 17.1678C44.9844 16.8463 44.9839 16.5128 45.055 16.191C45.1555 15.4795 45.5111 14.8286 46.0556 14.3596C46.6001 13.8906 47.2964 13.6353 48.015 13.6412C48.3446 13.6235 48.6741 13.6789 48.9797 13.8036C49.2853 13.9282 49.5596 14.1189 49.7829 14.362C49.9908 14.6224 50.1394 14.925 50.2185 15.2487C50.2976 15.5724 50.3051 15.9094 50.2407 16.2364ZM53.9351 11.0801H51.2833C51.1737 11.0789 51.0673 11.1176 50.9839 11.1888C50.9006 11.2601 50.8459 11.3592 50.83 11.4677L50.7144 12.2088L50.5286 11.9414C49.9551 11.1073 48.6746 10.8308 47.3985 10.8308C44.4702 10.8308 41.9589 13.0474 41.4807 16.1593C41.2291 17.7119 41.5895 19.1942 42.4689 20.239C43.2758 21.1909 44.4317 21.5876 45.8075 21.5876C46.4895 21.5944 47.1658 21.4634 47.796 21.2024C48.4261 20.9415 48.9971 20.556 49.4746 20.069L49.3568 20.8056C49.3447 20.8716 49.3474 20.9394 49.3647 21.0042C49.382 21.069 49.4135 21.1292 49.4568 21.1803C49.5002 21.2315 49.5544 21.2724 49.6155 21.3001C49.6766 21.3278 49.743 21.3416 49.8101 21.3405H52.199C52.3823 21.3405 52.5596 21.275 52.6989 21.1557C52.8381 21.0364 52.9301 20.8712 52.9582 20.69L54.3907 11.6241C54.4043 11.5572 54.4027 11.4882 54.386 11.4221C54.3693 11.356 54.3379 11.2945 54.2941 11.2422C54.2503 11.1899 54.1953 11.1482 54.1331 11.1201C54.071 11.0921 54.0033 11.0784 53.9351 11.0801Z" fill="white"/>
<path id="Vector_4" d="M68.0443 11.0801H65.3834C65.2579 11.0795 65.1342 11.1098 65.0231 11.1683C64.9121 11.2268 64.8171 11.3117 64.7465 11.4155L61.0725 16.8256L59.5155 11.6286C59.4681 11.47 59.3709 11.331 59.2381 11.2321C59.1054 11.1333 58.9443 11.08 58.7789 11.0801H56.1724C56.0984 11.0781 56.025 11.0943 55.9587 11.1272C55.8924 11.1601 55.8352 11.2088 55.792 11.2689C55.7489 11.3291 55.7211 11.3989 55.7112 11.4722C55.7012 11.5456 55.7094 11.6203 55.735 11.6897L58.6678 20.3024L55.9095 24.194C55.8568 24.2622 55.8248 24.3441 55.817 24.4299C55.8092 24.5157 55.826 24.602 55.8655 24.6786C55.905 24.7551 55.9655 24.8189 56.0399 24.8623C56.1143 24.9058 56.1996 24.9271 56.2857 24.9238H58.9466C59.0708 24.9235 59.1932 24.8933 59.3032 24.8357C59.4133 24.7781 59.5079 24.6948 59.5789 24.5929L68.4251 11.8008C68.4753 11.7322 68.5052 11.6509 68.5113 11.5661C68.5175 11.4813 68.4998 11.3965 68.4601 11.3214C68.4203 11.2462 68.3603 11.1837 68.2868 11.1411C68.2133 11.0984 68.1292 11.0773 68.0443 11.0801Z" fill="white"/>
<path id="Vector_5" d="M77.5014 11.1434C77.2 13.1289 75.6882 13.1289 74.215 13.1289H73.3809L73.968 9.4209C73.9834 9.31198 74.0378 9.21238 74.1212 9.14065C74.2046 9.06893 74.3113 9.02998 74.4213 9.03106H74.8043C75.8038 9.03106 76.7467 9.03106 77.234 9.59995C77.5241 9.93992 77.6125 10.4408 77.5014 11.1434ZM76.8623 5.95996H71.3298C71.1469 5.96033 70.9701 6.02574 70.831 6.14449C70.6919 6.26325 70.5995 6.4276 70.5705 6.60818L68.3312 20.7987C68.3195 20.8645 68.3225 20.9321 68.34 20.9966C68.3574 21.0611 68.389 21.121 68.4323 21.1719C68.4756 21.2228 68.5296 21.2635 68.5905 21.291C68.6514 21.3186 68.7177 21.3324 68.7845 21.3313H71.6244C71.7523 21.3313 71.876 21.2856 71.9732 21.2025C72.0704 21.1194 72.1348 21.0044 72.1548 20.878L72.7894 16.855C72.8179 16.674 72.9101 16.5091 73.0492 16.3899C73.1884 16.2707 73.3654 16.205 73.5487 16.2045H75.3007C78.9452 16.2045 81.0485 14.4412 81.5992 10.9462C81.8486 9.41637 81.5992 8.22646 80.8921 7.37425C80.1102 6.44953 78.7163 5.95996 76.8623 5.95996Z" fill="#ADCFE8"/>
<path id="Vector_6" d="M89.7168 16.2364C89.6154 16.9514 89.2549 17.6043 88.7038 18.071C88.1526 18.5377 87.4493 18.7858 86.7273 18.768C85.959 18.768 85.3425 18.521 84.9459 18.0518C84.7457 17.7904 84.605 17.4885 84.5333 17.1672C84.4617 16.8458 84.4609 16.5127 84.5311 16.191C84.6323 15.4781 84.9893 14.8263 85.5356 14.3571C86.0819 13.888 86.7802 13.6335 87.5002 13.6412C87.8298 13.6235 88.1592 13.6789 88.4649 13.8036C88.7705 13.9282 89.0448 14.1189 89.2681 14.362C89.4748 14.6229 89.6221 14.9258 89.6996 15.2496C89.7771 15.5733 89.783 15.9101 89.7168 16.2364ZM93.409 11.0801H90.7549C90.6452 11.0789 90.5389 11.1176 90.4555 11.1888C90.3722 11.2601 90.3175 11.3592 90.3016 11.4677L90.186 12.2088L89.9979 11.9414C89.4245 11.1073 88.1462 10.8308 86.8701 10.8308C83.9418 10.8308 81.4419 13.0474 80.9546 16.1593C80.7007 17.7119 81.0611 19.1942 81.9405 20.239C82.7496 21.1909 83.9033 21.5876 85.2791 21.5876C85.9611 21.5944 86.6374 21.4634 87.2676 21.2024C87.8977 20.9415 88.4687 20.556 88.9462 20.069L88.8284 20.8056C88.8163 20.8716 88.819 20.9394 88.8363 21.0042C88.8536 21.069 88.8851 21.1292 88.9284 21.1803C88.9718 21.2315 89.026 21.2724 89.0871 21.3001C89.1481 21.3278 89.2146 21.3416 89.2817 21.3405H91.6683C91.8516 21.3405 92.029 21.275 92.1682 21.1557C92.3074 21.0364 92.3994 20.8712 92.4276 20.69L93.86 11.6241C93.8737 11.5571 93.8721 11.4878 93.8552 11.4215C93.8384 11.3552 93.8067 11.2936 93.7627 11.2413C93.7187 11.189 93.6633 11.1473 93.6009 11.1194C93.5385 11.0915 93.4705 11.078 93.4022 11.0801H93.409Z" fill="#ADCFE8"/>
<path id="Vector_7" d="M96.5271 6.36119L94.2492 20.7988C94.2375 20.8646 94.2405 20.9321 94.258 20.9967C94.2755 21.0612 94.307 21.121 94.3503 21.1719C94.3936 21.2228 94.4477 21.2635 94.5086 21.2911C94.5695 21.3187 94.6357 21.3324 94.7025 21.3314H96.9872C97.1702 21.3315 97.3472 21.2662 97.4864 21.1474C97.6256 21.0286 97.7178 20.8639 97.7464 20.6832L99.9857 6.49264C99.9971 6.42684 99.9944 6.35925 99.977 6.29474C99.9595 6.23022 99.928 6.17037 99.8846 6.11947C99.8413 6.06857 99.7873 6.02788 99.7264 6.00031C99.6655 5.97274 99.5993 5.95898 99.5324 5.96002H96.9804C96.8686 5.95927 96.7606 5.99981 96.6769 6.07385C96.5933 6.14789 96.5399 6.25021 96.5271 6.36119Z" fill="#ADCFE8"/>
<path id="Vector_8" d="M5.87966 24.0898L6.31256 21.4017L5.3697 21.3791H0.859375L3.98714 1.54498C3.99901 1.4847 4.03001 1.42985 4.07553 1.38859C4.12239 1.34891 4.18185 1.32721 4.24325 1.32739H11.8315C14.3518 1.32739 16.0902 1.85322 16.9991 2.88674C17.4008 3.32658 17.6854 3.86052 17.8264 4.43929C17.965 5.14574 17.965 5.87241 17.8264 6.57886V6.64005V7.18628L18.2525 7.4288C18.5773 7.59339 18.8692 7.81617 19.1137 8.08608C19.4924 8.53115 19.7354 9.07547 19.8141 9.65449C19.9108 10.4101 19.877 11.1767 19.7144 11.921C19.5538 12.8298 19.2371 13.704 18.7783 14.5048C18.4044 15.141 17.9019 15.6921 17.3028 16.123C16.7002 16.5439 16.0258 16.8511 15.3128 17.0296C14.4972 17.2298 13.6595 17.3258 12.8197 17.3152H12.2349C11.8116 17.3158 11.4024 17.4672 11.0805 17.7421C10.7586 18.0171 10.5452 18.3976 10.4784 18.8156L10.4331 19.0582L9.68511 23.7951L9.65111 23.9697C9.65075 23.9885 9.64654 24.007 9.63874 24.0242C9.63095 24.0413 9.61973 24.0567 9.60578 24.0694C9.58368 24.0883 9.55556 24.0988 9.52645 24.0988L5.87966 24.0898Z" fill="#253B80"/>
<path id="Vector_9" d="M18.6421 6.5C18.6195 6.64505 18.5923 6.79238 18.5651 6.9533C17.5633 12.0846 14.1386 13.8638 9.76428 13.8638H7.53858C7.28162 13.8631 7.03281 13.954 6.83677 14.1201C6.64073 14.2863 6.51028 14.5168 6.4688 14.7704L5.33555 22.0005L5.00691 24.063C4.99414 24.1442 4.99911 24.2272 5.02149 24.3063C5.04387 24.3854 5.08312 24.4587 5.13653 24.5212C5.18995 24.5836 5.25627 24.6338 5.33093 24.6682C5.40559 24.7025 5.48681 24.7203 5.569 24.7203H9.51723C9.74352 24.7205 9.96249 24.6401 10.1348 24.4935C10.3072 24.3469 10.4217 24.1436 10.4578 23.9202L10.4963 23.7185L11.2398 18.9997L11.2874 18.7413C11.3234 18.5185 11.4377 18.3159 11.6096 18.1697C11.7816 18.0235 12 17.9433 12.2257 17.9435H12.8172C16.6431 17.9435 19.6394 16.3887 20.5233 11.8942C20.8882 10.0153 20.7001 8.44692 19.7323 7.3454C19.4241 6.99886 19.0545 6.71224 18.6421 6.5Z" fill="#ADCFE8"/>
<path id="Vector_10" d="M17.6028 6.28648C17.4486 6.24115 17.2923 6.20035 17.1291 6.16409C16.9659 6.12783 16.8004 6.0961 16.6282 6.0689C15.9788 5.96906 15.3224 5.92131 14.6654 5.92611H8.71586C8.57394 5.92648 8.43385 5.95822 8.30562 6.01903C8.16673 6.08538 8.04618 6.18472 7.95452 6.30838C7.86286 6.43204 7.80288 6.57626 7.7798 6.72845L6.51282 14.7473L6.47656 14.9739C6.51804 14.7203 6.64849 14.4898 6.84453 14.3237C7.04057 14.1575 7.28938 14.0667 7.54634 14.0673H9.77204C14.1464 14.0673 17.571 12.2904 18.5728 7.15228C18.6023 7.00043 18.6272 6.8531 18.6499 6.69898C18.3857 6.56088 18.1105 6.4449 17.8271 6.35221L17.6028 6.28648Z" fill="#E6F0F9"/>
<path id="Vector_11" d="M7.77949 6.72833C7.81416 6.50512 7.92761 6.3017 8.09933 6.15493C8.27104 6.00816 8.48965 5.92775 8.71554 5.92826H14.6651C15.3221 5.92346 15.9784 5.97121 16.6278 6.07105C16.8001 6.09825 16.9678 6.12998 17.1287 6.16398C17.2897 6.19797 17.4483 6.24104 17.6024 6.28636L17.8291 6.35663C18.1124 6.44931 18.3876 6.5653 18.6518 6.7034C18.951 4.80408 18.6518 3.51217 17.6228 2.3404C16.4896 1.05076 14.4497 0.500005 11.8342 0.500005H4.24149C3.98426 0.499248 3.73515 0.590042 3.53873 0.756144C3.34232 0.922246 3.21141 1.15282 3.16944 1.4066L0.00767095 21.456C-0.00661598 21.5484 -0.000900023 21.6427 0.0244325 21.7327C0.0497651 21.8227 0.0941233 21.9062 0.154507 21.9775C0.21489 22.0488 0.28989 22.1064 0.374435 22.1462C0.45898 22.1861 0.551097 22.2073 0.644556 22.2085H5.33619L6.51252 14.7472L7.77949 6.72833Z" fill="white"/>
</g>
</g>
</g>
</g>
<defs>
<clipPath id="clip0_1093_3432">
<rect width="100" height="25" fill="white" transform="translate(0 0.5)"/>
</clipPath>
</defs>
</svg>
