<svg width="100" height="25" viewBox="0 0 100 25" fill="none" xmlns="http://www.w3.org/2000/svg">
<g id="PaypalLogo.svg" clip-path="url(#clip0_372_2664)">
<g id="Clip path group">
<mask id="mask0_372_2664" style="mask-type:luminance" maskUnits="userSpaceOnUse" x="0" y="0" width="100" height="25">
<g id="paypal-logo">
<path id="Vector" d="M100 0H0V24.4192H100V0Z" fill="white"/>
</g>
</mask>
<g mask="url(#mask0_372_2664)">
<g id="Group">
<path id="Vector_2" d="M38.0426 10.6434C37.7389 12.6289 36.2294 12.6289 34.7562 12.6289H33.9198L34.5068 8.9209C34.5222 8.81198 34.5767 8.71238 34.6601 8.64065C34.7435 8.56893 34.8502 8.52998 34.9601 8.53106H35.3432C36.3404 8.53106 37.2833 8.53106 37.7706 9.09995C38.0539 9.43992 38.1423 9.94082 38.0426 10.6434ZM37.4034 5.45996H31.8596C31.6764 5.46025 31.4993 5.52558 31.3598 5.6443C31.2204 5.76302 31.1276 5.92741 31.098 6.10818L28.861 20.2987C28.8493 20.3645 28.8523 20.4321 28.8698 20.4966C28.8872 20.5611 28.9188 20.621 28.9621 20.6719C29.0054 20.7228 29.0595 20.7635 29.1204 20.791C29.1812 20.8186 29.2475 20.8324 29.3143 20.8313H31.957C32.1401 20.8314 32.3171 20.7662 32.4563 20.6473C32.5955 20.5285 32.6877 20.3639 32.7163 20.1831L33.3192 16.355C33.3478 16.174 33.4399 16.0091 33.579 15.8899C33.7182 15.7707 33.8952 15.705 34.0785 15.7045H35.8305C39.4773 15.7045 41.5806 13.9412 42.1291 10.4462C42.3761 8.91637 42.1404 7.72646 41.4242 6.87425C40.64 5.94953 39.2438 5.45996 37.3921 5.45996H37.4034Z" fill="#253B80"/>
<path id="Vector_3" d="M50.2417 15.7362C50.1403 16.4512 49.7798 17.1041 49.2286 17.5708C48.6775 18.0375 47.9742 18.2856 47.2522 18.2678C46.4816 18.2678 45.8674 18.0208 45.473 17.5516C45.2714 17.291 45.1295 16.9892 45.0574 16.6676C44.9854 16.3461 44.9849 16.0126 45.056 15.6908C45.1565 14.9793 45.5121 14.3284 46.0566 13.8594C46.6011 13.3904 47.2974 13.1351 48.016 13.141C48.3456 13.1233 48.6751 13.1787 48.9807 13.3034C49.2863 13.428 49.5606 13.6187 49.7839 13.8618C49.9918 14.1222 50.1404 14.4248 50.2195 14.7485C50.2986 15.0722 50.3061 15.4092 50.2417 15.7362ZM53.9361 10.5799H51.2843C51.1747 10.5787 51.0683 10.6174 50.9849 10.6886C50.9016 10.7599 50.8469 10.859 50.831 10.9675L50.7154 11.7086L50.5296 11.4412C49.9561 10.6071 48.6756 10.3306 47.3995 10.3306C44.4712 10.3306 41.9599 12.5472 41.4817 15.6591C41.2301 17.2117 41.5905 18.694 42.4699 19.7388C43.2768 20.6907 44.4327 21.0874 45.8085 21.0874C46.4905 21.0942 47.1668 20.9632 47.797 20.7022C48.4271 20.4413 48.9981 20.0558 49.4756 19.5688L49.3578 20.3054C49.3457 20.3714 49.3484 20.4392 49.3657 20.504C49.383 20.5688 49.4145 20.629 49.4578 20.6801C49.5012 20.7313 49.5554 20.7722 49.6165 20.7999C49.6776 20.8276 49.744 20.8414 49.8111 20.8403H52.2C52.3833 20.8403 52.5606 20.7748 52.6999 20.6555C52.8391 20.5362 52.9311 20.371 52.9592 20.1898L54.3917 11.1239C54.4053 11.057 54.4037 10.988 54.387 10.9219C54.3703 10.8558 54.3389 10.7943 54.2951 10.742C54.2513 10.6897 54.1963 10.648 54.1341 10.6199C54.072 10.5919 54.0043 10.5782 53.9361 10.5799Z" fill="#253B80"/>
<path id="Vector_4" d="M68.0472 10.5798H65.3863C65.2608 10.5792 65.1371 10.6095 65.026 10.668C64.915 10.7265 64.82 10.8114 64.7494 10.9152L61.0754 16.3253L59.5184 11.1283C59.471 10.9697 59.3738 10.8307 59.241 10.7318C59.1083 10.633 58.9472 10.5797 58.7818 10.5798H56.1753C56.1013 10.5778 56.0279 10.594 55.9616 10.6269C55.8953 10.6598 55.8381 10.7085 55.7949 10.7686C55.7518 10.8288 55.724 10.8986 55.7141 10.9719C55.7041 11.0453 55.7123 11.12 55.7379 11.1894L58.6707 19.8021L55.9124 23.6937C55.8597 23.7619 55.8277 23.8438 55.8199 23.9296C55.8121 24.0154 55.8289 24.1017 55.8684 24.1783C55.9079 24.2548 55.9684 24.3186 56.0428 24.362C56.1172 24.4055 56.2025 24.4268 56.2886 24.4235H58.9495C59.0737 24.4232 59.1961 24.393 59.3061 24.3354C59.4162 24.2778 59.5108 24.1945 59.5818 24.0926L68.428 11.3005C68.4782 11.2319 68.5081 11.1506 68.5142 11.0658C68.5204 10.981 68.5027 10.8962 68.463 10.8211C68.4232 10.7459 68.3632 10.6834 68.2897 10.6408C68.2162 10.5981 68.1321 10.577 68.0472 10.5798Z" fill="#253B80"/>
<path id="Vector_5" d="M77.5029 10.6434C77.2015 12.6289 75.6897 12.6289 74.2165 12.6289H73.3824L73.9695 8.9209C73.9849 8.81198 74.0393 8.71238 74.1227 8.64065C74.2061 8.56893 74.3128 8.52998 74.4228 8.53106H74.8058C75.8053 8.53106 76.7482 8.53106 77.2355 9.09995C77.5256 9.43992 77.614 9.94082 77.5029 10.6434ZM76.8638 5.45996H71.3313C71.1484 5.46033 70.9716 5.52574 70.8325 5.64449C70.6934 5.76325 70.601 5.9276 70.572 6.10818L68.3327 20.2987C68.321 20.3645 68.324 20.4321 68.3415 20.4966C68.3589 20.5611 68.3905 20.621 68.4338 20.6719C68.4771 20.7228 68.5311 20.7635 68.592 20.791C68.6529 20.8186 68.7192 20.8324 68.786 20.8313H71.6259C71.7538 20.8313 71.8775 20.7856 71.9747 20.7025C72.0719 20.6194 72.1363 20.5044 72.1563 20.378L72.7909 16.355C72.8194 16.174 72.9116 16.0091 73.0507 15.8899C73.1899 15.7707 73.3669 15.705 73.5502 15.7045H75.3022C78.9467 15.7045 81.05 13.9412 81.6007 10.4462C81.8501 8.91637 81.6007 7.72646 80.8936 6.87425C80.1117 5.94953 78.7178 5.45996 76.8638 5.45996Z" fill="#179BD7"/>
<path id="Vector_6" d="M89.7192 15.7362C89.6178 16.4512 89.2573 17.1041 88.7062 17.5708C88.155 18.0375 87.4517 18.2856 86.7297 18.2678C85.9614 18.2678 85.3449 18.0208 84.9483 17.5516C84.7481 17.2902 84.6074 16.9883 84.5357 16.667C84.4641 16.3456 84.4633 16.0125 84.5335 15.6908C84.6347 14.9779 84.9917 14.3261 85.538 13.8569C86.0843 13.3878 86.7826 13.1333 87.5026 13.141C87.8322 13.1233 88.1616 13.1787 88.4673 13.3034C88.7729 13.428 89.0472 13.6187 89.2705 13.8618C89.4772 14.1227 89.6245 14.4256 89.702 14.7494C89.7795 15.0731 89.7854 15.4099 89.7192 15.7362ZM93.4114 10.5799H90.7573C90.6476 10.5787 90.5413 10.6174 90.4579 10.6886C90.3746 10.7599 90.3199 10.859 90.304 10.9675L90.1884 11.7086L90.0003 11.4412C89.4269 10.6071 88.1486 10.3306 86.8725 10.3306C83.9442 10.3306 81.4443 12.5472 80.957 15.6591C80.7031 17.2117 81.0635 18.694 81.9429 19.7388C82.752 20.6907 83.9057 21.0874 85.2815 21.0874C85.9635 21.0942 86.6398 20.9632 87.27 20.7022C87.9001 20.4413 88.4711 20.0558 88.9486 19.5688L88.8308 20.3054C88.8187 20.3714 88.8214 20.4392 88.8387 20.504C88.856 20.5688 88.8875 20.629 88.9308 20.6801C88.9742 20.7313 89.0284 20.7722 89.0895 20.7999C89.1505 20.8276 89.217 20.8414 89.2841 20.8403H91.6707C91.854 20.8403 92.0314 20.7748 92.1706 20.6555C92.3098 20.5362 92.4018 20.371 92.43 20.1898L93.8624 11.1239C93.8761 11.0569 93.8745 10.9876 93.8576 10.9213C93.8408 10.855 93.8091 10.7934 93.7651 10.7411C93.7211 10.6888 93.6657 10.6471 93.6033 10.6192C93.5409 10.5913 93.4729 10.5778 93.4046 10.5799H93.4114Z" fill="#179BD7"/>
<path id="Vector_7" d="M96.53 5.86119L94.2521 20.2988C94.2404 20.3646 94.2434 20.4321 94.2609 20.4967C94.2784 20.5612 94.3099 20.621 94.3532 20.6719C94.3965 20.7228 94.4506 20.7635 94.5115 20.7911C94.5724 20.8187 94.6386 20.8324 94.7054 20.8314H96.9901C97.1731 20.8315 97.3501 20.7662 97.4893 20.6474C97.6285 20.5286 97.7207 20.3639 97.7493 20.1832L99.9886 5.99264C100 5.92684 99.9973 5.85925 99.9799 5.79474C99.9624 5.73022 99.9309 5.67037 99.8875 5.61947C99.8442 5.56857 99.7902 5.52788 99.7293 5.50031C99.6684 5.47274 99.6022 5.45898 99.5353 5.46002H96.9833C96.8715 5.45927 96.7635 5.49981 96.6798 5.57385C96.5962 5.64789 96.5428 5.75021 96.53 5.86119Z" fill="#179BD7"/>
<path id="Vector_8" d="M5.87917 23.5896L6.31207 20.9015L5.36921 20.8789H0.858887L3.98665 1.04474C3.99852 0.984454 4.02952 0.92961 4.07504 0.888346C4.1219 0.848667 4.18136 0.826971 4.24276 0.82715H11.831C14.3513 0.82715 16.0897 1.35298 16.9986 2.3865C17.4003 2.82634 17.6849 3.36028 17.8259 3.93905C17.9645 4.6455 17.9645 5.37217 17.8259 6.07862V6.13981V6.68604L18.252 6.92856C18.5768 7.09315 18.8687 7.31593 19.1132 7.58584C19.4919 8.03091 19.7349 8.57523 19.8136 9.15425C19.9103 9.90989 19.8765 10.6765 19.7139 11.4208C19.5533 12.3296 19.2366 13.2038 18.7778 14.0046C18.4039 14.6408 17.9014 15.1919 17.3023 15.6228C16.6997 16.0437 16.0253 16.3509 15.3123 16.5294C14.4967 16.7296 13.659 16.8256 12.8192 16.815H12.2344C11.8111 16.8156 11.4019 16.967 11.08 17.2419C10.7581 17.5169 10.5447 17.8974 10.4779 18.3154L10.4326 18.558L9.68462 23.2949L9.65062 23.4695C9.65026 23.4883 9.64605 23.5068 9.63825 23.524C9.63046 23.5411 9.61924 23.5565 9.60529 23.5692C9.58319 23.5881 9.55507 23.5986 9.52596 23.5986L5.87917 23.5896Z" fill="#253B80"/>
<path id="Vector_9" d="M18.6509 6.20361C18.6283 6.34866 18.6011 6.49599 18.5739 6.65691C17.5721 11.7882 14.1474 13.5674 9.77307 13.5674H7.54737C7.29041 13.5667 7.0416 13.6576 6.84556 13.8237C6.64952 13.9899 6.51907 14.2204 6.47759 14.474L5.34434 21.7041L5.0157 23.7666C5.00293 23.8478 5.0079 23.9308 5.03028 24.0099C5.05266 24.089 5.09191 24.1623 5.14532 24.2248C5.19874 24.2872 5.26506 24.3374 5.33972 24.3718C5.41438 24.4061 5.4956 24.4239 5.57779 24.4239H9.52602C9.75231 24.4241 9.97128 24.3437 10.1436 24.1971C10.316 24.0505 10.4305 23.8472 10.4666 23.6238L10.5051 23.4221L11.2486 18.7033L11.2962 18.4449C11.3322 18.2221 11.4465 18.0195 11.6184 17.8733C11.7904 17.7271 12.0088 17.6469 12.2345 17.6471H12.826C16.6519 17.6471 19.6482 16.0923 20.5321 11.5978C20.897 9.71894 20.7089 8.15053 19.7411 7.04901C19.4329 6.70247 19.0633 6.41585 18.6509 6.20361Z" fill="#179BD7"/>
<path id="Vector_10" d="M17.6038 5.78648C17.4496 5.74115 17.2933 5.70035 17.1301 5.66409C16.9669 5.62783 16.8014 5.5961 16.6292 5.5689C15.9798 5.46906 15.3234 5.42131 14.6664 5.42611H8.71684C8.57492 5.42648 8.43483 5.45822 8.3066 5.51903C8.16771 5.58538 8.04716 5.68472 7.9555 5.80838C7.86384 5.93204 7.80386 6.07626 7.78078 6.22845L6.5138 14.2473L6.47754 14.4739C6.51902 14.2203 6.64947 13.9898 6.84551 13.8237C7.04155 13.6575 7.29036 13.5667 7.54732 13.5673H9.77302C14.1474 13.5673 17.572 11.7904 18.5738 6.65228C18.6033 6.50043 18.6282 6.3531 18.6509 6.19898C18.3867 6.06088 18.1115 5.9449 17.8281 5.85221L17.6038 5.78648Z" fill="#222D65"/>
<path id="Vector_11" d="M7.78095 6.22833C7.81562 6.00512 7.92908 5.8017 8.1008 5.65493C8.27251 5.50816 8.49112 5.42775 8.71701 5.42826H14.6666C15.3236 5.42346 15.9799 5.47121 16.6293 5.57105C16.8016 5.59825 16.9693 5.62998 17.1302 5.66398C17.2912 5.69797 17.4498 5.74104 17.6039 5.78636L17.8306 5.85663C18.1139 5.94931 18.3891 6.0653 18.6533 6.2034C18.9525 4.30408 18.6533 3.01217 17.6243 1.8404C16.4911 0.550762 14.4512 4.69516e-06 11.8357 4.69516e-06H4.24295C3.98572 -0.000752266 3.73661 0.090042 3.54019 0.256144C3.34378 0.422246 3.21287 0.652817 3.1709 0.906602L0.00913579 20.956C-0.00515114 21.0484 0.000564821 21.1427 0.0258973 21.2327C0.0512299 21.3227 0.0955881 21.4062 0.155972 21.4775C0.216355 21.5488 0.291355 21.6064 0.3759 21.6462C0.460445 21.6861 0.552562 21.7073 0.646021 21.7085H5.33766L6.51398 14.2472L7.78095 6.22833Z" fill="#253B80"/>
</g>
</g>
</g>
</g>
<defs>
<clipPath id="clip0_372_2664">
<rect width="100" height="25" fill="white"/>
</clipPath>
</defs>
</svg>
