<svg width="64" height="64" viewBox="0 0 64 64" fill="none" xmlns="http://www.w3.org/2000/svg">
<g id="Play">
<path id="Vector" d="M31.9987 5.33325C26.7245 5.33325 21.5688 6.89722 17.1835 9.8274C12.7982 12.7576 9.38026 16.9223 7.36192 21.795C5.34359 26.6677 4.8155 32.0295 5.84444 37.2023C6.87338 42.3752 9.41313 47.1267 13.1425 50.8561C16.8719 54.5855 21.6235 57.1253 26.7963 58.1542C31.9691 59.1831 37.3309 58.655 42.2036 56.6367C47.0763 54.6184 51.2411 51.2004 54.1712 46.8151C57.1014 42.4298 58.6654 37.2741 58.6654 31.9999C58.6654 28.498 57.9756 25.0304 56.6355 21.795C55.2954 18.5597 53.3311 15.62 50.8549 13.1437C48.3787 10.6675 45.439 8.70326 42.2036 7.36313C38.9683 6.02301 35.5006 5.33325 31.9987 5.33325ZM26.6654 43.9999V19.9999L42.6654 31.9999L26.6654 43.9999Z" fill="#222222" fill-opacity="0.6"/>
</g>
</svg>
