<svg width="20" height="20" viewBox="0 0 20 20" fill="none" xmlns="http://www.w3.org/2000/svg">
<g id="Question-circle">
<path id="BG" opacity="0.4" d="M10 16.875C13.797 16.875 16.875 13.797 16.875 10C16.875 6.20304 13.797 3.125 10 3.125C6.20304 3.125 3.125 6.20304 3.125 10C3.125 13.797 6.20304 16.875 10 16.875Z" fill="#939393"/>
<path id="Vector" d="M10 9.86667C11.2833 9.85833 12.3083 8.91667 12.3083 7.74167C12.3083 6.56667 11.275 5.60834 9.99167 5.60834C8.78333 5.60834 7.80833 6.45 7.69167 7.51667M9.99167 9.86667V11.5583M17.5 10C17.5 14.1417 14.1417 17.5 10 17.5C5.85833 17.5 2.5 14.1417 2.5 10C2.5 5.85833 5.85833 2.5 10 2.5C14.1417 2.5 17.5 5.85833 17.5 10Z" stroke="#939393" stroke-width="1.5" stroke-miterlimit="10" stroke-linecap="round"/>
<ellipse id="Vector_2" cx="10.0013" cy="13.8424" rx="0.833333" ry="0.833333" fill="#939393"/>
</g>
</svg>
