<svg width="24" height="24" viewBox="0 0 24 24" fill="none" xmlns="http://www.w3.org/2000/svg">
<g id="Deafult">
<path id="BG" opacity="0.4" d="M12 20.25C16.5563 20.25 20.25 16.5563 20.25 12C20.25 7.44365 16.5563 3.75 12 3.75C7.44365 3.75 3.75 7.44365 3.75 12C3.75 16.5563 7.44365 20.25 12 20.25Z" fill="#5A2F00"/>
<path id="Vector" d="M12 11.84C13.54 11.83 14.77 10.7 14.77 9.29C14.77 7.88 13.53 6.73 11.99 6.73C10.54 6.73 9.37 7.74 9.23 9.02M11.99 11.84V13.87M21 12C21 16.97 16.97 21 12 21C7.03 21 3 16.97 3 12C3 7.03 7.03 3 12 3C16.97 3 21 7.03 21 12Z" stroke="#5A2F00" stroke-width="1.5" stroke-miterlimit="10" stroke-linecap="round"/>
<circle id="Vector_2" cx="12" cy="16.6108" r="1" fill="#5A2F00"/>
</g>
</svg>
