<svg width="20" height="20" viewBox="0 0 20 20" fill="none" xmlns="http://www.w3.org/2000/svg">
<g id="ic:twotone-report">
<path id="Vector" opacity="0.3" d="M7.58464 4.1665L4.16797 7.58317V12.4165L7.58464 15.8332H12.418L15.8346 12.4165V7.58317L12.418 4.1665H7.58464ZM10.0013 14.1665C9.54297 14.1665 9.16797 13.7915 9.16797 13.3332C9.16797 12.8748 9.54297 12.4998 10.0013 12.4998C10.4596 12.4998 10.8346 12.8748 10.8346 13.3332C10.8346 13.7915 10.4596 14.1665 10.0013 14.1665ZM10.8346 11.6665H9.16797V5.83317H10.8346V11.6665Z" fill="#F3F3F3"/>
<path id="Vector_2" d="M13.1083 2.5H6.89167L2.5 6.89167V13.1083L6.89167 17.5H13.1083L17.5 13.1083V6.89167L13.1083 2.5ZM15.8333 12.4167L12.4167 15.8333H7.58333L4.16667 12.4167V7.58333L7.58333 4.16667H12.4167L15.8333 7.58333V12.4167Z" fill="#F3F3F3"/>
<path id="Vector_3" d="M10.0013 14.1667C10.4615 14.1667 10.8346 13.7936 10.8346 13.3333C10.8346 12.8731 10.4615 12.5 10.0013 12.5C9.54106 12.5 9.16797 12.8731 9.16797 13.3333C9.16797 13.7936 9.54106 14.1667 10.0013 14.1667Z" fill="#F3F3F3"/>
<path id="Vector_4" d="M9.16797 5.8335H10.8346V11.6668H9.16797V5.8335Z" fill="#F3F3F3"/>
</g>
</svg>
