<svg width="200" height="200" viewBox="0 0 200 200" fill="none" xmlns="http://www.w3.org/2000/svg">
<g id="checkout-badge-1.svg">
<g id="Group">
<path id="Vector" fill-rule="evenodd" clip-rule="evenodd" d="M110.8 181.825C104.836 180.658 95.1704 180.657 89.202 181.825L75.526 184.5C69.5618 185.666 61.9915 182.514 58.6197 177.464L50.7067 165.611C47.3338 160.558 40.5398 153.68 35.5297 150.247L23.9114 142.285C18.9022 138.853 15.7635 131.232 16.9009 125.263L19.5921 111.139C20.7294 105.17 20.7295 95.4934 19.5921 89.5242L16.9009 75.4009C15.7635 69.4321 18.9013 61.8113 23.9114 58.3781L35.5297 50.4165C40.5389 46.9839 47.335 40.1037 50.7067 35.0531L58.6197 23.1998C61.9926 18.1474 69.5577 14.9965 75.526 16.1639L89.202 18.8389C95.1662 20.0055 104.832 20.0063 110.8 18.8389L124.476 16.1639C130.44 14.9973 138.011 18.1491 141.383 23.1998L149.296 35.0531C152.668 40.1054 159.463 46.9833 164.473 50.4165L176.091 58.3781C181.1 61.8107 184.239 69.4318 183.101 75.4009L180.41 89.5242C179.273 95.4931 179.273 105.17 180.41 111.139L183.101 125.263C184.239 131.231 181.101 138.852 176.091 142.285L164.473 150.247C159.463 153.68 152.667 160.56 149.296 165.611L141.383 177.464C138.01 182.516 130.445 185.667 124.476 184.5L110.8 181.825Z" fill="#C07600"/>
<path id="Vector_2" d="M100.002 175.373C141.629 175.373 175.375 141.628 175.375 100C175.375 58.3727 141.629 24.627 100.002 24.627C58.3746 24.627 24.6289 58.3727 24.6289 100C24.6289 141.628 58.3746 175.373 100.002 175.373Z" fill="#D58B0E"/>
<g id="Group_2">
<path id="Vector_3" fill-rule="evenodd" clip-rule="evenodd" d="M154.953 88.5907L162.043 87.4678L162.475 90.1936C162.567 90.7788 162.556 91.3096 162.44 91.7862C162.323 92.2628 162.13 92.6759 161.859 93.0254C161.587 93.375 161.249 93.6601 160.844 93.8809C160.439 94.1016 159.993 94.2506 159.506 94.3279C158.966 94.4133 158.465 94.4061 158.002 94.306C157.54 94.206 157.129 94.0237 156.769 93.7591C156.409 93.4946 156.109 93.1563 155.871 92.7442C155.632 92.3321 155.47 91.8562 155.385 91.3166L154.953 88.5907ZM156.958 90.2676L157.082 91.0478C157.122 91.3014 157.205 91.5207 157.331 91.7057C157.457 91.8906 157.613 92.0383 157.801 92.1486C157.988 92.2588 158.2 92.331 158.437 92.3651C158.674 92.3993 158.926 92.3952 159.193 92.353C159.466 92.3097 159.71 92.2336 159.924 92.1247C160.138 92.0158 160.315 91.8803 160.454 91.7183C160.594 91.5563 160.692 91.3682 160.75 91.1541C160.808 90.94 160.817 90.7095 160.778 90.4624L160.654 89.6822L156.958 90.2676Z" fill="#FFF1E2"/>
<path id="Vector_4" fill-rule="evenodd" clip-rule="evenodd" d="M153.155 81.6222L160.02 79.5234L161.489 84.3298L159.846 84.8321L158.952 81.9096L157.985 82.2055L158.748 84.7031L157.223 85.1693L156.46 82.6717L155.374 83.0037L156.293 86.0112L154.65 86.5135L153.155 81.6222Z" fill="#FFF1E2"/>
<path id="Vector_5" fill-rule="evenodd" clip-rule="evenodd" d="M150.493 74.8781L157.148 72.189L159.031 76.8489L157.438 77.4925L156.293 74.659L155.355 75.0382L156.333 77.4597L154.855 78.0571L153.876 75.6355L152.824 76.0609L154.002 78.9768L152.409 79.6204L150.493 74.8781Z" fill="#FFF1E2"/>
<path id="Vector_6" fill-rule="evenodd" clip-rule="evenodd" d="M129.367 51.4355L133.586 45.6279L136.254 47.5664C136.536 47.7715 136.755 48.0197 136.909 48.3109C137.064 48.6022 137.159 48.9041 137.194 49.2166C137.229 49.5291 137.208 49.843 137.129 50.1582C137.051 50.4735 136.923 50.7536 136.745 50.9985C136.499 51.3367 136.196 51.5979 135.837 51.7821C135.477 51.9663 135.1 52.0555 134.706 52.0496L134.379 55.0774L132.582 53.7715L132.854 51.2472L132.254 50.8119L130.96 52.5933L129.367 51.4355ZM133.267 49.418L134.274 50.1492C134.372 50.2208 134.504 50.233 134.668 50.1857C134.833 50.1385 134.986 50.0176 135.127 49.8232C135.274 49.6209 135.337 49.4306 135.316 49.2525C135.295 49.0745 135.235 48.9496 135.136 48.878L134.17 48.1758L133.267 49.418Z" fill="#FFF1E2"/>
<path id="Vector_7" fill-rule="evenodd" clip-rule="evenodd" d="M135.374 55.7359L142.097 52.1896L143.411 53.4152L140.335 60.3622L138.873 58.9986L139.514 57.6732L138.114 56.3668L136.843 57.1063L135.374 55.7359ZM139.226 55.6083L140.179 56.4972L141.228 54.4381L139.226 55.6083Z" fill="#FFF1E2"/>
<path id="Vector_8" fill-rule="evenodd" clip-rule="evenodd" d="M41.552 92.9894L39.9781 91.8804C40.1615 91.6695 40.3299 91.4479 40.4833 91.2156C40.618 91.017 40.7466 90.7891 40.869 90.5319C40.9914 90.2747 41.0747 90.0063 41.119 89.7268C41.153 89.5122 41.148 89.3598 41.1039 89.2695C41.0599 89.1792 40.9908 89.1266 40.8965 89.1117C40.7957 89.0957 40.7046 89.1238 40.6232 89.1959C40.5418 89.268 40.4627 89.3729 40.3859 89.5107C40.3091 89.6485 40.2288 89.8082 40.1451 89.9899C40.0613 90.1716 39.9669 90.3624 39.862 90.5624C39.7052 90.8575 39.5471 91.109 39.3875 91.317C39.228 91.525 39.0586 91.6898 38.8794 91.8114C38.7001 91.9329 38.505 92.0128 38.294 92.0511C38.083 92.0893 37.8475 92.0878 37.5874 92.0466C37.1941 91.9843 36.8592 91.858 36.5828 91.6676C36.3064 91.4771 36.0877 91.2426 35.9269 90.9638C35.7662 90.6851 35.6595 90.38 35.6071 90.0484C35.5546 89.7169 35.5564 89.3739 35.6126 89.0196C35.6538 88.7595 35.7182 88.5106 35.8058 88.2729C35.8934 88.0352 35.9937 87.807 36.1067 87.5883C36.2196 87.3696 36.3373 87.1683 36.4598 86.9844C36.5822 86.8005 36.6953 86.6335 36.7991 86.4833L38.2754 87.5769C38.1237 87.7561 37.9854 87.9458 37.8603 88.1459C37.7508 88.3119 37.6432 88.5014 37.5378 88.7147C37.4324 88.9279 37.363 89.1402 37.3295 89.3515C37.3022 89.5238 37.3071 89.6662 37.3443 89.7787C37.3815 89.8913 37.4634 89.9576 37.5902 89.9776C37.6845 89.9926 37.7657 89.9746 37.8337 89.9237C37.9017 89.8728 37.9698 89.7953 38.038 89.6912C38.1061 89.587 38.1768 89.4565 38.2499 89.2998C38.3231 89.1431 38.4084 88.9675 38.5058 88.773C38.6581 88.4639 38.8144 88.1871 38.9748 87.9426C39.1351 87.698 39.3122 87.4953 39.506 87.3344C39.6997 87.1735 39.9207 87.0618 40.1688 86.9995C40.417 86.9372 40.7085 86.9325 41.0433 86.9855C41.4692 87.053 41.8144 87.1876 42.079 87.3895C42.3436 87.5914 42.5417 87.8344 42.6734 88.1185C42.805 88.4026 42.8835 88.7116 42.9089 89.0455C42.9343 89.3795 42.921 89.7106 42.869 90.0389C42.8279 90.299 42.7663 90.5617 42.6843 90.8269C42.6023 91.0922 42.5033 91.354 42.3874 91.6122C42.2715 91.8704 42.1434 92.1167 42.003 92.3511C41.8626 92.5854 41.7122 92.7982 41.552 92.9894Z" fill="#FFF1E2"/>
<path id="Vector_9" fill-rule="evenodd" clip-rule="evenodd" d="M50.8294 67.5863L49.9605 65.8682C50.2214 65.7681 50.4741 65.6515 50.7186 65.5184C50.9308 65.4063 51.1513 65.2654 51.3801 65.0958C51.6089 64.9261 51.8085 64.7283 51.9789 64.5022C52.1096 64.3287 52.1767 64.1918 52.1803 64.0914C52.1838 63.9911 52.1474 63.9121 52.0712 63.8547C51.9897 63.7933 51.8961 63.7753 51.7904 63.8007C51.6847 63.8262 51.5656 63.8817 51.4331 63.9673C51.3005 64.0529 51.1547 64.1562 50.9954 64.2773C50.8362 64.3984 50.6633 64.5226 50.4767 64.6499C50.1998 64.8369 49.9421 64.9847 49.7035 65.0935C49.465 65.2022 49.238 65.2682 49.0227 65.2914C48.8074 65.3146 48.5976 65.2935 48.3934 65.2282C48.1892 65.1629 47.9819 65.051 47.7716 64.8926C47.4535 64.6529 47.2172 64.3841 47.0625 64.0862C46.9078 63.7883 46.8249 63.4786 46.8138 63.157C46.8027 62.8354 46.8518 62.5159 46.9611 62.1986C47.0705 61.8812 47.2331 61.5792 47.449 61.2927C47.6074 61.0824 47.7812 60.8929 47.9702 60.7242C48.1591 60.5554 48.3548 60.401 48.5572 60.2609C48.7596 60.1208 48.9581 59.9984 49.1525 59.8935C49.3469 59.7886 49.5252 59.6942 49.6873 59.6103L50.4774 61.269C50.2594 61.356 50.0481 61.4586 49.8438 61.5766C49.6692 61.6717 49.4852 61.7886 49.292 61.9274C49.0988 62.0662 48.9379 62.221 48.8091 62.3918C48.7041 62.5312 48.6416 62.6592 48.6216 62.776C48.6016 62.8928 48.6429 62.9898 48.7454 63.0671C48.8216 63.1245 48.9017 63.1468 48.9857 63.1338C49.0696 63.1208 49.1661 63.0843 49.2752 63.0244C49.3843 62.9644 49.5079 62.8824 49.6461 62.7783C49.7842 62.6743 49.942 62.5593 50.1193 62.4333C50.3989 62.2319 50.6669 62.0608 50.9233 61.9202C51.1797 61.7796 51.4312 61.6837 51.6778 61.6326C51.9244 61.5815 52.1719 61.5867 52.4203 61.6481C52.6687 61.7096 52.9282 61.8423 53.199 62.0463C53.5433 62.3058 53.7849 62.5868 53.9238 62.8893C54.0627 63.1917 54.1235 63.4993 54.1063 63.8119C54.0892 64.1246 54.0134 64.4343 53.8791 64.7411C53.7448 65.0478 53.5776 65.334 53.3775 65.5995C53.2191 65.8098 53.0414 66.0128 52.8444 66.2085C52.6475 66.4042 52.4372 66.5889 52.2137 66.7625C51.9901 66.9361 51.7614 67.0934 51.5273 67.2344C51.2933 67.3754 51.0607 67.4927 50.8294 67.5863Z" fill="#FFF1E2"/>
<path id="Vector_10" fill-rule="evenodd" clip-rule="evenodd" d="M56.281 61.8465L51.1172 56.8599L54.5365 53.3191L55.7724 54.5126L53.7215 56.6363L54.5809 57.4663L56.2546 55.7332L57.4017 56.8409L55.728 58.574L57.6494 60.4294L56.281 61.8465Z" fill="#FFF1E2"/>
<path id="Vector_11" fill-rule="evenodd" clip-rule="evenodd" d="M43.4717 85.9902L37.4165 81.3961L37.9718 79.6869L45.5679 79.5387L44.95 81.4404L43.4776 81.4188L42.8856 83.2406L44.0926 84.0792L43.4717 85.9902ZM41.7282 82.5531L42.131 81.3135L39.8212 81.2326L41.7282 82.5531Z" fill="#FFF1E2"/>
<path id="Vector_12" fill-rule="evenodd" clip-rule="evenodd" d="M60.5328 57.4853L58.0819 50.2906L59.498 49.1842L65.8783 53.309L64.3027 54.54L63.094 53.6987L61.5845 54.8781L62.1162 56.2482L60.5328 57.4853ZM61.0094 53.6608L62.0365 52.8584L60.1668 51.4998L61.0094 53.6608Z" fill="#FFF1E2"/>
<path id="Vector_13" fill-rule="evenodd" clip-rule="evenodd" d="M65.1016 49.1561C64.8894 48.7733 64.7523 48.3563 64.6904 47.9051C64.6285 47.454 64.6547 47.0039 64.7689 46.5548C64.8831 46.1058 65.0868 45.6806 65.3798 45.2792C65.6729 44.8777 66.0728 44.5366 66.5794 44.2558C67.1868 43.9191 67.783 43.7523 68.3681 43.7554C68.9531 43.7585 69.4676 43.9061 69.9117 44.1981L69.1141 45.8651C68.972 45.7444 68.824 45.6609 68.6703 45.6144C68.5166 45.5679 68.3643 45.5478 68.2136 45.5542C68.0629 45.5606 67.9178 45.5874 67.7784 45.6346C67.6389 45.6818 67.5102 45.7381 67.3922 45.8035C67.1446 45.9408 66.958 46.1082 66.8323 46.3058C66.7067 46.5034 66.6293 46.7118 66.6004 46.9311C66.5714 47.1504 66.5842 47.3738 66.6388 47.6013C66.6934 47.8288 66.775 48.0404 66.8835 48.2362C67.0047 48.455 67.1532 48.6464 67.3289 48.8106C67.5046 48.9748 67.6966 49.0988 67.9049 49.1828C68.1133 49.2667 68.333 49.3049 68.5639 49.2973C68.7949 49.2897 69.0212 49.2244 69.2429 49.1016C69.3609 49.0362 69.4746 48.9562 69.5841 48.8617C69.6935 48.7671 69.7886 48.657 69.8695 48.5313C69.9503 48.4056 70.0097 48.2682 70.0475 48.1193C70.0854 47.9704 70.0911 47.811 70.0648 47.6412L71.9368 47.6986C71.9695 47.9816 71.9407 48.2675 71.8506 48.5564C71.7605 48.8454 71.6274 49.1195 71.4513 49.3789C71.2753 49.6384 71.0649 49.8782 70.8201 50.0986C70.5753 50.3189 70.3205 50.5025 70.0557 50.6493C69.5893 50.9078 69.1118 51.0511 68.6231 51.0793C68.1345 51.1074 67.6655 51.0456 67.2164 50.8938C66.7672 50.742 66.3579 50.5145 65.9885 50.2112C65.619 49.908 65.3234 49.5563 65.1016 49.1561Z" fill="#FFF1E2"/>
<path id="Vector_14" fill-rule="evenodd" clip-rule="evenodd" d="M40.8059 76.05L39.2617 75.2969L41.9389 69.8078L43.4831 70.561L42.5806 72.4114L47.4884 74.805L46.6227 76.58L41.7149 74.1863L40.8059 76.05Z" fill="#FFF1E2"/>
<path id="Vector_15" fill-rule="evenodd" clip-rule="evenodd" d="M71.6752 43.3091L71.0039 41.7275L76.6256 39.3413L77.2969 40.9228L75.4018 41.7272L77.5353 46.7535L75.7175 47.5252L73.584 42.4988L71.6752 43.3091Z" fill="#FFF1E2"/>
<path id="Vector_16" fill-rule="evenodd" clip-rule="evenodd" d="M49.3846 71.0809L43.2969 67.2769L44.3408 65.6063L50.4285 69.4103L49.3846 71.0809Z" fill="#FFF1E2"/>
<path id="Vector_17" fill-rule="evenodd" clip-rule="evenodd" d="M81.1115 45.5816L79.1328 38.6812L81.0264 38.1382L83.0051 45.0386L81.1115 45.5816Z" fill="#FFF1E2"/>
<path id="Vector_18" fill-rule="evenodd" clip-rule="evenodd" d="M84.2915 40.4743C84.2587 40.0048 84.318 39.5445 84.4696 39.0934C84.6212 38.6424 84.8479 38.2396 85.1498 37.8853C85.4516 37.5309 85.8197 37.2388 86.254 37.0088C86.6883 36.7788 87.1697 36.6453 87.6984 36.6084C88.2434 36.5703 88.7457 36.6399 89.2051 36.8173C89.6646 36.9947 90.0639 37.2439 90.4031 37.565C90.7423 37.886 91.0134 38.2589 91.2163 38.6835C91.4192 39.1082 91.5366 39.5487 91.5685 40.005C91.6014 40.4746 91.5419 40.9332 91.3901 41.381C91.2383 41.8288 91.0123 42.2298 90.712 42.584C90.4118 42.9383 90.0455 43.232 89.6131 43.4651C89.1807 43.6983 88.6985 43.8334 88.1666 43.8706C87.6216 43.9088 87.1201 43.8391 86.6623 43.6616C86.2045 43.4841 85.8061 43.2364 85.4671 42.9186C85.1281 42.6008 84.8556 42.2298 84.6494 41.8053C84.4432 41.3809 84.3239 40.9373 84.2915 40.4743ZM86.2924 40.3542C86.3094 40.5972 86.3594 40.8287 86.4425 41.0489C86.5255 41.2692 86.6396 41.4616 86.7848 41.6263C86.9299 41.7911 87.1089 41.9204 87.3217 42.0144C87.5344 42.1084 87.782 42.1455 88.0644 42.1258C88.3468 42.1061 88.5883 42.0331 88.789 41.9069C88.9897 41.7806 89.1495 41.6243 89.2684 41.4378C89.3873 41.2513 89.4708 41.0417 89.5189 40.8091C89.567 40.5764 89.5828 40.3419 89.5662 40.1055C89.5492 39.8625 89.4992 39.6309 89.4162 39.4107C89.3331 39.1905 89.2167 38.9999 89.0669 38.8388C88.917 38.6777 88.7358 38.5518 88.5233 38.4611C88.3107 38.3703 88.0665 38.3346 87.7907 38.3539C87.5084 38.3736 87.2684 38.4449 87.0707 38.5676C86.8731 38.6903 86.7132 38.845 86.5909 39.0317C86.4687 39.2184 86.3843 39.4264 86.3376 39.6557C86.291 39.885 86.2759 40.1178 86.2924 40.3542Z" fill="#FFF1E2"/>
<path id="Vector_19" fill-rule="evenodd" clip-rule="evenodd" d="M94.0664 42.867V35.6885H95.6018L98.4851 39.337V35.6885H100.455V42.867H98.8899L96.0363 39.337V42.867H94.0664Z" fill="#FFF1E2"/>
<path id="Vector_20" fill-rule="evenodd" clip-rule="evenodd" d="M141.48 61.6426L147.059 57.125L148.025 58.3182L147.004 62.855L149.839 60.559L151.079 62.0898L145.5 66.6074L144.515 65.3911L145.463 60.952L142.72 63.1735L141.48 61.6426Z" fill="#FFF1E2"/>
<path id="Vector_21" fill-rule="evenodd" clip-rule="evenodd" d="M151.418 65.2111L152.906 64.3521L155.96 69.641L154.472 70.5001L153.443 68.7171L148.714 71.4473L147.726 69.7371L152.455 67.0069L151.418 65.2111Z" fill="#FFF1E2"/>
<path id="Vector_22" fill-rule="evenodd" clip-rule="evenodd" d="M106.494 39.4577C106.588 39.0166 106.759 38.6012 107.006 38.2114C107.254 37.8215 107.561 37.4957 107.928 37.2338C108.295 36.972 108.715 36.7879 109.189 36.6816C109.662 36.5753 110.173 36.5803 110.72 36.6966C111.325 36.8253 111.833 37.0602 112.243 37.4015C112.654 37.7428 112.941 38.1765 113.105 38.7026L111.321 39.5701C111.315 39.5351 111.296 39.4613 111.264 39.3486C111.233 39.2359 111.177 39.1155 111.096 38.9873C111.016 38.8592 110.907 38.7377 110.77 38.6227C110.633 38.5078 110.455 38.427 110.236 38.3805C109.998 38.3299 109.779 38.3388 109.579 38.4074C109.38 38.4761 109.203 38.585 109.05 38.7342C108.898 38.8834 108.77 39.0624 108.669 39.2713C108.567 39.4802 108.492 39.6974 108.444 39.9227C108.401 40.1256 108.38 40.3432 108.381 40.5756C108.382 40.808 108.419 41.026 108.49 41.2295C108.561 41.4331 108.673 41.6116 108.825 41.7652C108.978 41.9187 109.183 42.0229 109.44 42.0776C109.717 42.1364 109.975 42.1275 110.216 42.0506C110.456 41.9738 110.638 41.8696 110.764 41.7382L109.668 41.5052L110.025 39.8246L113.207 40.5011L113.021 41.38C112.93 41.8082 112.772 42.1952 112.547 42.5411C112.322 42.887 112.046 43.1715 111.719 43.3948C111.392 43.6181 111.02 43.7712 110.602 43.8539C110.184 43.9367 109.742 43.9284 109.275 43.8292C108.747 43.717 108.287 43.5141 107.895 43.2205C107.503 42.9269 107.188 42.579 106.951 42.1769C106.713 41.7748 106.553 41.3377 106.47 40.8658C106.387 40.3939 106.395 39.9245 106.494 39.4577Z" fill="#FFF1E2"/>
<path id="Vector_23" fill-rule="evenodd" clip-rule="evenodd" d="M115.301 41.4871L116.562 38.0215L118.418 38.6969L117.157 42.1625C117.076 42.3852 117.02 42.6072 116.988 42.8287C116.956 43.0501 116.96 43.2564 116.999 43.4475C117.038 43.6386 117.115 43.8067 117.231 43.952C117.346 44.0973 117.512 44.2093 117.728 44.2881C117.945 44.3669 118.146 44.3867 118.332 44.3476C118.518 44.3084 118.686 44.2279 118.837 44.106C118.989 43.9842 119.123 43.8301 119.242 43.6438C119.361 43.4576 119.46 43.2531 119.541 43.0304L120.803 39.5648L122.654 40.2386L121.393 43.7042C121.221 44.1743 121.001 44.5915 120.732 44.9559C120.463 45.3202 120.148 45.6058 119.787 45.8125C119.426 46.0192 119.023 46.1378 118.578 46.1683C118.133 46.1989 117.65 46.1196 117.13 45.9304C116.592 45.7346 116.164 45.4771 115.846 45.1582C115.528 44.8392 115.3 44.4823 115.164 44.0876C115.027 43.6929 114.975 43.2737 115.007 42.83C115.039 42.3863 115.137 41.9386 115.301 41.4871Z" fill="#FFF1E2"/>
<path id="Vector_24" fill-rule="evenodd" clip-rule="evenodd" d="M121.97 47.4681L127.546 42.3027L129.132 43.1464L127.959 50.6528L126.194 49.7141L126.471 48.2677L124.779 47.3684L123.744 48.4115L121.97 47.4681ZM125.657 46.348L126.808 46.9599L127.289 44.6992L125.657 46.348Z" fill="#FFF1E2"/>
</g>
<path id="Vector_25" fill-rule="evenodd" clip-rule="evenodd" d="M83.2632 88.3145C83.9105 88.8301 84.5989 89.2059 85.3285 89.4418C86.0581 89.6777 86.8947 89.7956 87.8382 89.7956C88.9902 89.7956 89.8295 89.6201 90.3561 89.269C90.8827 88.9179 91.146 88.3638 91.146 87.6068C91.146 86.7511 90.8087 86.1367 90.134 85.7637C89.4592 85.3906 88.3594 85.2041 86.8343 85.2041H85.7811V80.7608H86.966C87.5036 80.7608 87.9918 80.7059 88.4307 80.5962C88.8695 80.4865 89.2453 80.3329 89.558 80.1354C89.8706 79.9379 90.112 79.6966 90.2821 79.4113C90.4521 79.126 90.5371 78.8024 90.5371 78.4403C90.5371 77.9027 90.3452 77.4804 89.9612 77.1732C89.5772 76.866 89.0396 76.7124 88.3484 76.7124C87.5584 76.7124 86.8234 76.9071 86.1432 77.2966C85.4629 77.6861 84.8595 78.2758 84.3329 79.0657L80.2845 74.3261C80.6904 73.8763 81.2033 73.4649 81.8232 73.0919C82.4431 72.7188 83.137 72.3979 83.905 72.1291C84.673 71.8603 85.4986 71.6519 86.3818 71.5038C87.265 71.3556 88.1673 71.2816 89.0889 71.2816C90.3397 71.2816 91.4752 71.4242 92.4955 71.7095C93.5159 71.9947 94.3908 72.3952 95.1204 72.9108C95.85 73.4265 96.415 74.0491 96.8154 74.7787C97.2159 75.5083 97.4161 76.3229 97.4161 77.2225C97.4161 77.8808 97.3064 78.5171 97.087 79.1315C96.8676 79.7459 96.5631 80.3 96.1736 80.7937C95.7841 81.2874 95.3234 81.7043 94.7912 82.0444C94.2591 82.3845 93.6859 82.6094 93.0715 82.7191C93.7627 82.8288 94.3963 83.0647 94.9723 83.4268C95.5483 83.7888 96.0447 84.2386 96.4616 84.7762C96.8785 85.3138 97.2022 85.9255 97.4326 86.6112C97.663 87.2969 97.7782 88.0182 97.7782 88.7753C97.7782 89.8395 97.556 90.7967 97.1117 91.647C96.6673 92.4973 96.031 93.2186 95.2027 93.8111C94.3743 94.4035 93.3677 94.8588 92.1828 95.177C90.9979 95.4952 89.6649 95.6542 88.1838 95.6542C86.4503 95.6542 84.9199 95.4348 83.5923 94.996C82.2648 94.5571 81.0635 93.8769 79.9883 92.9553L83.2632 88.3145ZM99.9669 83.6572C99.9669 81.8688 100.2 80.2149 100.666 78.6954C101.133 77.1759 101.777 75.8676 102.6 74.7705C103.423 73.6733 104.399 72.8148 105.529 72.195C106.659 71.5751 107.894 71.2651 109.232 71.2651C110.56 71.2651 111.788 71.5751 112.919 72.195C114.049 72.8148 115.025 73.6733 115.848 74.7705C116.671 75.8676 117.315 77.1759 117.782 78.6954C118.248 80.2149 118.481 81.8688 118.481 83.6572C118.481 85.4345 118.248 87.0692 117.782 88.5613C117.315 90.0534 116.671 91.337 115.848 92.4122C115.025 93.4874 114.049 94.3267 112.919 94.9301C111.788 95.5336 110.56 95.8353 109.232 95.8353C107.894 95.8353 106.659 95.5336 105.529 94.9301C104.399 94.3267 103.423 93.4874 102.6 92.4122C101.777 91.337 101.133 90.0534 100.666 88.5613C100.2 87.0692 99.9669 85.4345 99.9669 83.6572ZM106.369 83.6572C106.369 84.0083 106.385 84.4087 106.418 84.8585C106.451 85.3083 106.509 85.7664 106.591 86.2327C106.673 86.699 106.783 87.157 106.92 87.6068C107.057 88.0566 107.233 88.4571 107.447 88.8082C107.661 89.1593 107.913 89.4418 108.204 89.6557C108.494 89.8696 108.837 89.9766 109.232 89.9766C109.605 89.9766 109.932 89.8751 110.211 89.6722C110.491 89.4692 110.735 89.2004 110.944 88.8658C111.152 88.5312 111.325 88.1444 111.462 87.7056C111.599 87.2667 111.709 86.8142 111.791 86.3479C111.873 85.8816 111.931 85.4153 111.964 84.949C111.997 84.4828 112.013 84.0521 112.013 83.6572C112.013 83.3171 111.997 82.9194 111.964 82.464C111.931 82.0087 111.873 81.5397 111.791 81.057C111.709 80.5743 111.599 80.097 111.462 79.6252C111.325 79.1535 111.152 78.7338 110.944 78.3663C110.735 77.9987 110.491 77.7025 110.211 77.4776C109.932 77.2527 109.605 77.1402 109.232 77.1402C108.859 77.1402 108.527 77.2445 108.237 77.4529C107.946 77.6614 107.693 77.9384 107.48 78.284C107.266 78.6296 107.087 79.0246 106.945 79.4689C106.802 79.9132 106.69 80.3768 106.607 80.8595C106.525 81.3422 106.465 81.825 106.426 82.3077C106.388 82.7904 106.369 83.2403 106.369 83.6572Z" fill="#FFF1E2"/>
<path id="Vector_26" fill-rule="evenodd" clip-rule="evenodd" d="M83.9766 110.111V101.337H87.1626C87.8787 101.337 88.5062 101.453 89.0453 101.684C89.5843 101.915 90.0359 102.228 90.4 102.622C90.764 103.017 91.0366 103.479 91.2176 104.01C91.3986 104.541 91.4891 105.109 91.4891 105.712C91.4891 106.38 91.3876 106.983 91.1844 107.522C90.9813 108.061 90.6906 108.523 90.3125 108.907C89.9343 109.291 89.4797 109.588 88.9487 109.797C88.4177 110.006 87.8224 110.111 87.1626 110.111H83.9766ZM85.6782 108.614H87.1626C87.581 108.614 87.9531 108.54 88.2789 108.391C88.6048 108.242 88.8773 108.038 89.0966 107.779C89.3158 107.519 89.4828 107.212 89.5974 106.858C89.7121 106.504 89.7694 106.122 89.7694 105.712C89.7694 105.294 89.7121 104.906 89.5974 104.55C89.4828 104.194 89.3138 103.889 89.0905 103.633C88.8673 103.378 88.5927 103.181 88.2669 103.042C87.941 102.903 87.5729 102.834 87.1626 102.834H85.6782V108.614ZM91.9538 110.111L95.4174 101.337H96.7992L100.245 110.111H98.4405L97.638 107.927H94.5605L93.758 110.111H91.9538ZM94.8441 106.726H97.3302L96.1053 103.178L94.8441 106.726ZM100.221 101.337H102.073L104.233 105.561L106.436 101.337H108.276L105.09 107.046V110.111H103.395V107.021L100.221 101.337ZM108.506 109.073L109.26 107.601C109.332 107.673 109.466 107.77 109.661 107.89C109.856 108.011 110.086 108.131 110.349 108.249C110.612 108.368 110.905 108.469 111.227 108.551C111.549 108.634 111.879 108.675 112.217 108.675C113.154 108.675 113.623 108.375 113.623 107.776C113.623 107.579 113.569 107.414 113.463 107.281C113.356 107.148 113.203 107.032 113.004 106.934C112.805 106.835 112.566 106.745 112.286 106.662C112.006 106.58 111.694 106.494 111.348 106.406C110.929 106.289 110.565 106.163 110.255 106.026C109.946 105.889 109.688 105.73 109.483 105.549C109.278 105.368 109.123 105.154 109.018 104.906C108.914 104.659 108.862 104.366 108.862 104.028C108.862 103.582 108.944 103.187 109.109 102.843C109.274 102.499 109.503 102.211 109.797 101.98C110.091 101.749 110.43 101.574 110.817 101.455C111.203 101.336 111.619 101.277 112.066 101.277C112.685 101.277 113.254 101.373 113.773 101.566C114.292 101.76 114.745 101.987 115.131 102.248L114.377 103.636C114.321 103.58 114.216 103.501 114.063 103.401C113.91 103.3 113.724 103.203 113.505 103.108C113.286 103.014 113.048 102.933 112.793 102.867C112.537 102.8 112.279 102.767 112.017 102.767C111.547 102.767 111.196 102.855 110.964 103.03C110.733 103.205 110.618 103.447 110.618 103.757C110.618 103.938 110.661 104.089 110.747 104.209C110.834 104.33 110.959 104.436 111.124 104.526C111.289 104.617 111.498 104.699 111.749 104.774C112 104.848 112.291 104.926 112.621 105.006C113.047 105.123 113.436 105.246 113.788 105.377C114.14 105.508 114.437 105.673 114.679 105.872C114.92 106.071 115.107 106.308 115.24 106.584C115.372 106.859 115.439 107.198 115.439 107.601C115.439 108.071 115.35 108.474 115.173 108.808C114.996 109.141 114.76 109.411 114.464 109.616C114.169 109.821 113.823 109.971 113.426 110.066C113.03 110.16 112.617 110.207 112.186 110.207C111.527 110.207 110.876 110.109 110.234 109.912C109.593 109.715 109.016 109.435 108.506 109.073Z" fill="#FFF1E2"/>
<g id="Group_3">
<path id="Vector_27" fill-rule="evenodd" clip-rule="evenodd" d="M58.0898 146.061V139.681H60.0032L61.3768 142.682L62.7636 139.681H64.6682V146.061H62.9172V142.7L61.8464 145.065H60.9116L59.8409 142.7V146.061H58.0898ZM67.861 142.862C67.861 142.444 67.9422 142.039 68.1046 141.649C68.267 141.258 68.493 140.915 68.7826 140.62C69.0723 140.324 69.4168 140.088 69.8161 139.911C70.2155 139.734 70.6507 139.646 71.1217 139.646C71.6074 139.646 72.0484 139.738 72.4448 139.924C72.8413 140.11 73.1799 140.356 73.4608 140.661C73.7416 140.967 73.9589 141.315 74.1125 141.704C74.2661 142.093 74.3429 142.491 74.3429 142.897C74.3429 143.316 74.2617 143.719 74.0993 144.106C73.9369 144.494 73.7117 144.836 73.4235 145.131C73.1353 145.427 72.7923 145.664 72.3944 145.844C71.9965 146.024 71.5606 146.114 71.0866 146.114C70.6009 146.114 70.1606 146.021 69.7657 145.835C69.3707 145.65 69.0328 145.405 68.7519 145.103C68.471 144.8 68.2524 144.454 68.0958 144.065C67.9393 143.676 67.861 143.275 67.861 142.862ZM69.6428 142.88C69.6428 143.096 69.6728 143.305 69.7327 143.505C69.7927 143.706 69.8819 143.883 70.0004 144.038C70.1189 144.193 70.2696 144.319 70.4525 144.416C70.6353 144.512 70.8525 144.561 71.1041 144.561C71.3558 144.561 71.5744 144.511 71.7602 144.411C71.946 144.312 72.0974 144.183 72.2144 144.025C72.3315 143.867 72.4185 143.687 72.4756 143.483C72.5326 143.28 72.5611 143.073 72.5611 142.862C72.5611 142.646 72.5311 142.437 72.4712 142.237C72.4112 142.037 72.3198 141.86 72.1969 141.708C72.074 141.556 71.9211 141.433 71.7383 141.339C71.5554 141.246 71.3411 141.199 71.0954 141.199C70.8438 141.199 70.6265 141.247 70.4437 141.344C70.2608 141.44 70.1094 141.568 69.9895 141.726C69.8695 141.884 69.7817 142.063 69.7262 142.263C69.6706 142.464 69.6428 142.669 69.6428 142.88ZM77.5357 146.061V139.681H78.9005L81.4634 142.924V139.681H83.2144V146.061H81.8233L79.2867 142.924V146.061H77.5357ZM86.7627 146.061V139.681H91.2302V141.208H88.5137V142.107H90.8353V143.525H88.5137V144.534H91.3092V146.061H86.7627ZM93.9754 139.681H95.8713L97.0123 142.441L98.1796 139.681H100.084L97.8856 143.951V146.061H96.139V143.933L93.9754 139.681ZM107.479 146.061V139.681H111.183C111.405 139.681 111.606 139.728 111.784 139.823C111.963 139.918 112.115 140.043 112.241 140.196C112.367 140.35 112.464 140.524 112.533 140.718C112.601 140.913 112.636 141.113 112.636 141.318C112.636 141.616 112.56 141.901 112.408 142.173C112.255 142.445 112.027 142.652 111.723 142.792C112.089 142.9 112.378 143.087 112.59 143.352C112.802 143.616 112.908 143.974 112.908 144.425C112.908 144.711 112.848 144.959 112.728 145.166C112.608 145.374 112.443 145.544 112.234 145.675C112.025 145.807 111.781 145.904 111.501 145.967C111.222 146.03 110.927 146.061 110.617 146.061H107.479ZM109.23 144.587H110.617C110.76 144.587 110.881 144.542 110.979 144.451C111.077 144.36 111.126 144.231 111.126 144.065C111.126 143.91 111.084 143.779 111.001 143.674C110.918 143.569 110.81 143.516 110.678 143.516H109.23V144.587ZM109.23 142.151H110.428C110.548 142.151 110.657 142.118 110.755 142.053C110.853 141.987 110.902 141.854 110.902 141.655C110.902 141.483 110.861 141.359 110.777 141.285C110.694 141.21 110.595 141.173 110.481 141.173H109.23V142.151ZM115.565 146.061L117.786 139.681H119.383L121.595 146.061H119.818L119.432 144.811H117.729L117.351 146.061H115.565ZM117.992 143.643H119.151L118.585 141.669L117.992 143.643ZM124.226 142.818C124.226 142.429 124.299 142.046 124.446 141.669C124.592 141.291 124.806 140.953 125.089 140.653C125.371 140.353 125.712 140.11 126.113 139.924C126.514 139.738 126.972 139.646 127.487 139.646C128.104 139.646 128.64 139.773 129.093 140.027C129.547 140.282 129.883 140.618 130.102 141.037L128.764 141.989C128.705 141.834 128.626 141.705 128.527 141.603C128.427 141.5 128.318 141.419 128.198 141.359C128.078 141.299 127.953 141.258 127.825 141.234C127.696 141.211 127.572 141.199 127.452 141.199C127.2 141.199 126.983 141.249 126.8 141.348C126.617 141.448 126.467 141.576 126.35 141.734C126.233 141.892 126.147 142.072 126.091 142.272C126.036 142.472 126.008 142.672 126.008 142.871C126.008 143.093 126.041 143.306 126.107 143.51C126.172 143.713 126.268 143.892 126.394 144.047C126.52 144.202 126.674 144.327 126.857 144.42C127.04 144.514 127.244 144.561 127.469 144.561C127.589 144.561 127.712 144.547 127.838 144.521C127.964 144.495 128.085 144.45 128.202 144.387C128.319 144.324 128.425 144.243 128.518 144.144C128.612 144.044 128.685 143.923 128.738 143.779L130.168 144.631C130.072 144.865 129.926 145.075 129.732 145.261C129.537 145.446 129.315 145.602 129.067 145.728C128.818 145.854 128.551 145.95 128.266 146.015C127.981 146.081 127.703 146.114 127.434 146.114C126.96 146.114 126.527 146.02 126.135 145.831C125.743 145.642 125.405 145.392 125.121 145.081C124.838 144.769 124.617 144.416 124.461 144.021C124.304 143.626 124.226 143.225 124.226 142.818ZM133.238 146.061V139.681H134.989V142.107L136.933 139.681H138.908L136.591 142.538L139.07 146.061H137.056L135.476 143.714L134.989 144.218V146.061H133.238Z" fill="#FFF1E2"/>
<g id="Group_4">
<path id="Vector_28" opacity="0.3" d="M42.9047 132.552H157.098C157.718 132.552 158.221 132.049 158.221 131.428C158.221 130.808 157.718 130.305 157.098 130.305H42.9047C42.2842 130.305 41.7812 130.808 41.7812 131.428C41.7812 132.049 42.2842 132.552 42.9047 132.552Z" fill="#FFF1E2"/>
<path id="Vector_29" opacity="0.3" d="M82.225 157.267H117.776C118.397 157.267 118.9 156.764 118.9 156.144C118.9 155.523 118.397 155.021 117.776 155.021H82.225C81.6046 155.021 81.1016 155.523 81.1016 156.144C81.1016 156.764 81.6046 157.267 82.225 157.267Z" fill="#FFF1E2"/>
<path id="Vector_30" opacity="0.3" d="M93.4594 161.762H106.541C107.162 161.762 107.665 161.259 107.665 160.638C107.665 160.018 107.162 159.515 106.541 159.515H93.4594C92.8389 159.515 92.3359 160.018 92.3359 160.638C92.3359 161.259 92.8389 161.762 93.4594 161.762Z" fill="#FFF1E2"/>
</g>
<path id="Vector_31" opacity="0.3" d="M39.8969 116.852C42.0686 116.852 43.829 115.091 43.829 112.919C43.829 110.748 42.0686 108.987 39.8969 108.987C37.7253 108.987 35.9648 110.748 35.9648 112.919C35.9648 115.091 37.7253 116.852 39.8969 116.852Z" fill="#FFF1E2"/>
<path id="Vector_32" opacity="0.3" d="M157.862 116.852C160.033 116.852 161.794 115.091 161.794 112.919C161.794 110.748 160.033 108.987 157.862 108.987C155.69 108.987 153.93 110.748 153.93 112.919C153.93 115.091 155.69 116.852 157.862 116.852Z" fill="#FFF1E2"/>
</g>
</g>
</g>
</svg>
