<svg width="24" height="24" viewBox="0 0 24 24" fill="none" xmlns="http://www.w3.org/2000/svg">
<g id="Show-hide password" clip-path="url(#clip0_999_2694)">
<path id="Vector" d="M22.4151 11.6867C20.1684 7.53335 16.2284 5.02002 11.8684 5.02002C7.50844 5.02002 3.56177 7.53335 1.3351 11.6867L1.14844 12L1.32177 12.32C3.56844 16.4734 7.50844 18.9867 11.8684 18.9867C16.2284 18.9867 20.1751 16.5067 22.4151 12.32L22.5884 12L22.4151 11.6867ZM11.8684 17.62C8.1151 17.62 4.66844 15.5267 2.66844 12C4.66844 8.47335 8.1151 6.38002 11.8684 6.38002C15.6218 6.38002 19.0284 8.48002 21.0618 12C19.0284 15.5267 15.6151 17.62 11.8684 17.62Z" fill="white"/>
<path id="Vector_2" d="M12.0595 7.44666C11.1556 7.45325 10.2739 7.72757 9.52577 8.23498C8.77767 8.74238 8.19671 9.4601 7.85627 10.2975C7.51583 11.1349 7.43118 12.0544 7.61302 12.9398C7.79485 13.8253 8.23502 14.637 8.87791 15.2725C9.52081 15.9079 10.3376 16.3386 11.2251 16.5101C12.1127 16.6816 13.0311 16.5863 13.8645 16.2361C14.6978 15.886 15.4087 15.2967 15.9074 14.5427C16.406 13.7888 16.6701 12.9039 16.6662 12C16.6635 11.3983 16.5422 10.803 16.3091 10.2483C16.076 9.69353 15.7358 9.19025 15.3078 8.76726C14.8799 8.34427 14.3727 8.00988 13.8152 7.78327C13.2578 7.55665 12.6612 7.44226 12.0595 7.44666ZM12.0595 15.26C11.421 15.2534 10.7987 15.0583 10.2707 14.6992C9.74272 14.3401 9.33263 13.833 9.09192 13.2415C8.85121 12.6501 8.79062 12.0008 8.91777 11.375C9.04491 10.7493 9.35411 10.1751 9.80654 9.72446C10.259 9.27388 10.8345 8.96702 11.4607 8.84243C12.087 8.71785 12.7361 8.78108 13.3265 9.0242C13.9169 9.26732 14.4224 9.67949 14.7793 10.2089C15.1363 10.7384 15.3288 11.3615 15.3328 12C15.3346 12.4297 15.2511 12.8555 15.087 13.2527C14.923 13.6499 14.6817 14.0106 14.3772 14.3139C14.0727 14.6171 13.7111 14.8569 13.3132 15.0193C12.9154 15.1817 12.4892 15.2635 12.0595 15.26Z" fill="white"/>
</g>
<defs>
<clipPath id="clip0_999_2694">
<rect width="24" height="24" fill="white"/>
</clipPath>
</defs>
</svg>
