<svg width="20" height="20" viewBox="0 0 20 20" fill="none" xmlns="http://www.w3.org/2000/svg">
<g id="Group">
<path id="Vector" d="M6.87019 6.1166L1.55353 6.88744L1.45936 6.9066C1.31681 6.94445 1.18685 7.01944 1.08277 7.12394C0.978684 7.22843 0.904195 7.35868 0.866911 7.50137C0.829626 7.64407 0.830882 7.79411 0.870549 7.93616C0.910216 8.07822 0.986873 8.2072 1.09269 8.30994L4.94436 12.0591L4.03603 17.3549L4.02519 17.4466C4.01647 17.594 4.04708 17.7411 4.1139 17.8729C4.18072 18.0046 4.28135 18.1162 4.40547 18.1962C4.5296 18.2762 4.67277 18.3218 4.82032 18.3284C4.96787 18.3349 5.1145 18.3021 5.24519 18.2333L10.0002 15.7333L14.7444 18.2333L14.8277 18.2716C14.9652 18.3258 15.1147 18.3424 15.2608 18.3197C15.4069 18.2971 15.5443 18.236 15.659 18.1427C15.7737 18.0494 15.8615 17.9272 15.9134 17.7888C15.9653 17.6504 15.9794 17.5006 15.9544 17.3549L15.0452 12.0591L18.8985 8.3091L18.9635 8.23827C19.0564 8.12391 19.1173 7.98698 19.14 7.84143C19.1627 7.69588 19.1464 7.54692 19.0928 7.40971C19.0392 7.2725 18.9501 7.15196 18.8348 7.06036C18.7194 6.96876 18.5818 6.90938 18.436 6.88827L13.1194 6.1166L10.7427 1.29994C10.6739 1.16038 10.5675 1.04286 10.4354 0.960689C10.3032 0.878514 10.1508 0.834961 9.99519 0.834961C9.83961 0.834961 9.68714 0.878514 9.55503 0.960689C9.42293 1.04286 9.31646 1.16038 9.24769 1.29994L6.87019 6.1166Z" fill="#EE9B07"/>
</g>
</svg>
